<?xml version="1.0" encoding="UTF-8" ?>
<svg width="120pt" height="120pt" viewBox="0 0 120 120" version="1.1" xmlns="http://www.w3.org/2000/svg" id="weather34 good aqi">
<path fill="rgba(53, 56, 58, 0.7)" opacity="1.00" d=" M 45.06 17.78 C 51.41 18.18 57.60 20.05 63.98 20.02 C 73.06 20.36 82.94 24.14 87.54 32.45 C 91.90 40.27 91.09 49.61 89.04 57.99 C 90.08 58.50 91.13 59.00 92.18 59.50 C 94.00 64.59 92.01 70.04 89.66 74.61 C 88.20 77.76 84.23 78.47 82.67 81.53 C 78.57 87.83 74.65 95.66 66.84 97.86 C 61.95 99.65 56.47 98.66 52.01 96.17 C 46.65 92.30 43.33 86.43 39.86 80.95 C 38.47 78.43 35.06 78.00 33.76 75.39 C 30.96 70.64 28.95 64.89 30.67 59.40 C 31.69 58.97 32.70 58.53 33.71 58.09 C 31.89 52.27 31.54 46.09 32.22 40.06 C 33.05 35.03 36.76 31.19 38.20 26.37 C 38.80 26.06 40.00 25.45 40.60 25.14 C 41.11 25.10 42.13 25.03 42.65 24.99 C 42.97 22.45 43.73 19.99 45.06 17.78 M 47.00 21.53 C 46.55 23.40 46.11 25.28 45.73 27.17 C 44.17 27.94 42.59 28.67 41.00 29.38 C 40.97 29.87 40.90 30.85 40.86 31.34 C 38.92 33.46 37.35 35.87 36.04 38.42 C 34.81 46.05 35.86 53.78 38.30 61.06 C 36.71 61.51 35.10 61.92 33.50 62.33 C 33.77 66.59 34.94 70.75 37.22 74.38 C 39.05 75.19 41.19 75.87 42.15 77.79 C 45.38 83.12 48.46 88.80 53.40 92.78 C 58.33 96.09 65.46 95.93 70.18 92.29 C 74.81 88.26 77.66 82.70 80.90 77.58 C 82.23 75.27 85.36 74.93 86.73 72.64 C 88.61 69.50 89.08 65.79 89.32 62.20 C 86.94 61.74 83.56 62.34 82.36 59.61 C 80.55 55.29 80.03 50.48 77.70 46.36 C 76.18 44.13 73.83 42.22 71.05 42.05 C 64.11 41.60 56.99 42.88 50.21 40.85 C 48.88 44.66 46.39 48.18 42.31 49.30 C 43.42 47.13 45.08 45.34 46.76 43.59 C 47.39 41.70 48.05 39.82 48.72 37.94 C 55.80 41.09 63.59 39.69 71.07 40.02 C 75.12 40.09 78.56 43.14 80.23 46.66 C 81.98 50.79 83.07 55.17 84.36 59.46 C 84.85 58.49 85.35 57.52 85.85 56.56 C 87.84 47.58 88.33 36.64 81.04 29.83 C 71.69 21.51 58.30 24.25 47.00 21.53 Z" />
<path fill="rgba(53, 56, 58, 0.7)" opacity="1.00" d=" M 46.10 56.70 C 48.43 54.43 51.76 54.96 54.72 54.89 C 55.13 55.44 55.94 56.54 56.35 57.09 C 52.93 57.07 49.50 57.05 46.10 56.70 Z" />
<path fill="rgba(53, 56, 58, 0.7)" opacity="1.00" d=" M 66.09 56.72 C 69.11 54.10 73.84 54.20 76.90 56.71 C 73.31 57.10 69.68 57.10 66.09 56.72 Z" />
<path fill="rgba(53, 56, 58, 0.7)" opacity="1.00" d=" M 47.50 61.66 C 49.49 60.00 54.74 58.47 54.06 62.67 C 52.06 65.36 49.40 63.09 47.50 61.66 Z" />
<path fill="rgba(53, 56, 58, 0.7)" opacity="1.00" d=" M 67.83 60.83 C 70.03 60.25 72.47 59.47 74.57 60.84 C 74.02 62.02 73.42 64.08 71.82 63.99 C 69.83 64.27 69.08 61.92 67.83 60.83 Z" />
<path fill="rgba(53, 56, 58, 0.7)" opacity="1.00" d=" M 58.02 70.95 C 60.66 71.00 63.31 71.07 65.93 71.39 C 63.91 73.64 60.76 72.93 58.09 73.11 C 58.07 72.57 58.04 71.49 58.02 70.95 Z" />
<path fill="rgba(53, 56, 58, 0.7)" opacity="1.00" d=" M 52.34 78.41 C 55.58 79.79 58.27 82.65 61.87 83.04 C 64.97 82.18 67.38 79.92 70.28 78.65 C 69.48 82.50 65.48 84.35 61.97 85.00 C 57.88 84.90 53.68 82.44 52.34 78.41 Z" />
</svg>
