<?xml version="1.0" encoding="UTF-8" ?>
<!DOCTYPE svg PUBLIC "-//W3C//DTD SVG 1.1//EN" "http://www.w3.org/Graphics/SVG/1.1/DTD/svg11.dtd">
<svg id="weather34 air quality moderate" width="259pt" height="266pt" viewBox="0 0 159 166" version="1.1" xmlns="http://www.w3.org/2000/svg">
<path fill="#2e2e2e" opacity="0.96" d=" M 85.89 30.11 C 87.49 29.50 89.06 29.73 90.45 30.74 C 86.74 32.98 82.63 34.38 78.78 36.32 C 78.39 36.10 77.63 35.66 77.25 35.44 C 77.97 34.33 78.68 33.22 79.36 32.08 C 68.62 32.13 57.39 35.96 50.32 44.36 C 45.18 50.27 43.18 58.25 43.04 65.93 C 43.27 72.54 44.61 79.04 45.66 85.55 C 44.17 85.49 42.68 85.43 41.19 85.37 C 42.24 90.73 43.13 96.76 46.90 100.95 C 48.01 100.54 49.11 100.09 50.19 99.60 C 54.38 109.67 60.08 119.45 68.69 126.37 C 73.00 129.61 78.79 129.89 83.91 128.89 C 88.76 127.81 92.21 123.98 95.41 120.46 C 100.86 114.39 104.62 107.06 107.81 99.60 C 108.90 100.09 110.00 100.54 111.13 100.95 C 114.77 96.75 115.79 90.88 116.79 85.56 C 114.57 85.27 111.53 86.16 110.31 83.68 C 107.18 77.93 106.98 71.05 103.67 65.35 C 100.83 59.59 94.26 56.49 88.02 56.69 C 82.30 56.88 76.67 58.62 70.92 58.05 C 67.70 57.79 64.58 56.91 61.48 56.07 C 60.22 61.88 56.89 67.71 51.08 69.90 L 50.23 69.02 C 52.40 66.90 55.10 65.26 56.79 62.66 C 58.57 60.02 59.27 56.88 60.42 53.95 C 64.54 54.99 68.71 56.07 72.98 56.16 C 78.96 56.20 84.83 54.40 90.82 54.93 C 96.35 55.50 101.86 58.42 104.70 63.32 C 107.68 68.06 108.55 73.67 110.37 78.87 C 110.56 80.34 111.95 80.87 113.04 81.56 C 114.21 73.77 115.97 65.78 114.07 57.95 C 112.34 47.77 104.69 38.92 95.04 35.44 C 91.90 36.05 89.13 38.35 85.77 37.70 C 89.10 34.07 94.07 33.15 98.40 31.26 C 98.42 31.98 98.46 33.43 98.48 34.16 C 105.77 38.07 112.03 44.27 114.82 52.17 C 118.54 61.65 117.19 72.06 115.48 81.82 C 116.73 83.05 119.05 83.84 118.86 85.96 C 118.90 90.36 117.01 94.50 115.58 98.59 C 114.48 101.91 111.39 103.80 108.17 104.63 C 104.05 113.43 98.61 121.85 91.01 128.05 C 87.46 131.10 82.58 131.68 78.07 131.60 C 74.36 131.44 70.44 130.83 67.48 128.41 C 59.61 122.21 54.03 113.60 49.82 104.61 C 46.63 103.80 43.56 101.95 42.45 98.67 C 41.01 94.56 39.11 90.40 39.14 85.97 C 38.94 83.85 41.27 83.07 42.53 81.84 C 40.86 72.06 39.36 61.61 43.15 52.13 C 47.18 40.69 58.25 32.82 69.95 30.79 C 75.20 29.69 80.58 30.24 85.89 30.11 Z" />
<path fill="#2e2e2e" opacity="0.96" d=" M 59.15 76.14 C 63.66 75.62 68.24 75.64 72.76 76.13 C 68.69 78.26 63.22 78.26 59.15 76.14 Z" />
<path fill="#2e2e2e" opacity="0.96" d=" M 85.34 76.18 C 89.83 75.64 94.38 75.61 98.87 76.16 C 94.79 78.29 89.44 78.16 85.34 76.18 Z" />
<path fill="#2e2e2e" opacity="0.96" d=" M 62.96 82.24 C 65.29 80.30 68.21 81.86 70.49 82.97 C 68.98 84.80 66.88 86.47 64.37 85.55 C 62.73 85.83 61.06 82.80 62.96 82.24 Z" />
<path fill="#2e2e2e" opacity="0.96" d=" M 87.67 82.83 C 90.22 81.47 93.57 80.37 95.93 82.75 C 95.74 87.26 89.06 86.24 87.67 82.83 Z" />
<path fill="#2e2e2e" opacity="0.96" d=" M 74.24 96.85 C 77.42 96.78 80.86 96.20 83.81 97.75 C 80.64 98.70 76.89 99.37 74.24 96.85 Z" />
<path fill="#2e2e2e" opacity="0.96" d=" M 68.50 110.08 C 71.81 108.58 75.47 108.99 78.99 108.94 C 82.52 109.00 86.19 108.57 89.51 110.09 C 86.10 111.16 82.50 110.92 78.98 110.95 C 75.47 110.92 71.89 111.17 68.50 110.08 Z" />
<path fill="#2e2e2e" opacity="0.96" d=" M 75.34 114.28 C 78.10 114.29 80.88 114.36 83.61 114.80 C 81.29 116.55 78.32 116.17 75.60 116.25 C 75.54 115.75 75.41 114.77 75.34 114.28 Z" />
</svg>
