<?xml version="1.0" encoding="UTF-8" ?>
<svg width="120pt" height="120pt" viewBox="0 0 120 120" version="1.1" xmlns="http://www.w3.org/2000/svg" id="weather34 moderate aqi">
<path fill="rgba(53, 56, 58, 0.7)" opacity="1.00" d=" M 45.44 18.06 C 51.33 17.94 57.04 20.12 62.96 20.01 C 72.37 20.14 82.71 23.88 87.50 32.50 C 91.82 40.29 90.97 49.64 89.00 58.01 C 90.01 58.50 91.02 58.99 92.04 59.48 C 94.08 64.52 91.90 70.02 89.62 74.59 C 88.25 77.54 84.64 78.29 82.98 80.97 C 79.65 86.18 76.54 91.77 71.60 95.65 C 65.64 99.60 57.38 99.67 51.41 95.71 C 46.45 91.80 43.23 86.24 39.93 80.96 C 38.53 78.43 35.17 77.92 33.79 75.38 C 31.41 71.32 29.74 66.61 30.04 61.86 C 30.24 59.85 32.32 58.95 33.66 57.76 C 31.21 48.79 30.38 37.95 36.88 30.42 C 37.27 29.03 37.68 27.64 38.09 26.26 C 39.63 25.75 41.18 25.26 42.74 24.79 C 43.20 22.42 43.27 19.59 45.44 18.06 M 47.06 21.40 C 46.50 23.38 46.15 25.43 45.32 27.32 C 43.98 28.16 42.46 28.66 41.01 29.27 C 40.93 29.82 40.79 30.92 40.72 31.47 C 38.24 34.14 35.97 37.27 35.72 41.03 C 34.47 47.77 36.48 54.43 38.12 60.89 C 36.59 61.48 34.97 61.83 33.38 62.27 C 33.70 66.60 34.89 70.84 37.25 74.51 C 38.79 75.23 40.72 75.60 41.67 77.17 C 45.23 82.82 48.38 89.07 53.85 93.16 C 58.58 95.95 65.03 95.88 69.61 92.79 C 74.73 88.61 77.81 82.61 81.26 77.10 C 82.15 75.51 84.14 75.24 85.64 74.49 C 88.15 70.79 89.27 66.40 89.45 61.97 C 87.10 61.50 83.51 62.39 82.40 59.56 C 80.69 55.44 80.14 50.89 78.05 46.91 C 76.46 44.03 73.39 41.82 70.01 41.95 C 63.36 41.73 56.57 42.75 50.08 40.78 C 48.89 44.53 46.54 48.10 42.48 49.06 C 44.89 45.55 47.83 42.36 48.81 38.07 C 56.68 41.63 65.43 38.93 73.59 40.53 C 81.59 43.38 81.72 53.07 84.63 59.73 C 88.25 49.96 89.06 36.87 80.56 29.35 C 71.19 21.45 58.14 24.28 47.06 21.40 Z" />
<path fill="rgba(53, 56, 58, 0.7)" opacity="1.00" d=" M 46.22 57.00 C 48.80 53.83 53.85 54.25 56.76 56.74 C 53.25 56.98 49.73 57.02 46.22 57.00 Z" />
<path fill="rgba(53, 56, 58, 0.7)" opacity="1.00" d=" M 66.23 56.83 C 69.04 54.02 73.89 54.14 76.76 56.77 C 73.26 57.00 69.74 57.01 66.23 56.83 Z" />
<path fill="rgba(53, 56, 58, 0.7)" opacity="1.00" d=" M 47.71 61.77 C 49.43 59.83 54.85 58.78 53.99 62.72 C 52.00 65.06 49.53 63.14 47.71 61.77 Z" />
<path fill="rgba(53, 56, 58, 0.7)" opacity="1.00" d=" M 70.15 60.22 C 71.61 59.52 73.17 60.27 74.46 60.98 C 74.37 63.60 70.67 65.12 69.19 62.64 C 68.10 61.31 68.42 60.51 70.15 60.22 Z" />
<path fill="rgba(53, 56, 58, 0.7)" opacity="1.00" d=" M 57.32 71.23 C 60.11 71.06 62.90 71.06 65.68 71.27 C 63.78 73.79 59.06 74.03 57.32 71.23 Z" />
<path fill="rgba(53, 56, 58, 0.7)" opacity="1.00" d=" M 53.29 81.04 C 58.78 81.04 64.28 80.77 69.75 81.29 C 69.29 81.66 68.38 82.41 67.92 82.78 C 63.23 83.23 58.50 82.84 53.79 82.94 C 53.67 82.47 53.42 81.52 53.29 81.04 Z" />
</svg>
