<svg width="140px" height="130px" viewBox="0 0 130 130"  version="1.1" xmlns="http://www.w3.org/2000/svg">
<path fill="#9f7cac" opacity="1.00" d=" M 44.86 18.92 C 52.32 19.22 59.69 20.53 67.12 21.23 C 75.62 22.19 84.56 26.58 88.17 34.75 C 91.38 42.13 90.61 50.49 89.01 58.18 C 90.27 59.38 91.82 60.39 92.64 61.98 C 93.75 67.61 89.77 72.44 89.29 77.84 C 85.87 76.58 83.08 73.91 79.62 72.61 C 76.43 74.65 74.08 77.63 71.69 80.50 C 72.26 78.19 73.02 75.93 73.94 73.74 C 69.53 71.75 65.64 68.80 61.20 66.87 C 57.19 69.32 53.07 71.58 48.87 73.70 C 49.76 75.37 50.65 77.03 51.53 78.70 C 48.76 76.66 45.95 74.67 43.11 72.73 C 39.77 74.18 36.54 75.96 34.06 78.68 C 36.15 78.44 38.64 76.78 40.44 78.54 C 44.36 81.85 46.63 86.94 46.83 92.03 C 46.90 94.72 43.83 95.83 42.32 97.57 C 46.03 96.89 49.55 95.52 53.02 94.07 C 58.31 96.30 64.28 96.72 69.49 93.99 C 73.09 95.49 76.73 97.08 80.69 97.20 C 79.30 96.52 77.90 95.87 76.49 95.24 C 75.38 89.31 77.55 83.05 81.99 79.00 C 84.15 76.81 87.89 79.12 90.31 78.08 L 86.06 78.97 C 87.36 79.12 89.47 78.27 90.10 79.93 L 90.17 80.88 C 90.47 87.97 86.75 95.41 80.15 98.45 C 77.07 99.79 74.03 97.32 70.95 97.39 C 67.67 98.13 64.46 99.38 61.05 99.47 C 57.91 99.25 54.98 98.03 51.94 97.38 C 48.78 97.39 45.64 99.88 42.49 98.35 C 34.50 94.44 30.94 84.31 33.59 76.01 C 31.86 71.54 29.53 66.92 30.26 61.98 C 31.02 60.44 32.57 59.49 33.77 58.33 C 31.88 50.44 30.45 41.30 35.07 34.06 C 36.60 31.91 37.59 29.46 38.25 26.92 C 39.68 26.52 41.11 26.13 42.54 25.74 C 43.12 23.41 43.86 21.12 44.86 18.92 M 45.59 28.20 C 44.24 28.57 42.89 28.93 41.54 29.30 C 39.81 33.69 36.02 37.21 35.63 42.10 C 34.00 51.84 38.42 61.05 42.54 69.56 C 43.58 72.03 46.70 72.47 48.96 71.53 C 53.52 69.84 57.07 66.10 61.87 64.93 C 66.04 66.84 69.63 69.81 73.91 71.47 C 75.69 72.22 78.24 72.37 79.38 70.48 C 81.60 67.14 84.03 62.97 82.04 58.95 C 79.91 53.14 79.09 44.62 71.92 42.89 C 64.72 41.85 57.28 43.61 50.20 41.28 C 48.73 44.99 46.29 48.43 42.36 49.79 C 44.90 46.42 47.61 43.07 48.79 38.93 C 53.11 40.05 57.50 41.29 62.02 40.94 C 66.97 40.86 72.69 39.73 76.79 43.29 C 81.67 47.71 82.22 54.69 84.64 60.47 C 87.08 53.64 88.03 46.11 86.15 39.03 C 85.03 33.96 81.25 29.74 76.66 27.46 C 67.44 22.70 56.69 24.48 46.90 21.83 C 46.47 23.96 46.03 26.08 45.59 28.20 M 33.58 62.15 C 33.56 66.21 34.56 70.16 36.09 73.89 C 37.80 73.13 39.51 72.38 41.21 71.62 C 39.91 68.64 38.60 65.67 37.31 62.69 C 36.07 62.50 34.82 62.32 33.58 62.15 M 85.34 63.17 C 83.71 65.80 82.63 68.71 81.28 71.48 C 83.13 72.27 84.98 73.05 86.83 73.84 C 88.38 69.89 89.26 65.74 89.40 61.49 C 88.05 62.05 86.60 62.41 85.34 63.17 M 36.77 78.72 C 36.45 85.04 39.20 91.32 44.47 94.94 C 45.65 88.57 42.84 81.49 36.77 78.72 M 77.74 95.03 C 83.70 92.08 86.11 85.27 86.27 79.00 C 79.76 81.33 77.74 88.79 77.74 95.03 Z" />
<path fill="#9f7cac" opacity="1.00" d=" M 45.93 57.53 C 49.18 55.05 53.37 55.77 57.10 56.47 C 53.70 58.51 49.67 58.05 45.93 57.53 Z" />
<path fill="#9f7cac" opacity="1.00" d=" M 65.90 56.42 C 69.60 55.80 73.37 55.78 77.08 56.37 C 73.70 58.74 69.34 58.58 65.90 56.42 Z" />
<path fill="#9f7cac" opacity="1.00" d=" M 47.94 61.71 C 49.86 61.39 51.77 61.08 53.69 60.77 C 53.78 61.54 53.97 63.10 54.06 63.88 C 52.49 63.97 50.91 64.06 49.34 64.15 C 48.87 63.34 48.41 62.52 47.94 61.71 Z" />
<path fill="#9f7cac" opacity="1.00" d=" M 68.95 61.13 C 70.80 61.07 72.66 61.01 74.51 60.95 C 74.32 61.67 73.93 63.12 73.73 63.84 C 72.14 63.96 70.54 64.07 68.95 64.19 C 68.95 63.43 68.95 61.90 68.95 61.13 Z" />
<path fill="#9f7cac" opacity="1.00" d=" M 55.26 79.42 C 59.39 77.98 63.88 78.09 67.98 79.59 C 63.77 80.40 59.42 80.60 55.26 79.42 Z" />
<path fill="#9f7cac" opacity="1.00" d=" M 52.78 83.60 C 58.54 82.77 64.39 82.84 70.15 83.63 C 64.61 85.45 58.29 85.61 52.78 83.60 Z" />
<path fill="#9f7cac" opacity="1.00" d=" M 54.86 88.42 C 58.38 86.76 62.31 86.96 66.10 87.05 C 66.33 87.52 66.81 88.46 67.05 88.93 C 62.98 89.07 58.89 89.02 54.86 88.42 Z" />
</svg>
