<svg id="weather34 air quality unhealthy mask" width="140px" height="130px" viewBox="0 0 130 130" version="1.8" xmlns="http://www.w3.org/2000/svg">
<path fill="#d65b4a"  d=" M 45.25 18.49 C 52.32 18.84 59.28 20.26 66.33 20.84 C 75.54 21.80 85.22 26.75 88.58 35.87 C 89.86 40.78 90.90 45.96 89.98 51.03 C 89.49 53.69 89.25 56.39 89.38 59.10 C 90.08 59.28 91.49 59.66 92.19 59.85 C 92.61 63.90 92.79 68.15 90.96 71.92 C 89.01 77.28 83.59 80.08 80.70 84.81 C 77.34 89.93 73.87 95.69 67.75 97.79 C 61.92 99.57 54.84 99.17 50.05 95.02 C 46.32 91.95 43.88 87.71 41.19 83.77 C 38.57 79.78 34.16 77.21 32.14 72.79 C 30.35 69.38 30.20 65.46 29.53 61.74 C 30.59 60.82 31.66 59.91 32.73 59.01 C 33.16 53.14 30.71 47.35 32.10 41.52 C 32.70 36.14 36.43 31.92 37.99 26.87 C 39.43 26.31 40.87 25.76 42.31 25.20 C 42.89 22.81 43.60 20.38 45.25 18.49 M 46.79 22.28 C 46.34 23.92 45.85 25.56 45.36 27.19 C 38.87 31.46 34.94 39.23 35.33 46.99 C 35.35 56.38 40.38 64.60 43.88 73.01 C 49.57 70.53 54.47 65.77 61.02 65.68 C 67.47 65.94 72.55 70.34 78.14 72.98 C 79.59 69.79 81.33 66.72 82.46 63.40 C 82.99 60.58 81.46 57.91 80.73 55.26 C 79.30 51.60 78.51 47.33 75.44 44.61 C 72.02 41.56 67.16 42.68 62.99 42.47 C 58.62 42.69 54.35 41.69 50.01 41.47 C 48.75 44.02 47.12 46.36 45.10 48.37 C 44.47 48.44 43.21 48.57 42.59 48.64 C 45.18 45.86 46.94 42.47 48.62 39.10 C 53.08 39.43 57.46 40.64 61.97 40.46 C 67.17 40.73 73.34 39.41 77.42 43.54 C 81.25 48.13 82.50 54.23 84.08 59.84 C 86.79 53.93 87.28 47.27 86.34 40.90 C 85.00 33.52 79.05 27.31 71.78 25.52 C 63.60 23.47 55.14 23.06 46.79 22.28 M 33.39 62.11 C 33.29 66.84 35.44 71.08 37.03 75.40 C 38.59 75.33 40.14 75.26 41.70 75.18 C 41.40 71.30 39.29 67.88 37.58 64.48 C 36.86 62.77 35.07 62.31 33.39 62.11 M 79.87 74.53 C 81.64 75.01 83.43 75.41 85.24 75.71 C 87.33 71.52 89.07 67.08 88.92 62.31 C 88.10 62.39 86.46 62.55 85.64 62.63 C 83.04 66.19 81.56 70.47 79.87 74.53 M 45.58 74.60 C 44.19 75.55 41.32 76.23 42.37 78.48 C 45.06 83.57 48.18 88.61 52.53 92.45 C 58.06 97.09 67.09 96.33 71.75 90.82 C 75.29 86.61 78.82 82.20 80.80 77.02 C 74.53 73.79 68.81 69.08 61.78 67.60 C 55.68 67.60 50.74 71.88 45.58 74.60 Z" />
<path fill="#d65b4a"   d=" M 47.21 55.37 C 50.45 55.51 53.58 56.38 56.73 57.05 C 53.56 57.21 50.39 57.40 47.21 57.56 C 47.21 57.01 47.21 55.92 47.21 55.37 Z" />
<path fill="#d65b4a"   d=" M 66.52 57.22 C 68.76 54.61 72.37 55.63 75.35 55.76 C 75.39 56.15 75.48 56.93 75.53 57.32 C 72.53 57.52 69.51 57.55 66.52 57.22 Z" />
<path fill="#d65b4a"   d=" M 48.16 61.55 C 49.92 61.21 51.66 60.85 53.42 60.51 C 53.54 61.59 53.66 62.66 53.78 63.73 C 52.03 63.61 50.27 63.48 48.51 63.34 C 48.43 62.89 48.25 62.00 48.16 61.55 Z" />
<path fill="#d65b4a"   d=" M 68.43 63.59 C 68.67 62.52 68.75 61.31 69.68 60.57 C 71.32 60.42 72.86 61.05 74.36 61.60 C 74.33 62.08 74.27 63.05 74.24 63.53 C 72.30 63.58 70.37 63.60 68.43 63.59 Z" />
<path fill="#d65b4a"   d=" M 56.27 78.48 C 60.03 78.10 63.83 78.13 67.53 78.90 C 64.01 79.62 60.44 80.31 56.83 80.20 C 56.69 79.77 56.41 78.91 56.27 78.48 Z" />
<path fill="#d65b4a"   d=" M 52.30 82.87 C 58.02 82.44 63.76 82.42 69.49 82.79 C 68.01 83.24 66.55 83.71 65.11 84.28 C 60.77 84.97 56.43 84.23 52.30 82.87 Z" />
<path fill="#d65b4a"   d=" M 55.06 88.10 C 56.05 87.64 57.05 87.19 58.04 86.71 C 61.09 86.35 64.07 87.04 66.93 88.04 C 63.00 88.77 59.01 88.54 55.06 88.10 Z" />
</svg>
