<svg width="140px" height="130px" viewBox="0 0 130 130"  version="1.1" xmlns="http://www.w3.org/2000/svg">
<path fill="#d55a4a" opacity="1.00" d=" M 44.85 18.92 C 52.31 19.22 59.67 20.53 67.10 21.22 C 75.61 22.18 84.55 26.57 88.16 34.74 C 91.42 42.15 90.53 50.52 89.06 58.25 C 90.29 59.47 91.96 60.42 92.66 62.08 C 93.65 67.67 89.85 72.48 89.23 77.85 C 85.85 76.49 83.03 73.95 79.61 72.59 C 76.45 74.69 74.06 77.63 71.67 80.51 C 72.27 78.21 73.04 75.95 73.93 73.74 C 69.54 71.73 65.63 68.82 61.21 66.87 C 57.19 69.31 53.07 71.58 48.87 73.70 C 49.76 75.37 50.65 77.03 51.54 78.70 C 48.76 76.67 45.95 74.68 43.11 72.73 C 39.77 74.18 36.57 75.98 34.05 78.66 C 36.14 78.45 38.63 76.80 40.42 78.52 C 44.34 81.82 46.62 86.90 46.83 91.98 C 46.94 94.80 43.70 95.93 42.10 97.69 C 45.86 96.87 49.48 95.57 53.02 94.08 C 58.33 96.31 64.30 96.70 69.53 93.99 C 73.10 95.51 76.74 97.07 80.69 97.18 C 79.64 96.70 77.55 95.74 76.51 95.26 C 75.30 88.90 77.86 81.84 83.23 78.13 C 85.47 78.28 88.66 78.01 90.09 79.96 L 90.18 80.92 C 90.44 87.96 86.78 95.35 80.24 98.41 C 77.16 99.80 74.10 97.39 71.02 97.39 C 68.32 97.94 65.72 98.95 62.97 99.29 C 59.73 99.88 56.59 98.53 53.50 97.75 C 49.83 96.30 46.17 100.19 42.51 98.35 C 34.50 94.46 30.95 84.33 33.58 76.02 C 31.87 71.55 29.56 66.95 30.24 62.02 C 31.02 60.46 32.55 59.49 33.77 58.32 C 31.88 50.42 30.45 41.29 35.08 34.05 C 36.60 31.89 37.57 29.45 38.26 26.92 C 39.68 26.52 41.10 26.13 42.52 25.74 C 43.14 23.41 43.87 21.12 44.85 18.92 M 45.63 28.16 C 44.26 28.55 42.90 28.93 41.54 29.32 C 39.62 33.94 35.65 37.76 35.52 43.02 C 34.26 52.48 38.57 61.34 42.57 69.60 C 43.30 71.25 45.13 72.20 46.91 71.96 C 52.57 71.38 56.23 65.81 61.86 65.19 C 67.19 66.74 71.17 71.87 76.96 71.97 C 80.85 70.83 81.52 65.91 83.11 62.70 C 81.38 57.28 80.26 51.56 77.36 46.60 C 74.77 42.47 69.38 42.23 65.01 42.53 C 60.04 42.92 55.06 42.52 50.22 41.28 C 48.72 44.99 46.28 48.41 42.35 49.81 C 44.90 46.43 47.59 43.05 48.82 38.91 C 53.13 40.08 57.53 41.29 62.05 40.93 C 66.98 40.86 72.69 39.74 76.78 43.28 C 81.66 47.69 82.22 54.67 84.63 60.45 C 87.07 53.67 88.02 46.19 86.18 39.14 C 85.08 34.02 81.28 29.76 76.66 27.46 C 67.44 22.71 56.69 24.48 46.89 21.83 C 46.47 23.94 46.05 26.05 45.63 28.16 M 33.56 62.14 C 33.61 66.19 34.54 70.16 36.08 73.90 C 37.79 73.14 39.50 72.38 41.21 71.62 C 39.91 68.65 38.61 65.68 37.32 62.71 C 36.07 62.51 34.82 62.32 33.56 62.14 M 85.29 63.29 C 83.67 65.87 82.60 68.75 81.28 71.48 C 83.13 72.27 84.98 73.05 86.83 73.83 C 88.37 69.88 89.26 65.73 89.41 61.49 C 88.08 62.13 86.42 62.30 85.29 63.29 M 36.77 78.71 C 36.45 85.04 39.20 91.32 44.48 94.95 C 45.64 88.57 42.84 81.50 36.77 78.71 M 77.74 95.04 C 83.70 92.07 86.11 85.26 86.27 78.98 C 79.76 81.34 77.74 88.79 77.74 95.04 Z" />
<path fill="#d55a4a" opacity="1.00" d=" M 45.88 57.49 C 49.20 55.06 53.38 55.78 57.12 56.48 C 53.69 58.48 49.65 58.09 45.88 57.49 Z" />
<path fill="#d55a4a" opacity="1.00" d=" M 65.88 56.42 C 69.59 55.81 73.38 55.77 77.10 56.38 C 73.69 58.73 69.34 58.57 65.88 56.42 Z" />
<path fill="#d55a4a" opacity="1.00" d=" M 47.94 61.71 C 49.85 61.39 51.76 61.08 53.68 60.76 C 53.78 61.54 53.97 63.10 54.07 63.88 C 52.50 63.97 50.93 64.06 49.35 64.16 C 49.00 63.55 48.29 62.32 47.94 61.71 Z" />
<path fill="#d55a4a" opacity="1.00" d=" M 68.95 61.13 C 70.80 61.07 72.66 61.01 74.51 60.95 C 74.32 61.67 73.92 63.12 73.73 63.85 C 72.13 63.96 70.54 64.08 68.95 64.19 C 68.95 63.43 68.95 61.89 68.95 61.13 Z" />
<path fill="#d55a4a" opacity="1.00" d=" M 54.92 79.55 C 59.15 78.03 63.77 78.02 67.99 79.59 C 63.67 80.47 59.24 80.45 54.92 79.55 Z" />
<path fill="#d55a4a" opacity="1.00" d=" M 52.77 83.62 C 58.53 82.76 64.39 82.83 70.15 83.64 C 64.60 85.44 58.29 85.61 52.77 83.62 Z" />
<path fill="#d55a4a" opacity="1.00" d=" M 54.86 88.43 C 58.40 86.78 62.33 86.94 66.13 87.05 C 66.35 87.53 66.77 88.49 66.98 88.97 C 62.94 89.06 58.88 89.01 54.86 88.43 Z" />
</svg>
