<?xml version="1.0" encoding="UTF-8" ?>
<!DOCTYPE svg PUBLIC "-//W3C//DTD SVG 1.1//EN" "http://www.w3.org/Graphics/SVG/1.1/DTD/svg11.dtd">
<svg id="weather34 air quality unhealthy" width="259pt" height="266pt" viewBox="0 0 166 166" version="1.1" xmlns="http://www.w3.org/2000/svg">
<path fill="#222222" opacity="0.96" d=" M 87.81 34.09 C 89.43 33.66 91.04 33.93 92.55 34.60 C 88.85 36.99 84.66 38.36 80.74 40.30 C 80.37 40.09 79.64 39.68 79.28 39.48 C 79.99 38.34 80.70 37.20 81.38 36.05 C 70.42 36.14 58.91 40.11 51.89 48.87 C 47.21 54.45 45.39 61.82 45.06 68.96 C 45.29 81.91 48.65 94.63 53.71 106.51 C 63.05 103.59 69.89 94.86 79.97 94.09 C 91.00 93.52 98.37 103.43 108.29 106.51 C 110.31 101.12 112.82 95.81 113.75 90.08 C 109.23 83.36 109.24 74.79 104.87 68.00 C 101.97 63.30 96.38 60.82 90.99 60.69 C 85.64 60.65 80.41 62.21 75.06 62.15 C 71.11 62.12 67.27 61.10 63.49 60.08 C 62.18 65.91 58.85 71.73 53.00 73.95 L 52.32 72.99 C 55.61 70.03 59.56 67.24 60.69 62.68 C 61.48 61.29 61.17 58.84 62.95 58.30 C 67.96 59.04 72.94 60.68 78.07 60.05 C 85.32 59.39 93.20 57.27 99.96 61.09 C 106.20 64.00 108.95 70.88 110.61 77.14 C 111.73 80.13 111.75 84.10 115.00 85.72 C 116.62 76.58 118.23 67.00 115.07 57.97 C 112.32 49.49 105.39 42.54 97.09 39.39 C 94.50 39.83 92.21 41.19 89.93 42.43 C 89.47 42.08 88.53 41.38 88.07 41.02 C 91.70 38.21 96.20 37.04 100.34 35.22 C 100.37 35.96 100.44 37.42 100.47 38.15 C 107.73 42.08 114.00 48.22 116.78 56.11 C 120.62 65.55 119.16 75.99 117.47 85.73 C 118.71 86.98 120.96 87.86 120.85 89.95 C 120.89 94.37 118.99 98.52 117.56 102.62 C 116.45 105.93 113.35 107.81 110.15 108.65 C 106.04 117.44 100.62 125.83 93.04 132.01 C 88.33 135.90 81.72 136.02 75.97 135.15 C 70.92 134.49 67.15 130.70 63.85 127.16 C 58.79 121.76 55.00 115.32 51.86 108.65 C 48.63 107.81 45.55 105.91 44.43 102.61 C 42.99 98.50 41.09 94.33 41.15 89.89 C 41.09 87.84 43.31 86.99 44.54 85.75 C 42.78 75.78 41.35 65.06 45.43 55.45 C 49.48 44.68 59.87 37.30 70.88 34.96 C 76.45 33.72 82.17 34.20 87.81 34.09 M 44.41 94.70 C 45.80 98.70 46.57 103.66 50.82 105.68 C 48.87 99.87 47.17 93.97 44.71 88.35 C 44.08 90.41 43.61 92.61 44.41 94.70 M 111.17 105.67 C 112.96 104.56 114.81 103.29 115.37 101.12 C 116.81 97.06 119.23 92.66 117.29 88.33 C 114.71 93.91 113.05 99.84 111.17 105.67 M 74.46 97.53 C 67.59 100.74 61.79 105.93 54.61 108.54 C 58.67 116.88 63.94 124.94 71.41 130.60 C 77.25 134.22 85.50 134.17 91.16 130.20 C 98.30 124.49 103.44 116.69 107.39 108.53 C 100.22 105.94 94.44 100.76 87.59 97.56 C 83.52 95.53 78.54 95.52 74.46 97.53 Z" />
<path fill="#222222" opacity="0.96" d=" M 60.98 80.20 C 65.21 79.59 69.50 79.79 73.76 79.80 C 73.74 80.20 73.68 81.02 73.65 81.43 C 69.43 81.32 64.89 82.25 60.98 80.20 Z" />
<path fill="#222222" opacity="0.96" d=" M 88.35 79.81 C 92.61 79.88 97.11 79.14 101.13 80.94 C 96.90 81.69 92.59 81.49 88.32 81.44 L 88.35 79.81 Z" />
<path fill="#222222" opacity="0.96" d=" M 64.74 89.04 C 62.91 86.63 65.91 85.25 67.99 85.31 C 69.62 85.54 71.06 86.42 72.58 87.01 C 70.70 89.45 67.58 90.53 64.74 89.04 Z" />
<path fill="#222222" opacity="0.96" d=" M 89.57 86.89 C 92.32 85.15 95.52 85.11 98.45 86.42 C 97.26 90.79 91.56 90.56 89.57 86.89 Z" />
<path fill="#222222" opacity="0.96" d=" M 70.24 110.02 C 73.92 108.27 78.09 109.20 82.01 108.97 C 85.31 109.14 89.03 108.23 91.83 110.49 C 87.64 111.43 83.32 111.18 79.06 111.23 C 76.09 111.18 72.94 111.54 70.24 110.02 Z" />
<path fill="#222222" opacity="0.96" d=" M 72.07 113.99 C 78.02 114.00 83.97 114.00 89.92 113.99 C 90.28 114.54 90.98 115.64 91.33 116.19 C 84.47 116.75 77.54 116.75 70.67 116.20 C 71.02 115.65 71.72 114.54 72.07 113.99 Z" />
<path fill="#222222" opacity="0.96" d=" M 69.89 120.31 C 73.44 118.93 77.27 119.25 80.98 119.22 C 84.40 119.28 87.91 118.94 91.20 120.09 C 84.10 120.36 76.99 120.07 69.89 120.31 Z" />
<path fill="#222222" opacity="0.96" d=" M 71.89 120.71 C 78.32 120.95 84.77 120.63 91.20 120.90 C 84.94 122.73 78.29 121.43 71.86 121.79 L 71.89 120.71 Z" />
</svg>
