<?xml version="1.0" encoding="UTF-8" ?>
<!DOCTYPE svg PUBLIC "-//W3C//DTD SVG 1.1//EN" "http://www.w3.org/Graphics/SVG/1.1/DTD/svg11.dtd">
<svg id="weather34 air quality unhealthy for some" width="259pt" height="266pt" viewBox="0 0 151 164" version="1.1" xmlns="http://www.w3.org/2000/svg">
<path fill="#424242" opacity="0.98" d=" M 64.07 27.39 C 68.71 28.17 73.42 27.96 78.11 28.03 C 90.84 28.68 103.73 35.93 109.06 47.83 C 113.80 57.84 112.39 69.31 110.64 79.86 C 111.86 80.77 113.06 81.70 114.25 82.65 C 113.99 87.77 112.34 92.72 110.37 97.41 C 109.17 100.34 106.37 102.01 103.37 102.57 C 99.30 111.23 94.02 119.52 86.64 125.73 C 81.61 130.15 74.26 130.40 68.00 129.10 C 64.98 128.64 62.48 126.72 60.23 124.77 C 53.47 118.65 48.50 110.83 44.66 102.61 C 41.67 101.98 38.81 100.37 37.64 97.41 C 36.02 93.41 34.46 89.27 33.92 84.97 C 33.31 82.42 35.71 81.07 37.32 79.66 C 35.69 69.44 34.28 58.38 38.66 48.63 C 41.23 42.39 46.01 37.24 51.71 33.72 C 53.57 32.78 54.39 30.84 55.32 29.11 C 59.17 31.25 63.77 32.00 67.01 35.17 C 66.49 35.52 65.47 36.22 64.96 36.57 C 62.71 35.26 60.35 34.18 57.90 33.30 C 48.88 37.35 41.07 45.15 39.27 55.15 C 36.95 63.60 38.77 72.37 40.61 80.73 C 45.07 72.94 44.62 62.24 52.44 56.49 C 59.49 50.99 68.79 53.05 76.93 53.89 C 82.32 54.64 87.48 52.66 92.76 52.07 C 94.16 54.59 94.34 57.63 95.99 60.04 C 97.71 62.92 100.64 64.69 102.99 66.98 C 102.19 69.10 100.50 67.26 99.38 66.79 C 94.94 64.08 92.57 59.15 91.50 54.22 C 84.51 56.62 76.97 56.65 69.77 55.26 C 63.32 54.09 55.81 55.21 51.41 60.50 C 46.33 66.62 46.39 75.07 42.77 81.89 C 41.60 84.30 38.54 83.42 36.42 83.71 C 37.21 89.13 38.77 94.59 41.91 99.13 C 43.09 98.16 45.20 96.52 45.90 98.89 C 50.17 108.65 55.82 118.21 64.45 124.72 C 71.11 128.72 80.83 128.16 86.38 122.43 C 92.97 116.32 97.83 108.61 101.38 100.40 C 102.04 99.48 102.19 97.63 103.57 97.56 C 104.20 97.95 105.46 98.73 106.08 99.12 C 109.24 94.59 110.77 89.13 111.59 83.72 C 110.20 83.41 108.61 83.91 107.33 83.19 C 108.12 76.78 109.58 70.45 109.94 64.00 C 109.56 56.10 107.61 47.85 102.08 41.89 C 95.00 33.88 84.07 30.34 73.61 30.14 C 74.45 31.38 75.32 32.60 76.18 33.83 C 71.79 34.33 67.82 31.48 63.96 29.73 C 62.38 29.44 63.92 28.16 64.07 27.39 Z" />
<path fill="#424242" opacity="0.98" d=" M 53.34 75.46 C 58.35 75.03 63.10 73.54 67.29 70.76 C 67.23 74.10 63.93 75.36 61.27 76.29 C 58.71 77.18 55.33 77.79 53.34 75.46 Z" />
<path fill="#424242" opacity="0.98" d=" M 81.09 71.02 C 85.20 73.67 89.83 75.03 94.68 75.51 C 92.13 78.09 88.19 76.98 85.26 75.75 C 83.35 74.85 80.21 73.75 81.09 71.02 Z" />
<path fill="#424242" opacity="0.98" d=" M 57.92 83.01 C 55.98 82.09 57.42 79.67 59.05 79.36 C 61.37 78.30 63.54 79.95 65.47 81.03 C 63.96 83.60 60.47 85.08 57.92 83.01 Z" />
<path fill="#424242" opacity="0.98" d=" M 82.43 81.18 C 84.58 79.59 87.65 77.96 90.04 80.10 C 92.40 81.17 89.93 83.99 88.08 83.88 C 85.68 84.55 83.87 82.79 82.43 81.18 Z" />
<path fill="#424242" opacity="0.98" d=" M 69.18 95.73 C 71.98 93.98 76.09 93.94 78.87 95.73 C 75.75 97.08 72.31 97.06 69.18 95.73 Z" />
<path fill="#424242" opacity="0.98" d=" M 73.18 106.15 C 77.45 106.08 83.14 106.84 84.76 111.50 C 81.14 110.48 77.89 107.91 73.98 108.18 C 70.52 108.22 67.64 110.39 64.43 111.38 C 65.04 107.31 69.88 106.69 73.18 106.15 Z" />
<path fill="#424242" opacity="0.98" d=" M 69.47 113.59 C 71.56 111.83 74.29 112.08 76.83 112.01 C 77.08 112.55 77.58 113.65 77.83 114.20 C 75.03 114.26 72.21 114.18 69.47 113.59 Z" />
</svg>
