<?xml version="1.0" encoding="UTF-8" ?>
<svg width="120pt" height="120pt" viewBox="0 0 120 120" version="1.1" xmlns="http://www.w3.org/2000/svg" id="weather34 unhealthy aqi">
<path fill="rgba(53, 56, 58, 0.7)" opacity="1.00" d=" M 45.17 17.72 C 51.46 18.44 57.66 20.02 64.02 20.06 C 73.09 20.41 82.88 24.21 87.49 32.48 C 91.83 40.29 90.93 49.64 89.02 58.02 C 90.01 58.50 91.01 58.98 92.01 59.46 C 94.03 64.29 92.00 69.54 89.94 74.00 C 88.59 77.51 84.32 78.32 82.59 81.53 C 79.15 86.91 75.93 92.94 70.36 96.39 C 64.53 99.57 57.01 99.39 51.45 95.73 C 46.45 91.83 43.25 86.22 39.92 80.94 C 38.45 78.45 35.17 77.85 33.75 75.32 C 31.40 71.27 29.74 66.57 30.05 61.83 C 30.27 59.83 32.34 58.97 33.67 57.78 C 31.20 48.79 30.41 37.97 36.88 30.41 C 37.27 29.04 37.68 27.66 38.09 26.29 C 39.63 25.77 41.17 25.26 42.72 24.78 C 43.03 22.27 43.86 19.88 45.17 17.72 M 47.06 21.39 C 46.50 23.37 46.13 25.41 45.34 27.32 C 43.98 28.13 42.46 28.64 41.01 29.25 C 40.93 29.80 40.77 30.92 40.69 31.47 C 38.27 34.16 35.96 37.24 35.71 40.99 C 34.47 47.73 36.43 54.41 38.15 60.88 C 36.59 61.43 34.98 61.78 33.39 62.21 C 33.70 66.57 34.87 70.84 37.26 74.53 C 38.78 75.29 40.75 75.59 41.67 77.19 C 45.24 82.83 48.38 89.09 53.86 93.17 C 58.59 95.97 65.05 95.88 69.62 92.79 C 74.76 88.62 77.80 82.59 81.27 77.10 C 82.15 75.52 84.12 75.29 85.60 74.54 C 88.16 70.82 89.27 66.42 89.48 61.95 C 87.13 61.48 83.51 62.40 82.42 59.56 C 80.68 55.45 80.16 50.90 78.06 46.94 C 76.51 44.05 73.45 41.86 70.09 41.94 C 63.41 41.74 56.59 42.73 50.07 40.78 C 48.81 44.50 46.61 48.27 42.34 48.92 C 45.03 45.65 47.86 42.33 48.77 38.07 C 56.66 41.63 65.42 38.93 73.60 40.54 C 81.53 43.39 81.78 53.02 84.54 59.70 C 88.38 49.99 89.01 36.84 80.55 29.32 C 71.17 21.45 58.14 24.28 47.06 21.39 Z" />
<path fill="rgba(53, 56, 58, 0.7)" opacity="1.00" d=" M 54.88 54.48 C 55.15 54.87 55.68 55.64 55.94 56.03 C 52.92 56.89 49.77 57.33 46.63 56.93 C 46.60 56.52 46.54 55.71 46.51 55.31 C 49.29 54.95 52.10 54.81 54.88 54.48 Z" />
<path fill="rgba(53, 56, 58, 0.7)" opacity="1.00" d=" M 66.30 54.37 C 69.45 54.79 72.62 55.05 75.79 55.18 C 75.79 55.64 75.78 56.56 75.77 57.03 C 72.46 56.80 68.08 58.07 66.30 54.37 Z" />
<path fill="rgba(53, 56, 58, 0.7)" opacity="1.00" d=" M 47.73 61.82 C 49.47 60.41 52.14 58.97 54.04 60.95 C 54.70 62.81 52.73 64.03 51.08 63.84 C 49.90 63.27 48.83 62.51 47.73 61.82 Z" />
<path fill="rgba(53, 56, 58, 0.7)" opacity="1.00" d=" M 70.19 60.21 C 71.60 59.55 73.11 60.28 74.38 60.90 C 74.51 63.64 70.68 65.05 69.15 62.66 C 68.14 61.28 68.48 60.47 70.19 60.21 Z" />
<path fill="rgba(53, 56, 58, 0.7)" opacity="1.00" d=" M 57.39 71.19 C 60.13 71.06 62.88 71.07 65.62 71.24 C 63.87 73.83 58.94 74.08 57.39 71.19 Z" />
<path fill="rgba(53, 56, 58, 0.7)" opacity="1.00" d=" M 52.58 83.90 C 54.88 81.59 57.45 78.94 60.97 78.97 C 64.71 78.61 67.63 81.26 70.21 83.56 C 69.76 84.04 69.32 84.53 68.89 85.02 C 66.84 83.38 64.85 81.21 62.09 80.97 C 58.86 80.35 56.48 83.04 54.23 84.87 C 53.82 84.63 52.99 84.14 52.58 83.90 Z" />
</svg>
