<?xml version="1.0" encoding="UTF-8" ?>
<!DOCTYPE svg PUBLIC "-//W3C//DTD SVG 1.1//EN" "http://www.w3.org/Graphics/SVG/1.1/DTD/svg11.dtd">
<svg id="weather34 air quality very unhealthy to hazardous" width="259pt" height="266pt" viewBox="0 0 161 163" version="1.1" xmlns="http://www.w3.org/2000/svg">
<path fill="#2a2a2a" opacity="0.96" d=" M 71.32 30.46 C 77.16 29.22 83.24 30.96 89.01 29.21 C 89.14 29.71 89.40 30.70 89.53 31.20 C 85.75 33.52 81.51 35.65 77.04 36.05 C 77.81 34.72 78.54 33.37 79.31 32.04 C 68.19 32.31 56.45 36.37 49.52 45.48 C 45.34 50.71 43.74 57.39 43.10 63.92 C 42.60 71.22 45.29 78.34 45.28 85.57 C 44.29 85.54 42.32 85.48 41.34 85.45 C 42.09 90.94 43.56 96.62 46.92 101.14 C 47.69 100.73 49.22 99.92 49.99 99.51 C 51.21 101.54 52.16 103.72 53.21 105.84 C 55.37 105.94 57.52 106.12 59.66 106.42 C 63.72 100.40 68.34 94.22 75.01 90.94 C 77.75 89.44 81.08 89.75 83.70 91.32 C 89.93 94.76 94.42 100.56 98.24 106.42 C 100.41 106.11 102.61 105.94 104.81 105.86 C 105.84 103.74 106.76 101.57 107.97 99.54 C 108.74 99.94 110.30 100.74 111.08 101.14 C 114.43 96.64 115.94 90.96 116.59 85.45 C 114.48 85.25 111.36 86.28 110.26 83.78 C 106.55 76.82 106.70 68.07 101.23 61.98 C 96.58 56.79 88.96 56.19 82.49 57.30 C 75.53 58.64 68.21 58.57 61.51 56.06 C 60.33 62.28 56.51 68.05 50.44 70.38 C 50.42 67.88 52.81 66.83 54.33 65.31 C 56.57 63.42 58.11 60.80 58.84 57.97 C 59.37 56.61 59.41 54.81 60.87 54.03 C 65.52 55.09 70.20 56.37 75.02 55.98 C 82.86 55.67 91.50 52.93 98.68 57.40 C 105.10 60.81 107.42 68.24 109.19 74.79 C 110.21 77.40 110.19 80.76 112.68 82.52 C 114.06 74.44 116.15 66.06 113.96 57.92 C 112.36 47.57 104.44 39.39 95.14 35.23 C 92.07 36.00 89.23 38.91 85.94 37.60 C 88.87 33.76 94.01 33.48 97.93 31.10 C 98.21 32.13 98.49 33.16 98.76 34.19 C 105.23 37.82 111.00 43.09 113.99 49.99 C 118.74 60.11 117.34 71.72 115.41 82.36 C 116.07 82.53 117.38 82.86 118.04 83.03 C 118.90 85.11 119.48 87.43 118.63 89.63 C 117.19 93.71 116.50 98.23 113.80 101.73 C 112.53 103.56 110.22 103.90 108.24 104.50 C 107.82 105.43 107.40 106.36 106.98 107.30 C 109.36 108.99 114.30 109.39 114.07 113.01 C 112.30 117.67 109.57 121.90 107.42 126.39 C 105.58 129.61 104.34 133.23 101.95 136.11 C 96.82 136.36 92.85 131.58 88.20 130.26 C 82.00 132.04 75.40 132.16 69.25 130.02 C 65.66 132.43 61.86 134.58 57.85 136.20 C 55.64 136.90 54.87 134.52 53.97 133.06 C 51.13 127.55 48.32 122.02 45.41 116.54 C 44.59 114.88 43.46 113.13 43.98 111.20 C 46.06 109.48 48.63 108.51 51.00 107.25 C 50.58 106.32 50.16 105.39 49.74 104.47 C 45.74 104.13 42.86 101.03 41.83 97.31 C 40.62 92.70 37.46 87.76 39.99 83.03 C 40.64 82.87 41.94 82.53 42.59 82.37 C 40.67 71.70 39.22 60.05 43.99 49.90 C 48.77 39.12 59.88 32.13 71.32 30.46 M 75.61 92.65 C 69.23 96.23 64.48 102.16 60.82 108.39 C 63.75 114.73 68.00 120.52 69.71 127.37 C 75.52 130.19 82.48 130.19 88.29 127.37 C 89.91 120.52 94.22 114.76 97.11 108.43 C 94.36 103.30 90.45 98.88 86.06 95.10 C 83.25 92.80 79.13 90.28 75.61 92.65 M 50.19 110.05 C 53.85 117.41 57.52 124.78 61.59 131.92 C 63.93 130.39 68.02 129.54 67.84 126.01 C 66.10 121.68 63.63 117.68 61.63 113.46 C 60.38 111.32 59.52 108.54 57.02 107.53 C 54.56 107.77 52.42 109.11 50.19 110.05 M 95.02 115.98 C 93.42 119.33 91.37 122.47 90.15 125.99 C 89.76 129.62 94.08 130.53 96.48 132.00 C 100.39 124.74 104.26 117.44 107.82 110.00 C 105.29 109.14 102.78 106.94 99.98 107.83 C 97.57 110.00 96.55 113.21 95.02 115.98 M 45.97 111.93 C 49.04 119.54 53.33 126.58 56.99 133.92 C 57.74 133.71 59.26 133.30 60.02 133.10 C 56.57 125.67 52.54 118.53 48.97 111.17 C 48.22 111.36 46.72 111.74 45.97 111.93 M 109.23 110.97 C 105.74 118.38 101.28 125.35 98.34 132.99 C 98.99 133.25 100.30 133.76 100.95 134.02 C 104.46 126.83 108.28 119.80 111.87 112.65 C 110.99 112.09 110.11 111.53 109.23 110.97 Z" />
<path fill="#2a2a2a" opacity="0.96" d=" M 59.27 76.02 C 63.73 75.68 68.23 75.65 72.69 76.10 C 70.89 77.88 68.30 77.53 66.00 77.60 C 63.69 77.45 60.96 78.06 59.27 76.02 Z" />
<path fill="#2a2a2a" opacity="0.96" d=" M 85.46 76.07 C 89.86 75.67 94.30 75.68 98.70 76.01 C 97.08 78.10 94.33 77.42 92.04 77.60 C 89.79 77.48 87.13 78.01 85.46 76.07 Z" />
<path fill="#2a2a2a" opacity="0.96" d=" M 64.30 81.42 C 66.37 80.68 69.24 81.37 69.87 83.71 C 68.47 86.38 64.49 86.55 62.46 84.54 C 61.40 83.18 63.04 81.75 64.30 81.42 Z" />
<path fill="#2a2a2a" opacity="0.96" d=" M 90.38 81.41 C 92.46 80.69 95.62 81.32 96.08 83.83 C 94.58 86.23 91.18 86.39 88.95 84.96 C 87.80 83.48 88.67 81.80 90.38 81.41 Z" />
<path fill="#2a2a2a" opacity="0.96" d=" M 75.37 103.68 C 81.74 101.01 89.67 106.10 89.63 113.04 C 90.28 119.31 84.06 124.94 77.93 124.15 C 72.69 123.39 68.05 118.41 68.60 112.97 C 68.68 108.89 71.63 105.13 75.37 103.68 M 76.36 109.25 C 73.79 110.46 73.67 113.99 74.68 116.28 C 76.68 120.01 83.34 119.30 84.02 114.93 C 85.58 110.57 80.06 106.54 76.36 109.25 Z" />
</svg>
