<?xml version="1.0" encoding="UTF-8" ?>
<svg width="120pt" height="120pt" viewBox="0 0 120 120" version="1.1" xmlns="http://www.w3.org/2000/svg" id="weather34 mask aqi">
<path fill="rgba(53, 56, 58, 0.7)" opacity="1.00" d=" M 45.12 19.01 C 51.20 18.73 57.15 20.66 63.24 20.81 C 72.12 21.02 81.83 24.28 86.78 32.13 C 91.73 39.90 90.93 49.72 88.99 58.32 C 90.51 59.61 92.79 60.71 92.86 63.00 C 92.95 67.60 91.11 71.95 89.22 76.06 C 92.20 84.32 88.27 94.58 80.34 98.44 C 77.31 100.02 74.35 97.55 71.38 97.12 C 67.98 98.08 64.64 99.58 61.04 99.58 C 57.76 99.33 54.70 98.05 51.59 97.12 C 48.61 97.54 45.68 99.98 42.64 98.48 C 34.71 94.72 30.65 84.34 33.67 76.14 C 31.80 71.97 29.91 67.58 30.07 62.92 C 30.06 60.70 32.38 59.72 33.81 58.47 C 31.30 49.60 30.32 38.64 36.99 31.29 C 37.36 29.84 37.73 28.39 38.11 26.94 C 39.62 26.50 41.14 26.09 42.66 25.71 C 43.20 23.41 43.40 20.81 45.12 19.01 M 46.89 21.83 C 46.42 23.94 46.00 26.05 45.62 28.17 C 44.21 28.57 42.80 28.96 41.38 29.35 C 40.73 31.49 39.72 33.49 38.28 35.21 C 35.80 38.19 35.39 42.24 35.21 45.97 C 35.07 54.73 39.10 62.75 42.86 70.41 C 45.20 73.39 49.36 71.73 52.04 70.13 C 55.41 68.60 58.13 65.13 62.02 65.11 C 66.97 66.80 70.68 71.22 75.97 72.12 C 77.55 72.37 79.11 71.45 79.80 70.03 C 81.07 67.64 82.52 65.23 83.09 62.57 C 81.27 57.23 80.29 51.50 77.46 46.56 C 74.93 42.37 69.44 42.11 65.08 42.56 C 60.03 43.14 54.92 42.74 50.05 41.25 C 48.79 45.01 46.57 48.77 42.32 49.55 C 45.19 46.47 47.81 43.11 48.68 38.88 C 53.04 40.11 57.51 41.44 62.10 40.93 C 67.24 40.52 73.39 39.70 77.42 43.69 C 81.89 48.15 82.11 54.93 84.64 60.42 C 87.48 53.21 88.16 44.89 85.80 37.47 C 82.65 28.59 72.89 24.43 64.07 24.05 C 58.27 24.01 52.54 23.03 46.89 21.83 M 33.47 63.14 C 33.34 66.90 34.77 70.46 36.12 73.89 C 37.82 73.13 39.52 72.37 41.22 71.62 C 39.90 68.68 38.56 65.75 37.34 62.77 C 36.08 62.87 33.86 61.16 33.47 63.14 M 85.31 62.89 C 83.99 65.77 82.60 68.61 81.27 71.48 C 83.12 72.26 84.96 73.05 86.81 73.84 C 88.50 69.99 89.56 65.88 89.40 61.65 C 88.03 62.05 86.67 62.47 85.31 62.89 M 48.87 73.70 C 49.83 75.35 50.76 77.01 51.55 78.74 C 48.65 76.87 46.16 74.43 43.13 72.76 C 39.80 74.25 36.13 75.59 34.22 78.95 C 36.22 78.22 38.57 76.66 40.50 78.49 C 44.42 81.78 46.67 86.98 46.91 92.06 C 47.03 94.87 43.91 95.93 42.09 97.36 C 46.07 97.44 49.40 95.27 53.02 94.06 C 56.02 94.76 58.88 96.33 62.05 96.11 C 64.68 96.12 67.08 94.90 69.47 93.94 C 73.14 95.36 76.71 97.52 80.82 97.08 C 79.43 96.48 78.02 95.91 76.60 95.37 C 74.90 89.48 77.61 83.13 81.84 79.01 C 83.72 76.98 86.51 78.56 88.77 78.66 C 86.55 75.60 83.03 74.22 79.73 72.72 C 76.23 74.33 74.07 77.52 71.88 80.52 C 71.91 78.06 72.86 75.81 74.10 73.74 C 69.38 72.22 65.81 68.32 61.12 66.93 C 56.91 68.94 53.31 72.09 48.87 73.70 M 36.83 78.97 C 36.33 85.17 39.05 91.53 44.43 94.84 C 45.94 88.82 43.00 81.06 36.83 78.97 M 77.78 94.80 C 83.95 92.41 86.14 85.30 86.23 79.24 C 79.55 80.82 77.68 88.85 77.78 94.80 Z" />
<path fill="rgba(53, 56, 58, 0.7)" opacity="1.00" d=" M 66.10 56.29 C 69.66 55.71 73.30 55.71 76.87 56.24 C 74.24 59.04 68.86 58.83 66.10 56.29 Z" />
<path fill="rgba(53, 56, 58, 0.7)" opacity="1.00" d=" M 46.14 57.64 C 48.70 54.35 53.41 56.24 56.90 56.31 C 54.02 59.13 49.69 57.72 46.14 57.64 Z" />
<path fill="rgba(53, 56, 58, 0.7)" opacity="1.00" d=" M 47.94 61.72 C 49.84 61.33 51.76 61.04 53.67 60.77 C 53.77 61.54 53.97 63.10 54.07 63.87 C 52.51 63.98 50.95 64.08 49.38 64.16 C 49.02 63.55 48.30 62.33 47.94 61.72 Z" />
<path fill="rgba(53, 56, 58, 0.7)" opacity="1.00" d=" M 68.95 61.14 C 70.80 61.06 72.66 61.00 74.52 60.95 C 74.31 61.68 73.91 63.12 73.71 63.85 C 72.13 64.08 70.54 64.11 68.95 64.19 C 68.95 63.43 68.95 61.90 68.95 61.14 Z" />
<path fill="rgba(53, 56, 58, 0.7)" opacity="1.00" d=" M 55.03 79.69 C 59.02 77.83 63.93 77.79 67.88 79.74 C 63.64 80.55 59.25 80.65 55.03 79.69 Z" />
<path fill="rgba(53, 56, 58, 0.7)" opacity="1.00" d=" M 53.04 83.40 C 58.65 82.78 64.35 82.75 69.95 83.46 C 67.30 85.31 64.01 84.84 60.97 84.92 C 58.28 84.81 55.25 85.35 53.04 83.40 Z" />
<path fill="rgba(53, 56, 58, 0.7)" opacity="1.00" d=" M 55.05 88.56 C 58.24 86.10 62.48 87.36 66.17 87.09 C 66.36 87.56 66.76 88.49 66.95 88.96 C 62.98 89.02 58.99 89.16 55.05 88.56 Z" />
</svg>
