<?xml version="1.0" encoding="UTF-8" ?>
<!DOCTYPE svg PUBLIC "-//W3C//DTD SVG 1.1//EN" "http://www.w3.org/Graphics/SVG/1.1/DTD/svg11.dtd">
<svg width="96pt" height="96pt" viewBox="0 0 96 96" version="1.1" xmlns="http://www.w3.org/2000/svg">
<path fill="#fff" stroke="#fff" stroke-width="0.09375" opacity="1.00" d=" M 0.00 34.01 C 1.53 32.68 3.03 31.30 4.61 30.03 C 10.06 36.65 15.35 43.40 20.85 49.98 C 22.23 50.02 23.60 50.02 24.98 49.97 C 20.67 44.64 16.31 39.36 12.04 34.00 C 13.53 32.64 15.05 31.31 16.61 30.03 C 22.05 36.65 27.35 43.39 32.84 49.98 C 34.22 50.02 35.60 50.02 36.98 49.98 C 32.69 44.64 28.30 39.37 24.04 34.00 C 25.53 32.64 27.05 31.31 28.61 30.03 C 34.05 36.65 39.36 43.39 44.83 49.98 C 46.35 50.02 47.86 50.02 49.38 49.99 C 46.62 46.57 43.78 43.22 41.03 39.80 C 42.53 38.52 44.05 37.24 45.61 36.03 C 49.51 40.65 53.29 45.38 57.22 49.98 C 61.55 50.03 65.88 50.00 70.21 49.99 C 71.17 47.29 72.62 44.67 74.86 42.84 C 78.91 39.72 84.66 39.43 89.20 41.60 C 92.85 43.49 95.26 47.32 96.00 51.30 L 96.00 54.66 C 95.11 60.04 90.82 65.13 85.16 65.58 C 78.59 67.06 71.90 62.43 70.21 56.01 C 52.82 55.97 35.43 56.04 18.04 55.98 C 11.96 48.71 6.04 41.31 0.00 34.01 L 0.00 34.01 Z" />
</svg>
