<?xml version="1.0" encoding="UTF-8" ?>
<!DOCTYPE svg PUBLIC "-//W3C//DTD SVG 1.1//EN" "http://www.w3.org/Graphics/SVG/1.1/DTD/svg11.dtd">
<svg width="96pt" height="96pt" viewBox="0 0 96 96" version="1.1" xmlns="http://www.w3.org/2000/svg">
<path fill="#fff" stroke="#fff" stroke-width="0.09375" opacity="1.00" d=" M 0.00 29.97 C 5.29 36.34 10.66 42.65 15.99 48.99 C 16.01 42.66 15.99 36.34 16.00 30.01 C 21.61 36.67 27.19 43.34 32.80 50.00 C 45.26 49.99 57.71 50.02 70.16 49.98 C 71.97 43.66 78.38 39.03 85.02 40.35 C 90.73 40.87 95.12 45.87 96.00 51.36 L 96.00 54.55 C 95.18 60.08 90.75 65.14 85.00 65.66 C 78.37 66.96 71.98 62.34 70.16 56.02 C 46.77 55.98 23.39 56.01 0.00 56.00 L 0.00 29.97 Z" />
</svg>
