<?xml version="1.0" encoding="UTF-8" ?>
<!DOCTYPE svg PUBLIC "-//W3C//DTD SVG 1.1//EN" "http://www.w3.org/Graphics/SVG/1.1/DTD/svg11.dtd">
<svg width="96pt" height="96pt" viewBox="0 0 96 96" version="1.1" xmlns="http://www.w3.org/2000/svg">
<path fill="#fff" stroke="#fff" stroke-width="0.09375" opacity="1.00" d=" M 4.64 30.07 C 10.05 36.70 15.41 43.37 20.82 50.01 C 22.21 50.00 23.60 50.00 25.00 49.99 C 20.66 44.66 16.33 39.33 12.00 34.00 C 13.54 32.67 15.07 31.34 16.60 30.00 C 22.01 36.67 27.40 43.35 32.81 50.01 C 34.21 50.00 35.60 49.99 37.00 49.99 C 32.66 44.66 28.33 39.33 24.00 34.00 C 25.54 32.67 27.07 31.34 28.60 30.00 C 34.01 36.67 39.40 43.35 44.82 50.01 C 46.21 50.00 47.60 50.00 49.00 49.99 C 44.66 44.66 40.33 39.33 36.00 34.00 C 37.54 32.67 39.07 31.34 40.60 30.00 C 46.01 36.67 51.40 43.35 56.81 50.01 C 58.34 50.00 59.86 50.00 61.39 49.99 C 58.60 46.59 55.80 43.20 53.00 39.80 C 54.54 38.53 56.07 37.27 57.61 36.01 C 61.73 40.79 65.44 45.94 69.89 50.42 C 71.21 47.70 72.41 44.73 74.89 42.83 C 79.11 39.58 85.30 39.36 89.89 41.99 C 93.19 43.96 95.20 47.55 96.00 51.23 L 96.00 54.77 C 95.21 58.43 93.21 62.00 89.94 63.98 C 85.52 66.55 79.63 66.43 75.40 63.55 C 72.77 61.77 71.38 58.81 70.11 56.01 C 52.74 55.99 35.38 56.01 18.01 56.00 C 11.92 48.95 6.57 41.23 0.00 34.64 L 0.00 33.40 C 1.68 32.49 3.18 31.30 4.64 30.07 Z" />
</svg>
