<?xml version="1.0" encoding="UTF-8" ?>
<!DOCTYPE svg PUBLIC "-//W3C//DTD SVG 1.1//EN" "http://www.w3.org/Graphics/SVG/1.1/DTD/svg11.dtd">
<svg width="96pt" height="96pt" viewBox="0 0 96 96" version="1.1" xmlns="http://www.w3.org/2000/svg">
<path fill="#fff" stroke="#fff" stroke-width="0.09375" opacity="1.00" d=" M 0.00 29.96 C 5.55 36.68 11.21 43.31 16.80 50.00 C 18.26 49.99 19.73 49.99 21.19 49.99 C 18.93 47.26 16.67 44.53 14.40 41.79 C 15.94 40.54 17.47 39.27 19.00 38.00 C 22.34 42.00 25.66 46.01 29.01 50.00 C 42.72 49.98 56.43 50.03 70.14 49.98 C 71.17 47.82 72.07 45.50 73.83 43.81 C 77.91 39.62 84.85 39.15 89.85 41.94 C 93.15 43.97 95.29 47.56 96.00 51.33 L 96.00 54.56 C 95.35 58.38 93.17 62.01 89.84 64.06 C 85.44 66.52 79.67 66.42 75.46 63.60 C 72.81 61.81 71.37 58.87 70.15 56.02 C 46.76 55.98 23.38 56.01 0.00 56.00 L 0.00 29.96 Z" />
</svg>
