<?xml version="1.0" encoding="UTF-8" ?>
<!DOCTYPE svg PUBLIC "-//W3C//DTD SVG 1.1//EN" "http://www.w3.org/Graphics/SVG/1.1/DTD/svg11.dtd">
<svg width="96pt" height="96pt" viewBox="0 0 96 96" version="1.1" xmlns="http://www.w3.org/2000/svg">
<path fill="#fff" stroke="#fff" stroke-width="0.09375" opacity="1.00" d=" M 0.00 29.97 C 5.30 36.33 10.66 42.65 15.99 48.98 C 16.01 42.66 15.99 36.34 16.00 30.02 C 21.62 36.67 27.19 43.35 32.81 50.00 C 34.20 50.00 35.60 49.99 36.99 50.00 C 33.74 45.99 30.46 42.01 27.21 38.00 C 28.66 36.67 30.12 35.34 31.58 34.01 C 36.02 39.32 40.38 44.69 44.81 50.00 C 53.27 49.99 61.72 50.02 70.18 49.99 C 71.39 46.85 73.14 43.69 76.15 41.96 C 80.11 39.71 85.11 39.63 89.20 41.59 C 92.87 43.50 95.27 47.34 96.00 51.35 L 96.00 54.56 C 95.18 60.08 90.75 65.14 85.02 65.65 C 78.40 66.97 71.95 62.35 70.18 56.01 C 46.79 55.98 23.39 56.01 0.00 56.00 L 0.00 29.97 Z" />
</svg>
