<?xml version="1.0" encoding="UTF-8" ?>
<!DOCTYPE svg PUBLIC "-//W3C//DTD SVG 1.1//EN" "http://www.w3.org/Graphics/SVG/1.1/DTD/svg11.dtd">
<svg width="96pt" height="96pt" viewBox="0 0 96 96" version="1.1" xmlns="http://www.w3.org/2000/svg">
<path fill="#fff" stroke="#fff" stroke-width="0.09375" opacity="1.00" d=" M 4.55 30.01 C 10.03 36.62 15.37 43.35 20.81 50.00 C 22.20 50.00 23.60 50.00 24.99 49.99 C 20.67 44.65 16.33 39.34 12.01 34.00 C 13.53 32.66 15.07 31.33 16.60 30.00 C 22.02 36.67 27.39 43.38 32.84 50.02 C 34.22 50.01 35.60 49.99 36.98 49.98 C 32.67 44.64 28.31 39.34 24.01 33.99 C 25.54 32.66 27.07 31.33 28.60 30.01 C 34.01 36.67 39.39 43.35 44.81 50.00 C 53.26 49.99 61.71 50.01 70.15 49.99 C 71.04 48.00 71.89 45.95 73.36 44.31 C 76.67 40.43 82.45 39.34 87.19 40.83 C 91.91 42.08 95.07 46.60 96.00 51.22 L 96.00 54.75 C 95.20 58.73 92.83 62.57 89.13 64.44 C 84.81 66.48 79.42 66.27 75.43 63.58 C 72.80 61.79 71.34 58.86 70.15 56.01 C 52.77 55.99 35.39 56.01 18.01 56.00 C 11.92 48.94 6.51 41.22 0.00 34.56 L 0.00 33.45 C 1.83 32.80 3.11 31.23 4.55 30.01 Z" />
</svg>
