<?xml version="1.0" encoding="UTF-8" ?>
<!DOCTYPE svg PUBLIC "-//W3C//DTD SVG 1.1//EN" "http://www.w3.org/Graphics/SVG/1.1/DTD/svg11.dtd">
<svg width="96pt" height="96pt" viewBox="0 0 96 96" version="1.1" xmlns="http://www.w3.org/2000/svg">
<path fill="#fff" stroke="#fff" stroke-width="0.09375" opacity="1.00" d=" M 0.00 33.38 C 1.68 32.46 3.19 31.28 4.67 30.09 C 10.04 36.72 15.42 43.36 20.80 50.00 C 37.23 49.99 53.66 50.03 70.09 49.98 C 71.41 47.21 72.76 44.23 75.39 42.45 C 79.66 39.54 85.60 39.45 90.03 42.07 C 93.26 44.08 95.26 47.64 96.00 51.31 L 96.00 54.79 C 95.15 58.68 92.92 62.47 89.30 64.34 C 84.74 66.62 78.83 66.29 74.79 63.09 C 72.52 61.29 71.31 58.57 70.10 56.02 C 46.73 55.97 23.37 56.02 0.00 56.00 L 0.00 49.94 C 4.33 50.04 8.66 50.00 13.00 49.99 C 8.62 44.92 4.88 39.28 0.00 34.68 L 0.00 33.38 Z" />
</svg>
