<?xml version="1.0" encoding="UTF-8" ?>
<!DOCTYPE svg PUBLIC "-//W3C//DTD SVG 1.1//EN" "http://www.w3.org/Graphics/SVG/1.1/DTD/svg11.dtd">
<svg width="96pt" height="96pt" viewBox="0 0 96 96" version="1.1" xmlns="http://www.w3.org/2000/svg">
<path fill="#fff" stroke="#fff" stroke-width="0.09375" opacity="1.00" d=" M 0.00 33.44 C 1.67 32.50 3.17 31.28 4.64 30.06 C 10.04 36.70 15.41 43.36 20.80 50.00 C 37.24 49.99 53.68 50.02 70.12 49.98 C 71.39 47.19 72.76 44.24 75.38 42.46 C 79.66 39.55 85.61 39.46 90.05 42.08 C 93.25 44.09 95.22 47.60 96.00 51.23 L 96.00 54.90 C 95.16 58.48 93.20 61.96 90.01 63.95 C 85.59 66.53 79.71 66.44 75.44 63.58 C 72.79 61.80 71.39 58.83 70.12 56.02 C 52.75 55.98 35.38 56.01 18.01 56.00 C 11.92 48.94 6.53 41.24 0.00 34.58 L 0.00 33.44 Z" />
</svg>
