<?xml version="1.0" encoding="UTF-8" ?>
<!DOCTYPE svg PUBLIC "-//W3C//DTD SVG 1.1//EN" "http://www.w3.org/Graphics/SVG/1.1/DTD/svg11.dtd">
<svg width="96pt" height="96pt" viewBox="0 0 96 96" version="1.1" xmlns="http://www.w3.org/2000/svg">
<path fill="#fff" stroke="#fff" stroke-width="0.09375" opacity="1.00" d=" M 0.00 33.39 C 1.62 32.38 3.17 31.27 4.69 30.10 C 10.05 36.74 15.43 43.37 20.80 50.01 C 22.27 49.99 23.73 49.99 25.20 49.99 C 22.39 46.60 19.61 43.19 16.80 39.80 C 18.34 38.53 19.87 37.27 21.40 36.00 C 25.26 40.67 29.13 45.33 33.00 50.00 C 45.36 49.99 57.72 50.02 70.08 49.98 C 71.35 47.43 72.52 44.67 74.84 42.87 C 79.08 39.57 85.34 39.34 89.94 42.02 C 93.23 44.01 95.21 47.59 96.00 51.27 L 96.00 54.84 C 95.16 58.45 93.23 61.98 89.99 63.95 C 85.38 66.65 79.11 66.44 74.86 63.15 C 72.54 61.35 71.34 58.58 70.08 56.02 C 52.72 55.98 35.37 56.01 18.01 56.00 C 11.92 48.97 6.60 41.23 0.00 34.67 L 0.00 33.39 Z" />
</svg>
