<?xml version="1.0" encoding="UTF-8" ?>
<!DOCTYPE svg PUBLIC "-//W3C//DTD SVG 1.1//EN" "http://www.w3.org/Graphics/SVG/1.1/DTD/svg11.dtd">
<svg width="96pt" height="96pt" viewBox="0 0 96 96" version="1.1" xmlns="http://www.w3.org/2000/svg">
<path fill="#fff" stroke="#fff" stroke-width="0.09375" opacity="1.00" d=" M 42.39 20.62 C 51.40 18.80 61.26 21.58 67.72 28.18 C 72.37 33.32 76.08 39.84 76.03 46.95 C 76.90 61.75 63.98 75.82 49.07 75.88 C 34.47 76.94 20.93 64.49 20.01 50.07 C 18.76 36.54 29.04 23.08 42.39 20.62 M 42.50 28.79 C 33.81 31.19 27.33 40.09 27.98 49.12 C 28.45 59.28 37.72 68.28 48.01 67.94 C 57.97 68.25 66.94 59.86 67.96 50.09 C 68.99 41.50 63.52 32.72 55.56 29.51 C 51.45 27.80 46.77 27.67 42.50 28.79 Z" />
<path fill="#fff" stroke="#fff" stroke-width="0.09375" opacity="1.00" d=" M 47.33 36.16 C 54.36 35.51 60.80 42.06 59.99 49.07 C 59.51 55.87 52.46 61.15 45.80 59.61 C 38.41 58.73 33.64 49.68 37.08 43.09 C 38.85 39.03 42.93 36.37 47.33 36.16 Z" />
</svg>
