<?xml version="1.0" encoding="UTF-8" ?>
<!DOCTYPE svg PUBLIC "-//W3C//DTD SVG 1.1//EN" "http://www.w3.org/Graphics/SVG/1.1/DTD/svg11.dtd">
<svg width="96pt" height="96pt" viewBox="0 0 96 96" version="1.1" xmlns="http://www.w3.org/2000/svg">
<path fill="#fff" stroke="#fff" stroke-width="0.09375" opacity="1.00" d=" M 4.55 30.01 C 10.04 36.62 15.37 43.37 20.82 50.01 C 22.21 50.00 23.60 49.99 25.00 49.99 C 20.67 44.66 16.33 39.33 12.00 34.00 C 13.53 32.67 15.07 31.34 16.60 30.01 C 22.01 36.67 27.39 43.35 32.82 50.01 C 45.26 49.98 57.71 50.02 70.15 49.99 C 71.41 46.91 73.07 43.77 76.03 42.02 C 79.40 40.12 83.56 39.63 87.24 40.85 C 91.95 42.11 95.08 46.63 96.00 51.23 L 96.00 55.03 C 95.11 58.56 93.16 61.97 90.02 63.95 C 85.60 66.53 79.71 66.45 75.44 63.58 C 72.80 61.79 71.34 58.86 70.15 56.01 C 52.77 55.99 35.39 56.00 18.02 56.00 C 11.93 48.90 6.44 41.24 0.00 34.48 L 0.00 33.53 C 1.72 32.64 3.15 31.32 4.55 30.01 Z" />
</svg>
