<?xml version="1.0" encoding="UTF-8" ?>
<!DOCTYPE svg PUBLIC "-//W3C//DTD SVG 1.1//EN" "http://www.w3.org/Graphics/SVG/1.1/DTD/svg11.dtd">
<svg width="96pt" height="96pt" viewBox="0 0 96 96" version="1.1" xmlns="http://www.w3.org/2000/svg">
<path fill="#fff" stroke="#fff" stroke-width="0.09375" opacity="1.00" d=" M 0.00 29.96 C 5.55 36.68 11.21 43.32 16.80 50.00 C 18.20 50.00 19.60 50.00 20.99 49.99 C 17.73 45.99 14.46 42.00 11.20 38.00 C 12.67 36.67 14.14 35.34 15.60 34.00 C 20.00 39.33 24.39 44.67 28.80 50.00 C 42.58 49.99 56.37 50.02 70.15 49.98 C 71.37 47.12 72.82 44.17 75.48 42.39 C 79.70 39.57 85.50 39.48 89.89 41.98 C 93.18 44.01 95.30 47.59 96.00 51.34 L 96.00 54.53 C 95.37 58.34 93.20 61.97 89.89 64.02 C 85.48 66.53 79.66 66.43 75.44 63.58 C 72.80 61.80 71.36 58.86 70.15 56.02 C 46.77 55.98 23.38 56.01 0.00 56.00 L 0.00 29.96 Z" />
</svg>
