<svg width="302pt" height="340" viewBox="0 0 302 255" xmlns="http://www.w3.org/2000/svg"><path fill="#505153" stroke="#505153" stroke-width=".1" d="M81.5 27.7c21.6-16.2 54-15.5 74.7 2 4.6 3.7 8.4 8.2 11.5 13.2 15-9.7 36.2-8.3 49.3 4 6 5.4 9.7 13 10.6 20.8 14.2 2 27.8 10 35 22.6 6.8 11.5 7.2 26.3 1 38-7.6 14.4-23.3 23.4-39.3 24.4-5.7.3-11.5.2-17.3.2H86.8c-8.2-.2-16.4.6-24.4-1.3-13.2-3-25.3-11.7-31.4-24-5.4-10.4-5.6-23.4-.5-34 5.5-12.2 17-21 30-24.5-.6-16.2 7.7-32 20.8-41.5m106.4 58c-6 2.7-10 8.8-10.3 15.3-3 1.4-6 2.8-8 5.6-3.4 4.2-3.5 10.7-.3 15 3 4.3 8.4 6.5 13.6 6.4h45c4.3 0 9-.8 12.2-3.8 5-3.8 6.3-11.2 3-16.5-2.3-4-6.7-6-11-7.2-1.2-3-2.6-6.4-5.7-8-4.2-2.7-9.5-2-14 0-5.3-7.8-16-10.8-24.6-6.7z"/><path fill="#aca6a6" stroke="#aca6a6" stroke-width=".1" d="M188 85.8c8.4-4 19.2-1 24.6 6.6 4.4-2 9.7-2.6 14 0 3 1.7 4.4 5 5.6 8 4.3 1.3 8.7 3.3 11 7.3 3.3 5.3 2 12.7-3 16.5-3.3 3-8 4-12.2 3.8h-45c-5.2 0-10.6-2-13.6-6.4-3.3-4.3-3-10.8.2-15 2-2.8 5-4.2 8-5.6.4-6.5 4.3-12.6 10.3-15.2z"/><path fill="#00a4b4" stroke="#00a4b4" stroke-width=".1" d="M87 153h17.2c-3.2 5.3-6.7 10.5-9.7 16-2-5.6-5.2-10.6-7.5-16z"/><path fill="#ff8841" stroke="#ff8841" stroke-width=".1" d="M104.2 153H131l-1.6 2-3 4.3 5.5.7 6.8 1 15.6 2-9.8 9-4.5 4.2-12 11-4.4 4c-3 3-6.3 6-9.4 8.8l-25 22.7 18-29c3.4-5 6.6-10.3 10-15.5 1-2 2.3-4 3.5-6l-7-.8c-6.3-.8-12.6-1.4-18.8-2.4h-.5c3-5.5 6.5-10.7 9.7-16z"/><path fill="#00a4b4" stroke="#00a4b4" stroke-width=".1" d="M135 153h17.4l7.4 14.8-1.7 2.7c1 0 2.5.3 3.3.4 3 5.5 5.8 11 8.6 16.8l-8 12.3c-1.2-.3-3.3.5-4-1l-13.4-27 9.8-9-15.6-2-4-8zM159 153h10c-2 3-3.8 6-5.6 9l-4.5-9z"/><path fill="#ff8841" stroke="#ff8841" stroke-width=".1" d="M169 153h21.7l-4.5 6.3c-1 1.2-1.7 2.3-2.5 3.5l4.5.6c5.8.6 11.7 2 17.6 1.8l.2.5-11.4 10.4-4.5 4.2-11.8 10.8-4.6 4.2-5.3 4.8-14.3 13 8-12.8 8-12.4c1-2 2.3-3.8 3.5-5.7l5.7-9-11-1.3-7-.8-3-.5c.4-1 1-1.8 1.6-2.8l3.6-5.7 5.6-9z"/><path fill="#00a4b4" stroke="#00a4b4" stroke-width=".1" d="M190.7 153h9.7c1.6 4 5 7.8 5.4 12.2-6 .2-11.8-1.2-17.6-1.8l-2-4 4.5-6.4zM207 153c5.8 0 11.6 0 17.3-.2l18 35.8c1.8 3.7 4.2 7.2 4.8 11.3-5.4-.3-11.3.7-16.6-.5-8-15.4-15.6-31-23.4-46.5zM126.4 159.3l3-4.3 2.5 5-5.6-.7zM206 165.7h.6c4 7.2 7.5 14.8 11.3 22 1.8 4 4.4 7.8 5 12.2-5.4-.3-11.3.7-16.6-.5-4-7.7-8-15.6-11.8-23.4l11.4-10.3zM95 169c6 1 12.4 1.6 18.6 2.4l3.5 6.8-9.7 15.6c-4-8.3-8.3-16.5-12.4-24.8zM168.3 171.7c3.6.5 7.3 1 11 1.3-2 3-4 6-5.8 9l-5.2-10.3zM128 187.2l12-11 12 23.7c-5.8-.2-11.8.5-17.6-.4-2.3-4-4.2-8.3-6.3-12.4zM178.2 191l12-10.8 9.8 19.7h-16.2c-1.5.3-2-1.5-2.5-2.4l-3-6.6zM114.2 200c3-3 6.3-5.8 9.4-8.7l4.5 8.6h-13.8zM168.3 200l5.3-4.8 2.4 4.7h-7.7z"/></svg>