<?xml version="1.0" encoding="UTF-8" ?>
<!DOCTYPE svg PUBLIC "-//W3C//DTD SVG 1.1//EN" "http://www.w3.org/Graphics/SVG/1.1/DTD/svg11.dtd">
<svg width="302pt" height="255pt" viewBox="0 0 302 255" version="1.1" xmlns="http://www.w3.org/2000/svg">
<g id="#505153ff">
<path fill="#505153" opacity="1.00" d=" M 78.26 30.28 C 88.73 21.48 102.22 16.35 115.90 16.18 C 136.22 15.31 156.89 25.41 167.70 42.82 C 178.60 35.89 192.74 34.46 204.78 39.17 C 216.76 43.56 226.13 54.60 227.58 67.42 C 241.58 69.49 255.05 77.31 262.29 89.70 C 269.03 100.54 269.80 114.76 264.49 126.34 C 256.79 142.62 238.79 152.61 221.04 152.51 C 172.37 152.76 123.70 152.61 75.04 152.58 C 61.45 152.88 47.76 147.44 38.42 137.51 C 30.85 129.38 25.97 118.23 27.22 106.98 C 27.88 88.52 43.44 73.70 60.51 68.96 C 60.20 54.25 67.03 39.72 78.26 30.28 M 188.72 85.62 C 182.01 87.57 177.91 94.31 177.47 101.02 C 175.22 102.21 172.84 103.28 171.04 105.13 C 166.75 109.36 165.53 116.76 169.39 121.68 C 173.31 127.26 180.65 128.39 187.00 128.08 C 200.68 128.00 214.37 128.10 228.05 128.03 C 232.08 128.05 236.30 127.17 239.42 124.47 C 244.31 120.69 246.18 113.29 243.19 107.81 C 240.95 103.75 236.42 102.03 232.27 100.63 C 231.06 97.77 229.92 94.53 227.02 92.95 C 222.79 89.93 217.22 90.47 212.68 92.48 C 207.36 85.16 197.11 82.14 188.72 85.62 Z" />
</g>
<g id="#aca6a6ff">
<path fill="#aca6a6" opacity="1.00" d=" M 188.72 85.62 C 197.11 82.14 207.36 85.16 212.68 92.48 C 217.22 90.47 222.79 89.93 227.02 92.95 C 229.92 94.53 231.06 97.77 232.27 100.63 C 236.42 102.03 240.95 103.75 243.19 107.81 C 246.18 113.29 244.31 120.69 239.42 124.47 C 236.30 127.17 232.08 128.05 228.05 128.03 C 214.37 128.10 200.68 128.00 187.00 128.08 C 180.65 128.39 173.31 127.26 169.39 121.68 C 165.53 116.76 166.75 109.36 171.04 105.13 C 172.84 103.28 175.22 102.21 177.47 101.02 C 177.91 94.31 182.01 87.57 188.72 85.62 Z" />
</g>
<g id="#ff8841ff">
<path fill="#ff8841" opacity="1.00" d=" M 104.28 152.94 C 113.21 152.97 122.14 152.94 131.07 152.96 C 129.55 155.05 128.06 157.15 126.57 159.26 C 135.83 160.49 145.06 161.90 154.34 162.92 C 132.41 182.95 110.52 203.04 88.73 223.23 C 94.59 213.90 100.36 204.52 106.19 195.16 C 110.95 187.55 116.07 180.16 120.53 172.37 C 111.84 171.08 103.11 170.05 94.39 169.02 C 97.73 163.69 100.96 158.29 104.28 152.94 Z" />
<path fill="#ff8841" opacity="1.00" d=" M 169.35 152.98 C 176.47 152.93 183.60 152.96 190.72 152.96 C 188.39 156.01 186.34 159.25 184.27 162.48 C 191.67 163.53 199.08 164.55 206.53 165.14 C 189.28 181.62 171.34 197.37 153.75 213.49 C 162.38 200.17 170.69 186.66 179.21 173.28 C 172.21 172.38 165.17 171.87 158.20 170.76 C 162.05 164.91 165.65 158.91 169.35 152.98 Z" />
</g>
</svg>
