<?xml version="1.0" encoding="UTF-8" ?>
<!DOCTYPE svg PUBLIC "-//W3C//DTD SVG 1.1//EN" "http://www.w3.org/Graphics/SVG/1.1/DTD/svg11.dtd">
<svg width="302pt" height="255pt" viewBox="0 0 302 255" version="1.1" xmlns="http://www.w3.org/2000/svg">
<g id="#505153ff">
<path fill="#505153" opacity="1.00" d=" M 82.15 27.21 C 102.61 12.52 132.39 12.31 152.81 27.16 C 158.88 31.22 163.68 36.85 167.80 42.83 C 178.70 36.00 192.75 34.62 204.74 39.30 C 216.70 43.75 226.07 54.82 227.55 67.62 C 241.22 69.77 254.53 77.09 261.88 89.08 C 268.81 99.83 269.89 114.04 264.79 125.74 C 257.40 142.54 239.10 153.11 220.99 152.87 C 172.64 153.26 124.30 152.97 75.95 153.03 C 60.80 153.45 45.31 147.11 35.73 135.18 C 27.81 125.58 24.93 112.04 28.20 100.05 C 32.33 84.84 45.43 73.21 60.43 69.15 C 59.90 52.66 68.62 36.47 82.15 27.21 M 100.39 21.37 C 103.69 27.13 106.45 33.33 107.24 39.98 C 109.00 52.53 104.93 65.88 95.99 74.95 C 88.89 82.78 78.55 87.33 68.02 87.73 C 62.37 88.28 56.98 86.28 51.60 84.91 C 60.03 96.61 74.51 103.94 89.02 102.37 C 101.65 101.21 113.29 93.54 119.78 82.72 C 127.00 71.11 127.82 55.97 122.42 43.47 C 118.21 33.63 109.98 25.94 100.39 21.37 M 188.03 85.95 C 181.91 88.38 178.40 94.69 177.82 101.02 C 173.41 102.90 168.96 106.02 167.75 110.95 C 166.01 115.92 168.41 121.54 172.52 124.57 C 176.02 127.38 180.66 128.11 185.04 128.07 C 199.39 128.02 213.74 128.08 228.10 128.03 C 232.84 128.10 237.90 126.82 241.12 123.12 C 245.64 118.75 246.10 110.87 241.96 106.11 C 239.52 103.08 235.72 101.80 232.20 100.52 C 230.95 97.47 229.53 94.14 226.37 92.62 C 222.21 89.92 216.95 90.56 212.64 92.51 C 207.23 84.97 196.47 81.82 188.03 85.95 Z" />
</g>
<g id="#f05e40ff">
<path fill="#f05e40" opacity="1.00" d=" M 100.39 21.37 C 109.98 25.94 118.21 33.63 122.42 43.47 C 127.82 55.97 127.00 71.11 119.78 82.72 C 113.29 93.54 101.65 101.21 89.02 102.37 C 74.51 103.94 60.03 96.61 51.60 84.91 C 56.98 86.28 62.37 88.28 68.02 87.73 C 78.55 87.33 88.89 82.78 95.99 74.95 C 104.93 65.88 109.00 52.53 107.24 39.98 C 106.45 33.33 103.69 27.13 100.39 21.37 Z" />
</g>
<g id="#aca6a6ff">
<path fill="#aca6a6" opacity="1.00" d=" M 188.03 85.95 C 196.47 81.82 207.23 84.97 212.64 92.51 C 216.95 90.56 222.21 89.92 226.37 92.62 C 229.53 94.14 230.95 97.47 232.20 100.52 C 235.72 101.80 239.52 103.08 241.96 106.11 C 246.10 110.87 245.64 118.75 241.12 123.12 C 237.90 126.82 232.84 128.10 228.10 128.03 C 213.74 128.08 199.39 128.02 185.04 128.07 C 180.66 128.11 176.02 127.38 172.52 124.57 C 168.41 121.54 166.01 115.92 167.75 110.95 C 168.96 106.02 173.41 102.90 177.82 101.02 C 178.40 94.69 181.91 88.38 188.03 85.95 Z" />
</g>
</svg>
