<?xml version="1.0" encoding="UTF-8" ?>
<!DOCTYPE svg PUBLIC "-//W3C//DTD SVG 1.1//EN" "http://www.w3.org/Graphics/SVG/1.1/DTD/svg11.dtd">
<svg width="302pt" height="255pt" viewBox="0 0 302 255" version="1.1" xmlns="http://www.w3.org/2000/svg">
<g id="#505153ff">
<path fill="#505153" opacity="1.00" d=" M 105.55 17.18 C 128.79 12.36 155.08 22.26 167.57 42.85 C 176.43 37.72 187.00 35.24 197.16 37.26 C 212.34 39.63 225.97 52.10 227.55 67.74 C 240.55 69.72 253.05 76.52 260.72 87.37 C 268.65 99.03 270.46 115.13 263.79 127.78 C 255.93 143.49 238.35 152.97 221.04 153.02 C 175.69 153.09 130.34 153.03 84.99 153.05 C 77.28 153.00 69.43 153.43 61.90 151.46 C 49.49 148.36 38.01 140.43 31.88 129.05 C 24.81 116.84 25.83 100.85 33.15 88.99 C 39.58 79.44 49.48 72.60 60.41 69.17 C 60.62 60.07 62.75 50.93 67.46 43.07 C 75.63 29.46 90.05 20.10 105.55 17.18 M 186.66 86.68 C 181.33 89.39 178.46 95.20 177.97 100.98 C 173.51 102.87 168.95 106.00 167.83 111.02 C 166.22 115.96 168.43 121.51 172.54 124.52 C 176.02 127.35 180.66 128.10 185.03 128.07 C 199.36 128.02 213.70 128.08 228.03 128.04 C 232.09 128.07 236.35 127.27 239.55 124.61 C 243.96 121.34 246.63 115.11 244.15 109.88 C 242.40 104.67 237.11 102.02 232.12 100.74 C 230.89 97.67 229.52 94.25 226.41 92.64 C 222.22 90.11 216.93 90.36 212.66 92.55 C 207.00 84.52 195.19 81.52 186.66 86.68 Z" />
</g>
<g id="#f05e40ff">
<path fill="#f05e40" opacity="1.00" d=" M 46.64 58.63 C 52.22 51.89 59.51 46.67 67.46 43.07 C 62.75 50.93 60.62 60.07 60.41 69.17 C 49.48 72.60 39.58 79.44 33.15 88.99 C 35.13 77.99 39.12 67.07 46.64 58.63 Z" />
</g>
<g id="#aca6a6ff">
<path fill="#aca6a6" opacity="1.00" d=" M 186.66 86.68 C 195.19 81.52 207.00 84.52 212.66 92.55 C 216.93 90.36 222.22 90.11 226.41 92.64 C 229.52 94.25 230.89 97.67 232.12 100.74 C 237.11 102.02 242.40 104.67 244.15 109.88 C 246.63 115.11 243.96 121.34 239.55 124.61 C 236.35 127.27 232.09 128.07 228.03 128.04 C 213.70 128.08 199.36 128.02 185.03 128.07 C 180.66 128.10 176.02 127.35 172.54 124.52 C 168.43 121.51 166.22 115.96 167.83 111.02 C 168.95 106.00 173.51 102.87 177.97 100.98 C 178.46 95.20 181.33 89.39 186.66 86.68 Z" />
</g>
</svg>
