<svg width="302pt" height="340" viewBox="0 0 302 255" xmlns="http://www.w3.org/2000/svg"><path fill="#ff8841" stroke="#ff8841" stroke-width=".1" d="M47.4 14.4C65.2 3.7 89 4.8 105.8 17c-16 3-30.8 12.7-39 27-4.3 7.6-6.3 16.4-6.2 25.2-12.2 3.4-23.4 11.6-29.2 23-9-12-12.3-27.8-9.3-42.4 3-14.7 12.5-28 25.4-35.4z"/><path fill="#e4e3e3" stroke="#e4e3e3" stroke-width=".1" d="M105.8 17c23.3-4.6 49.5 5.2 62 26C183 33 205 34.7 218 48c5.3 5.3 8.8 12.4 9.6 20 14.6 1.8 28.6 10.4 35.7 23.6 6 11 6.3 25 .5 36.2-8 15.7-25.4 25.2-42.8 25.2H74c-17 0-34.5-9.2-42.5-24.6-6-11-6-25 0-36.2 5.7-11.4 17-19.6 29-23 0-8.8 2-17.6 6.4-25.2 8-14.3 23-24 38.8-27m83.5 68.3c-6.6 2.2-11.5 8.6-11.6 15.7-5.6 2-10.7 6.7-10.7 13-.3 8 7.4 14 15 14h47c3.5 0 7-.8 10-3 5-3 7.4-9.6 5.2-15-1.8-5.3-7-8.3-12-9.4-1-2.7-2-5.6-4.5-7.3-4.3-3.4-10.4-3.4-15-.8-5-7.4-15-10.5-23.4-7.3z"/><path fill="#aca6a6" stroke="#aca6a6" stroke-width=".1" d="M189.3 85.3c8.3-3.3 18.3-.2 23.3 7.2 4.7-2.6 10.8-2.6 15 .8 2.6 1.7 3.6 4.6 4.6 7.3 5 1 10.2 4 12 9.3 2.2 5.4-.3 12-5.2 15-3 2.2-6.5 3-10 3h-47c-7.6 0-15.3-6-15-14 0-6.3 5-11 10.8-13 0-7 5-13.5 11.5-15.8z"/></svg>