<?xml version="1.0" encoding="UTF-8" ?>
<!DOCTYPE svg PUBLIC "-//W3C//DTD SVG 1.1//EN" "http://www.w3.org/Graphics/SVG/1.1/DTD/svg11.dtd">
<svg width="60pt" height="60pt" viewBox="0 0 60 60" version="1.1" xmlns="http://www.w3.org/2000/svg">
<path fill="#3f4647" opacity="0.49" d=" M 2.98 0.00 L 6.55 0.00 C 8.27 1.12 10.12 2.69 10.04 4.95 C 10.21 7.52 7.93 9.03 6.05 10.25 C 6.01 12.15 6.00 14.06 5.97 15.96 C 5.48 16.27 4.51 16.90 4.02 17.22 C 4.02 14.91 4.01 12.60 3.95 10.30 C 2.50 9.27 1.08 8.16 0.00 6.72 L 0.00 3.05 C 1.36 2.58 2.58 1.40 2.98 0.00 M 3.28 2.37 C 0.80 3.56 1.61 7.31 4.00 8.08 C 6.91 9.36 9.87 4.66 7.26 2.67 C 6.25 1.43 4.51 1.57 3.28 2.37 Z" />
<path fill="#5e696f" opacity="0.50" d=" M 3.28 2.37 C 4.51 1.57 6.25 1.43 7.26 2.67 C 9.87 4.66 6.91 9.36 4.00 8.08 C 1.61 7.31 0.80 3.56 3.28 2.37 Z" />
<path fill="#98afbd" opacity="0.84" d=" M 15.60 9.33 C 17.05 7.79 18.93 6.78 21.12 7.33 C 25.15 15.06 25.17 24.95 21.11 32.67 C 18.40 33.52 16.62 31.54 15.27 29.54 C 15.69 27.37 15.58 25.17 15.22 23.01 C 14.81 20.29 15.98 17.47 14.80 14.85 L 15.15 13.97 C 15.32 13.22 15.43 12.46 15.49 11.69 C 15.52 11.10 15.57 9.92 15.60 9.33 M 16.58 11.74 C 16.15 15.24 16.47 18.87 15.28 22.24 C 16.44 25.22 16.55 28.68 19.10 30.95 C 21.49 28.26 21.58 24.43 21.90 21.03 C 21.85 16.93 21.74 12.36 19.13 8.96 C 18.30 9.90 17.45 10.83 16.58 11.74 Z" />
<path fill="#71777b" opacity="0.50" d=" M 21.12 7.33 C 32.06 8.82 43.00 10.31 53.94 11.76 C 55.68 12.13 58.18 12.01 58.83 14.10 C 60.23 17.80 60.23 22.17 58.84 25.87 C 58.34 27.55 56.51 27.86 55.03 28.07 C 43.72 29.61 32.41 31.11 21.11 32.67 C 25.17 24.95 25.15 15.06 21.12 7.33 M 36.87 10.87 C 38.05 16.92 38.13 23.05 36.82 29.10 C 37.36 28.86 38.46 28.37 39.00 28.12 C 40.45 22.90 40.52 17.18 38.98 11.97 C 38.46 11.69 37.40 11.14 36.87 10.87 M 43.00 11.72 C 44.12 17.22 44.05 22.82 43.04 28.33 C 43.51 28.21 44.46 27.98 44.93 27.86 C 46.23 23.33 46.30 18.47 45.37 13.86 C 45.28 12.39 44.49 11.68 43.00 11.72 M 49.15 13.00 C 49.93 17.66 49.93 22.37 49.12 27.03 C 49.71 26.92 50.90 26.70 51.49 26.60 C 52.05 22.27 52.29 17.85 51.45 13.54 C 50.87 13.41 49.72 13.13 49.15 13.00 Z" />
<path fill="#5e696f" opacity="0.50" d=" M 5.97 15.96 C 9.25 13.85 12.35 11.49 15.60 9.33 C 15.57 9.92 15.52 11.10 15.49 11.69 C 12.57 13.89 9.52 15.91 6.60 18.11 C 9.15 20.84 11.83 23.44 14.47 26.09 C 14.31 22.38 13.44 18.43 14.80 14.85 C 15.98 17.47 14.81 20.29 15.22 23.01 C 15.58 25.17 15.69 27.37 15.27 29.54 C 12.11 26.61 9.21 23.42 6.00 20.54 C 5.33 19.96 4.67 19.37 4.01 18.77 C 4.01 18.38 4.02 17.61 4.02 17.22 C 4.51 16.90 5.48 16.27 5.97 15.96 Z" />
<path fill="#5e696f" opacity="0.50" d=" M 16.58 11.74 C 17.45 10.83 18.30 9.90 19.13 8.96 C 21.74 12.36 21.85 16.93 21.90 21.03 C 21.58 24.43 21.49 28.26 19.10 30.95 C 16.55 28.68 16.44 25.22 15.28 22.24 C 16.47 18.87 16.15 15.24 16.58 11.74 Z" />
<path fill="#a16662" opacity="0.71" d=" M 36.87 10.87 C 37.40 11.14 38.46 11.69 38.98 11.97 C 40.52 17.18 40.45 22.90 39.00 28.12 C 38.46 28.37 37.36 28.86 36.82 29.10 C 38.13 23.05 38.05 16.92 36.87 10.87 Z" />
<path fill="#a16662" opacity="0.71" d=" M 43.00 11.72 C 44.49 11.68 45.28 12.39 45.37 13.86 C 46.30 18.47 46.23 23.33 44.93 27.86 C 44.46 27.98 43.51 28.21 43.04 28.33 C 44.05 22.82 44.12 17.22 43.00 11.72 Z" />
<path fill="#a16662" opacity="0.71" d=" M 49.15 13.00 C 49.72 13.13 50.87 13.41 51.45 13.54 C 52.29 17.85 52.05 22.27 51.49 26.60 C 50.90 26.70 49.71 26.92 49.12 27.03 C 49.93 22.37 49.93 17.66 49.15 13.00 Z" />
<path fill="#3f4647" opacity="0.49" d=" M 4.01 18.77 C 4.67 19.37 5.33 19.96 6.00 20.54 C 6.09 29.57 5.84 38.62 6.09 47.64 C 6.56 47.82 7.50 48.18 7.98 48.36 C 8.00 50.12 8.00 51.88 8.02 53.64 C 11.34 53.89 9.61 57.81 10.01 60.00 L 0.00 60.00 L 0.00 54.26 C 3.32 54.38 1.62 50.43 2.03 48.35 C 2.50 48.18 3.44 47.83 3.90 47.65 C 4.16 38.03 3.90 28.39 4.01 18.77 M 4.38 49.96 C 4.30 50.72 4.14 52.25 4.07 53.02 C 3.41 53.71 2.76 54.41 2.11 55.11 C 2.12 55.78 2.13 57.12 2.14 57.79 C 4.05 57.82 5.95 57.82 7.86 57.82 C 7.85 57.13 7.83 55.74 7.83 55.05 C 7.20 54.38 6.58 53.71 5.96 53.04 C 5.68 51.84 6.21 49.86 4.38 49.96 Z" />
<path fill="#5e696f" opacity="0.50" d=" M 4.38 49.96 C 6.21 49.86 5.68 51.84 5.96 53.04 C 6.58 53.71 7.20 54.38 7.83 55.05 C 7.83 55.74 7.85 57.13 7.86 57.82 C 5.95 57.82 4.05 57.82 2.14 57.79 C 2.13 57.12 2.12 55.78 2.11 55.11 C 2.76 54.41 3.41 53.71 4.07 53.02 C 4.14 52.25 4.30 50.72 4.38 49.96 Z" />
</svg>
