<svg version="1.1" xmlns="http://www.w3.org/2000/svg" xmlns:xlink="http://www.w3.org/1999/xlink" xmlns:a="http://ns.adobe.com/AdobeSVGViewerExtensions/3.0/" x="0px" y="0px" width="426.7px" height="150px" viewBox="0 0 426.7 150" enable-background="new 0 0 426.7 150" xml:space="preserve">
<defs>
</defs>
<g>
	<g>
		<g>
			<path d="M0,95.2c0-11.1,9.8-21.9,26.2-27.5c0,0-17.2,7.9-17.2,25c0,13.1,18.2,25.1,44.6,29.6c-0.5-1.1-0.7-2.2-0.7-3.4
				c0-6.6,10.7-9.6,10.7-9.6c-2.8,2.3-4.3,4.7-4.3,7c0,10.7,28.5,19.8,62.1,19.8c22.3,0,43.1-4,54.2-10.3c0,0-17.6,15.5-58,15.5
				c-25.8,0-47.7-5-58.1-12.4C25,126.3,0,112.2,0,95.2z"></path>
			<path d="M144.2,5.1c-18.5,0-35.7,8.9-45.6,23.5c12.4,1.8,23.7,6.5,32,13.7c0,0-10.1-8-37.6-8c-29.6,0-53.7,17.4-53.7,38.7
				c0,18.2,11.5,26.4,11.5,26.4c-12-7.8-19.3-18.4-19.3-30.2c0-22.8,25.2-41.3,56.3-41.3c0.5,0,0.9,0,1.4,0
				C99.2,10.7,118.2,0,139.1,0c17.4,0,28.1,9.9,28.1,9.9C160,6.7,152.3,5.1,144.2,5.1z"></path>
		</g>
	</g>
	<g>
		<path d="M146,78.7l0.1,0l11.6-29.8l10.6,27.2l1.5-0.3l8.9-1.9L164,39.6h-12.5l-16.4,38.5c2.7,0.3,5.4,0.5,7.8,0.6L146,78.7z"></path>
		<path d="M180.3,107h12.5l-9.1-21.3c-3.5,0.7-7.2,1.5-10.9,2.2L180.3,107z"></path>
		<path d="M122.7,107h12.4l6.8-17.5c-4.3-0.6-7.8-1.3-10.9-2.1L122.7,107z"></path>
		<path d="M212.8,79.8c-1.3,0.2-2.5,0.4-3.8,0.6c-1,0.2-2.1,0.4-3.2,0.6c-0.5,0.1-0.9,0.2-1.4,0.3V107h49.8v-8.9H216V79.3l0,0
			C215,79.5,213.9,79.6,212.8,79.8z"></path>
		<path d="M216,67.5v-19h37.7v-8.9h-49.2v29.2c3.2-0.5,6.5-0.9,10.1-1.2C215.1,67.5,215.5,67.5,216,67.5z"></path>
		<rect x="343.6" y="39.6" width="11.5" height="67.4"></rect>
		<path d="M426.7,89.1c0,12.1-11.7,18.9-26.1,18.9c-12,0-22.8-4-30.3-7.8l4.1-8.2c6.5,3.5,17.7,7.3,26,7.3
			c7.4,0,14.4-3,14.4-9.5c0-7.6-10.3-9.8-23.1-13.9c-9.6-2.9-20.9-7.1-20.9-18.9c0-11.3,10.4-18.4,25-18.4c9.9,0,19,2.7,26.5,5.8
			l-3.5,8.4c-6.4-2.9-16-5.4-22.5-5.4c-7,0-13.5,2.7-13.5,9c0,7.4,9.9,8.8,21.3,12.4C413.9,71.8,426.7,76.4,426.7,89.1z"></path>
		<path d="M106.9,72.6c0,0,0.6,0.3,1.7,0.8c1.1,0.5,2.7,1.2,4.8,2c2.1,0.8,4.6,1.6,7.6,2.5c2.9,0.8,6.3,1.6,10,2.2
			c3.7,0.7,7.7,1,11.9,1.2c1.1,0,2.1,0,3.2,0c0.5,0,1.1,0,1.6,0c0.5,0,1.1-0.1,1.7-0.1c1.1-0.1,2.2-0.1,3.4-0.2
			c1.1-0.1,2.3-0.2,3.4-0.4c0.6-0.1,1.1-0.1,1.7-0.2c0.3,0,0.6-0.1,0.8-0.1l0.9-0.1c1.2-0.2,2.4-0.4,3.6-0.6
			c1.2-0.2,2.4-0.4,3.6-0.7c1.2-0.2,2.4-0.5,3.6-0.7c4.9-1.1,9.8-2.1,14.8-3.2c5-1.1,10-2.1,15-3c5-0.9,10-1.5,14.9-2
			c2.4-0.2,4.8-0.3,7.2-0.4c2.4,0,4.7,0,6.9,0c2.2,0.1,4.4,0.3,6.5,0.4c1.1,0.1,2.1,0.2,3.1,0.3c1,0.1,2,0.3,3,0.4
			c1,0.2,1.9,0.3,2.8,0.4c0.9,0.2,1.8,0.4,2.7,0.6c1.7,0.4,3.4,0.8,4.9,1.2c3,1,5.6,1.8,7.7,2.6c2.1,0.9,3.7,1.6,4.8,2.1
			c1.1,0.5,1.7,0.8,1.7,0.8s-0.6-0.1-1.8-0.3c-1.2-0.2-2.9-0.6-5.1-1.1c-1.1-0.3-2.3-0.4-3.6-0.6c-1.3-0.2-2.7-0.4-4.3-0.6
			c-1.5-0.2-3.2-0.3-4.9-0.4c-0.9-0.1-1.7-0.1-2.6-0.2c-0.9-0.1-1.8,0-2.8-0.1c-1.9,0-3.8-0.2-5.8-0.1c-2,0.1-4.1,0.1-6.2,0.2
			c-2.1,0.2-4.3,0.4-6.6,0.6c-2.2,0.3-4.5,0.6-6.8,0.9c-2.3,0.4-4.7,0.7-7.1,1.2c-2.4,0.5-4.8,0.9-7.2,1.4c-4.9,1-9.8,2.1-14.8,3.2
			c-5,1.1-10,2.1-15,3c-2.5,0.4-5.1,0.9-7.6,1.1c-1.2,0.1-2.4,0.3-3.6,0.4l-0.9,0.1c-0.4,0.1-0.7,0-1,0.1c-0.6,0-1.2,0.1-1.9,0.1
			c-1.2,0.1-2.5,0.1-3.7,0.2c-1.2,0-2.4,0-3.6-0.1c-0.6,0-1.2,0-1.8,0c-0.6-0.1-1.2-0.1-1.8-0.2c-1.2-0.1-2.3-0.2-3.4-0.3
			c-4.5-0.6-8.7-1.4-12.5-2.6c-1.9-0.5-3.7-1.2-5.3-1.8c-1.7-0.7-3.2-1.3-4.7-2c-2.9-1.3-5.3-2.7-7.2-3.9
			C108.7,74.4,106.9,72.6,106.9,72.6z"></path>
		<path d="M315.4,107l-19.8-28.9l-14.8,0V107h-11.2V39.6h34.2c15.9,0.6,25.3,8.5,25.3,19.1c0,9.6-7.2,17.4-21.7,19L329,107H315.4z
			 M280.8,69.5l20.7,0c15.9,0,16.3-8.6,16.3-10.6c0-2-0.6-10.5-18.2-10.5l-18.8,0V69.5z"></path>
	</g>
	<g>
		<polygon points="234.5,148.1 226.1,121.2 223.6,121.2 215.3,148.2 206.8,121.2 204.5,121.2 213.9,150 216.6,150 224.8,123.8 
			233.1,150 235.8,150 245.3,121.2 243,121.2 		"></polygon>
		<polygon points="254.9,136.4 269.8,136.4 269.8,134.8 254.9,134.8 254.9,122.9 272.9,122.9 272.9,121.2 252.8,121.2 252.8,150 
			273.2,150 273.2,148.4 254.9,148.4 		"></polygon>
		<path d="M291.5,121.2L278,150h2.3l3.6-7.9h17.3l3.7,7.9h2.3l-13.5-28.8H291.5z M284.7,140.4l7.9-17.2l7.9,17.2H284.7z"></path>
		<polygon points="307.6,122.9 318.8,122.9 318.8,150 320.9,150 320.9,122.9 332.1,122.9 332.1,121.2 307.6,121.2 		"></polygon>
		<polygon points="360.5,134.8 341.1,134.8 341.1,121.2 339,121.2 339,150 341.1,150 341.1,136.4 360.5,136.4 360.5,150 362.6,150 
			362.6,121.2 360.5,121.2 		"></polygon>
		<polygon points="375.5,136.4 390.4,136.4 390.4,134.8 375.5,134.8 375.5,122.9 393.4,122.9 393.4,121.2 373.4,121.2 373.4,150 
			393.7,150 393.7,148.4 375.5,148.4 		"></polygon>
		<path d="M424.7,150l-10.4-13.5c3.8-0.1,10.4-0.9,10.4-7.7c0-7.2-7.6-7.5-11.2-7.5l-0.3,0c0,0,0,0,0,0h-11V150h2.1v-13.6h6.3
			c0,0,0,0,0,0l1.5,0l10.1,13.5H424.7z M404.3,122.9h7.6c0,0,0,0,0,0l1.6,0c6.5,0,9,2.1,9.1,5.9c0,3.7-2.3,5.9-8.5,6c0,0,0,0,0,0
			l-9.7,0V122.9z"></path>
	</g>
</g>
</svg>