<?xml version="1.0" encoding="UTF-8" ?>
<!DOCTYPE svg PUBLIC "-//W3C//DTD SVG 1.1//EN" "http://www.w3.org/Graphics/SVG/1.1/DTD/svg11.dtd">
<svg width="287pt" height="112pt" viewBox="0 0 287 112" version="1.1" xmlns="http://www.w3.org/2000/svg">
<path fill="#4bb7e1" opacity="0.96" d=" M 47.28 0.00 L 54.64 0.00 C 56.90 1.87 59.30 3.60 61.08 5.97 C 61.14 9.36 61.13 12.79 60.00 16.01 C 56.48 20.18 51.21 21.43 45.98 19.15 C 42.99 15.29 39.98 10.86 41.88 5.85 C 43.39 3.64 45.29 1.76 47.28 0.00 Z" />
<path fill="#215266" opacity="0.44" d=" M 45.98 19.15 C 40.87 17.77 38.17 9.80 41.88 5.85 C 39.98 10.86 42.99 15.29 45.98 19.15 Z" />
<path fill="#1c4554" opacity="0.35" d=" M 61.08 5.97 C 62.62 8.72 63.45 14.31 60.00 16.01 C 61.13 12.79 61.14 9.36 61.08 5.97 Z" />
<path fill="#16333d" opacity="0.24" d=" M 87.76 10.75 C 90.29 9.34 93.60 9.92 96.20 10.85 C 93.38 10.81 90.57 10.78 87.76 10.75 Z" />
<path fill="#2b6477" opacity="0.47" d=" M 85.81 11.82 C 86.30 11.55 87.27 11.02 87.76 10.75 C 90.57 10.78 93.38 10.81 96.20 10.85 C 96.71 11.09 97.73 11.56 98.24 11.80 C 94.09 11.85 89.95 11.86 85.81 11.82 Z" />
<path fill="#53c6ef" opacity="1.00" d=" M 77.89 17.81 C 79.84 15.01 82.91 13.44 85.81 11.82 C 89.95 11.86 94.09 11.85 98.24 11.80 C 98.42 14.22 101.05 15.07 103.12 14.74 C 105.08 16.89 106.67 19.36 108.17 21.85 C 108.04 26.96 107.90 32.08 107.13 37.14 C 105.39 40.00 103.01 42.37 100.15 44.11 C 96.34 44.55 92.40 44.47 88.75 45.71 C 86.11 46.53 83.47 47.56 81.81 49.90 C 81.16 50.52 80.51 51.15 79.88 51.79 L 78.98 51.98 C 78.54 52.07 77.65 52.26 77.20 52.35 C 78.46 62.41 75.95 55.02 74.57 53.35 C 69.71 48.59 66.06 42.62 60.79 38.31 C 62.56 38.39 64.74 38.58 65.93 36.96 C 67.55 36.10 69.17 35.21 70.38 33.78 C 70.56 33.62 70.92 33.29 71.10 33.12 C 76.02 29.69 75.49 22.85 77.89 17.81 Z" />
<path fill="#32748a" opacity="0.54" d=" M 98.24 11.80 C 100.12 12.27 102.08 12.98 103.12 14.74 C 101.05 15.07 98.42 14.22 98.24 11.80 Z" />
<path fill="#275e73" opacity="0.48" d=" M 71.10 33.12 C 73.90 28.20 73.94 22.06 77.89 17.81 C 75.49 22.85 76.02 29.69 71.10 33.12 Z" />
<path fill="#3b8aa4" opacity="0.65" d=" M 108.17 21.85 C 108.45 22.33 109.00 23.28 109.28 23.75 C 109.22 26.59 109.23 29.42 109.29 32.25 C 108.91 34.01 108.22 35.69 107.13 37.14 C 107.90 32.08 108.04 26.96 108.17 21.85 Z" />
<path fill="#1e4552" opacity="0.33" d=" M 109.28 23.75 C 109.52 24.07 110.00 24.69 110.24 25.01 C 109.73 27.24 109.66 29.57 110.10 31.82 L 109.29 32.25 C 109.23 29.42 109.22 26.59 109.28 23.75 Z" />
<path fill="#0a181c" opacity="0.11" d=" M 110.24 25.01 C 111.91 26.55 112.50 30.83 110.10 31.82 C 109.66 29.57 109.73 27.24 110.24 25.01 Z" />
<path fill="#0f2630" opacity="0.22" d=" M 34.77 31.73 C 38.25 31.06 41.74 31.05 45.23 31.70 C 41.74 31.81 38.25 31.99 34.77 31.73 Z" />
<path fill="#2a6b87" opacity="0.61" d=" M 27.71 33.71 C 29.84 32.39 32.28 31.83 34.77 31.73 C 38.25 31.99 41.74 31.81 45.23 31.70 C 47.71 31.82 50.17 32.33 52.23 33.80 C 44.05 33.11 35.89 33.06 27.71 33.71 Z" />
<path fill="#42aada" opacity="1.00" d=" M 27.71 33.71 C 35.89 33.06 44.05 33.11 52.23 33.80 C 52.61 33.89 53.39 34.09 53.78 34.18 C 55.28 35.54 57.17 36.27 58.98 37.09 C 59.43 37.40 60.34 38.01 60.79 38.31 C 66.06 42.62 69.71 48.59 74.57 53.35 C 75.95 55.02 78.46 62.41 77.20 52.35 C 77.65 52.26 78.54 52.07 78.98 51.98 C 78.09 56.28 77.28 60.85 79.13 65.00 C 79.36 71.45 78.85 77.85 78.17 84.24 C 76.51 88.32 75.17 92.65 72.06 95.92 C 71.06 96.70 70.06 97.49 69.08 98.28 C 65.01 98.42 63.33 94.24 61.54 91.36 C 58.58 87.98 55.21 84.88 53.01 80.92 C 44.23 72.98 37.91 62.81 29.94 54.12 C 27.19 49.07 22.39 45.61 19.02 41.07 C 19.72 39.58 22.21 37.31 18.91 37.77 C 21.69 36.13 24.67 34.81 27.71 33.71 Z" />
<path fill="#215267" opacity="0.45" d=" M 64.61 35.58 C 66.56 35.08 68.34 33.90 70.38 33.78 C 69.17 35.21 67.55 36.10 65.93 36.96 C 64.19 36.99 60.72 37.06 58.98 37.09 C 57.17 36.27 55.28 35.54 53.78 34.18 C 57.40 34.77 60.81 36.69 64.61 35.58 Z" />
<path fill="#3b91b5" opacity="0.79" d=" M 58.98 37.09 C 60.72 37.06 64.19 36.99 65.93 36.96 C 64.74 38.58 62.56 38.39 60.79 38.31 C 60.34 38.01 59.43 37.40 58.98 37.09 Z" />
<path fill="#3697cb" opacity="1.00" d=" M 15.91 39.80 C 16.89 39.09 17.88 38.41 18.91 37.77 C 22.21 37.31 19.72 39.58 19.02 41.07 C 22.39 45.61 27.19 49.07 29.94 54.12 C 37.91 62.81 44.23 72.98 53.01 80.92 C 55.21 84.88 58.58 87.98 61.54 91.36 C 63.33 94.24 65.01 98.42 69.08 98.28 C 67.32 100.16 65.63 102.09 63.93 104.01 C 62.43 105.14 60.96 106.34 59.33 107.29 C 57.00 107.70 53.96 107.51 53.02 110.19 C 51.13 110.07 49.24 109.93 47.36 109.70 C 44.82 108.44 41.37 111.43 39.68 108.31 C 35.28 105.15 33.85 99.66 29.49 96.50 C 20.26 86.57 12.58 75.44 3.46 65.44 C 1.44 58.68 7.00 53.70 8.88 47.89 C 11.24 45.21 14.03 42.87 15.91 39.80 Z" />
<path fill="#1d526d" opacity="0.53" d=" M 7.74 47.71 C 9.46 44.25 12.62 41.70 15.91 39.80 C 14.03 42.87 11.24 45.21 8.88 47.89 L 7.74 47.71 Z" />
<path fill="#327892" opacity="0.61" d=" M 88.75 45.71 C 92.40 44.47 96.34 44.55 100.15 44.11 C 97.96 46.05 95.03 46.08 92.24 46.28 C 91.36 46.14 89.62 45.85 88.75 45.71 Z" />
<path fill="#214f61" opacity="0.41" d=" M 81.81 49.90 C 83.47 47.56 86.11 46.53 88.75 45.71 C 89.62 45.85 91.36 46.14 92.24 46.28 C 88.65 47.17 85.26 48.61 81.81 49.90 Z" />
<path fill="#2d86bc" opacity="0.98" d=" M 1.79 59.05 C 3.65 55.20 5.40 51.29 7.74 47.71 L 8.88 47.89 C 7.00 53.70 1.44 58.68 3.46 65.44 C 12.58 75.44 20.26 86.57 29.49 96.50 C 33.85 99.66 35.28 105.15 39.68 108.31 C 41.37 111.43 44.82 108.44 47.36 109.70 C 46.97 110.27 46.18 111.42 45.79 112.00 L 34.44 112.00 C 32.66 109.54 29.61 110.14 26.87 110.07 C 23.26 108.09 19.47 106.41 16.05 104.09 C 13.60 101.14 11.04 98.24 7.96 95.92 C 5.79 92.41 3.91 88.75 1.92 85.14 C 1.85 82.38 2.45 79.34 0.00 77.55 L 0.00 67.94 C 2.33 67.47 2.38 64.98 2.07 63.08 C 2.05 61.73 1.96 60.39 1.79 59.05 Z" />
<path fill="#245a70" opacity="0.49" d=" M 78.98 51.98 L 79.88 51.79 C 79.00 56.06 78.98 60.50 80.23 64.71 L 79.13 65.00 C 77.28 60.85 78.09 56.28 78.98 51.98 Z" />
<path fill="#164058" opacity="0.45" d=" M 0.00 62.45 C 0.58 61.31 1.14 60.15 1.79 59.05 C 1.96 60.39 2.05 61.73 2.07 63.08 C 1.37 63.71 0.68 64.36 0.00 65.03 L 0.00 62.45 Z" />
<path fill="#256d97" opacity="0.78" d=" M 0.00 65.03 C 0.68 64.36 1.37 63.71 2.07 63.08 C 2.38 64.98 2.33 67.47 0.00 67.94 L 0.00 65.03 Z" />
<path fill="#858585" opacity="0.78" d=" M 122.18 63.11 C 128.08 58.23 129.45 68.68 124.77 68.60 C 121.95 68.82 120.41 65.27 122.18 63.11 Z" />
<path fill="#626262" opacity="0.58" d=" M 187.21 63.13 C 190.80 61.25 192.77 67.61 188.95 67.99 C 186.04 68.84 184.82 64.42 187.21 63.13 Z" />
<path fill="#8c8c8c" opacity="0.83" d=" M 279.77 63.61 C 280.73 62.88 281.56 62.91 282.25 63.70 C 282.14 75.01 281.49 86.39 282.23 97.67 L 282.82 98.21 C 283.99 99.26 285.59 99.66 287.00 100.31 L 287.00 102.13 C 284.39 101.93 281.30 102.79 279.78 100.25 C 279.94 88.04 280.36 75.81 279.77 63.61 Z" />
<path fill="#262626" opacity="0.22" d=" M 278.17 64.38 L 278.97 63.98 C 278.93 75.70 279.18 87.43 278.85 99.15 C 277.02 87.92 278.24 75.90 278.17 64.38 Z" />
<path fill="#595959" opacity="0.53" d=" M 278.97 63.98 L 279.77 63.61 C 280.36 75.81 279.94 88.04 279.78 100.25 C 279.55 99.97 279.08 99.42 278.85 99.15 C 279.18 87.43 278.93 75.70 278.97 63.98 Z" />
<path fill="#3e3e3e" opacity="0.37" d=" M 282.25 63.70 C 282.48 63.99 282.94 64.56 283.18 64.84 C 282.89 75.96 283.12 87.09 282.82 98.21 L 282.23 97.67 C 281.49 86.39 282.14 75.01 282.25 63.70 Z" />
<path fill="#2d7290" opacity="0.65" d=" M 79.13 65.00 L 80.23 64.71 C 80.09 69.54 80.02 74.39 80.18 79.23 C 79.65 80.95 78.90 82.59 78.17 84.24 C 78.85 77.85 79.36 71.45 79.13 65.00 Z" />
<path fill="#0b1d25" opacity="0.16" d=" M 80.23 64.71 C 81.85 69.36 81.09 74.52 80.18 79.23 C 80.02 74.39 80.09 69.54 80.23 64.71 Z" />
<path fill="#181818" opacity="0.15" d=" M 283.18 64.84 C 285.22 67.03 282.82 70.66 284.05 72.99 C 284.04 81.25 283.85 89.51 284.08 97.77 C 284.81 97.89 286.27 98.12 287.00 98.24 L 287.00 100.31 C 285.59 99.66 283.99 99.26 282.82 98.21 C 283.12 87.09 282.89 75.96 283.18 64.84 Z" />
<path fill="#353535" opacity="0.31" d=" M 101.16 73.95 C 101.95 72.15 107.04 72.16 107.85 73.95 C 106.18 73.95 102.83 73.95 101.16 73.95 Z" />
<path fill="#5c5c5c" opacity="0.54" d=" M 98.04 74.97 C 98.27 73.85 99.31 73.51 101.16 73.95 C 102.83 73.95 106.18 73.95 107.85 73.95 C 109.57 73.77 111.75 73.89 111.87 76.08 C 107.39 74.79 102.65 75.07 98.04 74.97 Z" />
<path fill="#515151" opacity="0.48" d=" M 137.78 75.41 C 141.22 73.58 145.27 74.00 149.05 74.05 L 148.77 75.01 C 145.09 74.57 141.42 76.01 137.78 75.41 Z" />
<path fill="#525252" opacity="0.48" d=" M 201.99 74.03 C 204.74 74.03 210.25 74.03 213.01 74.03 L 212.96 75.03 C 209.31 75.00 205.69 74.97 202.05 75.01 L 201.99 74.03 Z" />
<path fill="#8d8d8d" opacity="0.83" d=" M 224.99 75.00 C 225.24 74.75 225.74 74.25 225.99 74.00 L 226.01 75.00 C 226.68 81.31 224.60 88.18 226.73 94.27 C 227.00 94.76 227.52 95.75 227.79 96.24 C 230.31 99.48 236.59 100.76 239.26 97.27 C 240.10 96.40 240.98 95.49 241.24 94.25 C 242.52 87.94 241.91 81.42 242.00 75.00 C 242.50 75.00 243.49 75.01 243.99 75.01 C 243.98 81.99 244.05 88.98 243.98 95.97 C 243.71 96.44 243.16 97.37 242.88 97.84 C 241.26 99.30 239.59 100.69 237.83 101.98 C 235.21 102.00 232.60 102.01 229.99 102.01 C 227.57 101.97 225.03 99.43 224.99 97.02 C 224.98 89.68 225.01 82.34 224.99 75.00 Z" />
<path fill="#535353" opacity="0.49" d=" M 254.99 74.04 C 257.74 74.03 263.25 74.03 266.00 74.03 L 265.96 75.00 C 262.31 74.99 258.69 74.97 255.05 75.04 L 254.99 74.04 Z" />
<path fill="#969696" opacity="0.89" d=" M 96.21 79.88 C 93.60 78.42 96.08 75.44 98.04 74.97 C 102.65 75.07 107.39 74.79 111.87 76.08 C 112.54 76.77 113.20 77.48 113.84 78.21 C 113.94 78.85 114.14 80.13 114.24 80.77 C 114.13 85.92 113.88 91.08 114.24 96.23 C 114.17 96.94 114.04 98.34 113.98 99.05 C 113.60 100.81 111.02 101.88 109.29 101.76 C 105.80 101.17 102.28 100.88 98.75 101.16 C 94.55 98.40 93.25 93.70 94.90 88.94 C 95.18 87.83 95.87 87.19 96.97 87.02 C 101.27 86.41 105.61 86.14 109.95 85.86 L 110.01 84.93 C 110.17 82.98 110.16 80.80 108.20 79.76 C 104.57 76.57 100.25 80.89 96.21 79.88 M 101.04 90.01 C 99.44 89.86 98.93 91.80 98.96 93.04 C 98.50 94.79 98.85 95.79 99.99 96.05 C 100.28 96.30 100.87 96.80 101.16 97.05 C 101.94 98.85 107.06 98.86 107.83 97.03 C 111.18 96.66 110.00 92.54 110.01 90.01 L 109.98 89.05 C 107.61 89.76 100.90 86.74 101.04 90.01 Z" />
<path fill="#717171" opacity="0.67" d=" M 122.00 76.00 C 122.25 75.75 122.76 75.25 123.01 75.01 C 123.02 83.60 122.87 92.19 123.07 100.79 C 123.56 100.85 124.52 100.96 125.00 101.02 L 125.98 101.14 C 126.54 102.64 121.36 102.61 122.00 100.99 C 122.00 92.66 122.01 84.33 122.00 76.00 Z" />
<path fill="#a9a9a9" opacity="1.00" d=" M 123.01 75.01 C 123.53 74.98 124.56 74.92 125.08 74.90 L 125.32 75.75 C 124.94 84.17 124.97 92.60 125.00 101.02 C 124.52 100.96 123.56 100.85 123.07 100.79 C 122.87 92.19 123.02 83.60 123.01 75.01 Z" />
<path fill="#6e6e6e" opacity="0.65" d=" M 125.08 74.90 C 125.56 75.18 126.52 75.74 127.00 76.01 C 126.99 84.33 127.02 92.65 126.99 100.96 L 125.98 101.14 C 125.38 92.74 127.26 84.02 125.32 75.75 L 125.08 74.90 Z" />
<path fill="#1d1d1d" opacity="0.17" d=" M 133.03 75.01 L 134.01 75.01 C 133.99 83.67 134.01 92.33 134.00 100.99 L 133.02 101.00 C 132.96 92.34 132.93 83.67 133.03 75.01 Z" />
<path fill="#777777" opacity="0.70" d=" M 134.01 75.01 L 135.01 74.96 C 135.03 83.57 134.86 92.18 135.08 100.80 C 135.80 100.88 137.24 101.05 137.96 101.14 C 138.56 102.64 133.35 102.62 134.00 100.99 C 134.01 92.33 133.99 83.67 134.01 75.01 Z" />
<path fill="#9f9f9f" opacity="0.94" d=" M 135.01 74.96 C 135.70 75.08 137.09 75.30 137.78 75.41 C 141.42 76.01 145.09 74.57 148.77 75.01 C 151.90 76.44 150.37 80.37 147.26 79.67 C 143.42 77.43 138.73 79.40 138.71 83.75 C 137.68 89.49 138.06 95.34 137.96 101.14 C 137.24 101.05 135.80 100.88 135.08 100.80 C 134.86 92.18 135.03 83.57 135.01 74.96 Z" />
<path fill="#808080" opacity="0.76" d=" M 153.98 74.98 C 155.63 74.78 157.80 74.93 157.86 77.07 C 159.01 83.15 162.54 88.54 163.39 94.72 C 163.92 98.20 168.65 100.15 170.70 96.72 C 173.70 89.69 175.53 82.25 178.19 75.09 C 178.94 75.12 180.43 75.17 181.17 75.20 C 180.70 77.04 180.05 78.86 180.07 80.78 C 179.26 85.80 176.63 90.37 175.39 95.32 C 174.40 99.92 170.28 103.86 165.05 101.98 C 159.78 99.61 159.53 92.51 157.26 87.87 C 156.24 83.57 153.86 79.49 153.98 74.98 Z" />
<path fill="#3e3e3e" opacity="0.37" d=" M 181.17 75.20 C 183.25 75.97 181.89 80.34 180.07 80.78 C 180.05 78.86 180.70 77.04 181.17 75.20 Z" />
<path fill="#2d2d2d" opacity="0.27" d=" M 186.04 75.01 L 187.01 75.01 C 186.99 84.00 186.99 92.99 187.01 101.98 L 186.03 102.00 C 185.99 93.01 185.89 84.01 186.04 75.01 Z" />
<path fill="#828282" opacity="0.76" d=" M 187.01 75.01 C 187.76 75.01 189.25 75.01 189.99 75.02 C 190.00 84.01 190.00 93.00 189.99 101.99 C 189.24 101.99 187.75 101.99 187.01 101.98 C 186.99 92.99 186.99 84.00 187.01 75.01 M 188.02 76.00 C 187.95 84.33 187.95 92.66 188.02 101.00 L 188.98 101.00 C 189.04 92.66 189.04 84.33 188.98 76.00 L 188.02 76.00 Z" />
<path fill="#2d2d2d" opacity="0.27" d=" M 189.99 75.02 L 190.97 75.00 C 191.00 83.99 191.10 92.99 190.96 101.99 L 189.99 101.99 C 190.00 93.00 190.00 84.01 189.99 75.02 Z" />
<path fill="#7e7e7e" opacity="0.75" d=" M 199.74 87.25 C 195.51 83.94 197.42 76.80 202.05 75.01 C 205.69 74.97 209.31 75.00 212.96 75.03 C 215.14 75.43 216.67 76.60 216.01 79.03 C 214.16 79.27 212.57 78.33 210.99 77.54 C 208.84 76.42 206.04 76.23 203.97 77.48 C 200.37 78.43 200.07 84.31 203.67 85.34 C 207.81 86.38 214.58 85.59 216.88 90.25 C 216.92 92.75 216.92 95.25 216.90 97.75 C 215.84 100.09 213.68 101.98 211.03 102.01 C 208.34 102.02 205.66 102.01 202.98 102.00 C 200.66 101.30 195.89 100.62 197.19 97.22 C 198.22 94.84 200.30 97.60 201.80 98.12 C 204.89 100.04 209.37 100.90 212.22 98.17 C 215.45 96.67 214.65 91.76 211.74 90.29 C 207.63 90.31 203.18 89.61 199.74 87.25 Z" />
<path fill="#252525" opacity="0.22" d=" M 223.03 75.01 L 224.00 75.00 C 223.99 82.00 224.01 89.00 223.99 96.00 L 223.02 95.99 C 222.95 89.00 222.91 82.00 223.03 75.01 Z" />
<path fill="#7c7c7c" opacity="0.73" d=" M 224.00 75.00 L 224.99 75.00 C 225.01 82.34 224.98 89.68 224.99 97.02 C 224.74 96.76 224.24 96.25 223.99 96.00 C 224.01 89.00 223.99 82.00 224.00 75.00 Z" />
<path fill="#727272" opacity="0.67" d=" M 226.01 75.00 L 227.01 75.00 C 226.98 81.42 227.11 87.85 226.73 94.27 C 224.60 88.18 226.68 81.31 226.01 75.00 Z" />
<path fill="#393939" opacity="0.34" d=" M 227.01 75.00 L 227.98 75.00 C 228.05 82.08 228.11 89.17 227.79 96.24 C 227.52 95.75 227.00 94.76 226.73 94.27 C 227.11 87.85 226.98 81.42 227.01 75.00 Z" />
<path fill="#171717" opacity="0.14" d=" M 240.03 75.00 L 241.00 75.00 C 241.00 81.42 240.93 87.84 241.24 94.25 C 240.98 95.49 240.10 96.40 239.26 97.27 C 240.10 89.88 240.05 82.44 240.03 75.00 Z" />
<path fill="#6b6b6b" opacity="0.63" d=" M 241.00 75.00 L 242.00 75.00 C 241.91 81.42 242.52 87.94 241.24 94.25 C 240.93 87.84 241.00 81.42 241.00 75.00 Z" />
<path fill="#4b4b4b" opacity="0.45" d=" M 243.99 75.01 L 244.97 75.00 C 245.04 82.00 245.08 89.00 244.96 96.00 L 243.98 95.97 C 244.05 88.98 243.98 81.99 243.99 75.01 Z" />
<path fill="#868686" opacity="0.79" d=" M 253.20 78.88 C 250.64 77.22 252.86 75.23 255.05 75.04 C 258.69 74.97 262.31 74.99 265.96 75.00 C 267.65 75.68 269.33 77.34 269.99 79.04 C 270.00 85.34 270.04 91.65 269.99 97.95 C 267.97 103.68 260.74 101.84 255.99 102.02 C 253.76 102.28 252.66 100.03 251.21 98.78 C 250.63 96.58 250.09 94.37 249.86 92.11 C 250.67 89.66 252.41 87.57 255.04 87.04 C 258.96 86.24 263.60 88.27 267.27 86.26 C 270.11 84.98 267.50 80.57 266.19 78.79 C 262.50 75.99 257.32 77.81 253.20 78.88 M 258.99 88.98 C 258.50 89.00 257.52 89.02 257.03 89.03 L 256.98 90.00 C 251.40 89.82 252.04 98.69 257.17 99.03 C 257.93 100.86 263.06 100.85 263.83 99.04 C 266.99 98.41 270.00 91.13 267.01 90.00 L 267.00 89.01 L 266.98 88.05 C 264.58 88.46 259.90 86.78 258.99 88.98 Z" />
<path fill="#1f1f1f" opacity="0.19" d=" M 121.02 76.01 L 122.00 76.00 C 122.01 84.33 122.00 92.66 122.00 100.99 L 121.02 101.00 C 120.95 92.67 120.95 84.34 121.02 76.01 Z" />
<path fill="#979797" opacity="0.89" d=" M 125.32 75.75 C 127.26 84.02 125.38 92.74 125.98 101.14 L 125.00 101.02 C 124.97 92.60 124.94 84.17 125.32 75.75 Z" />
<path fill="#2e2e2e" opacity="0.27" d=" M 127.00 76.01 L 127.97 76.00 C 128.05 84.33 128.05 92.67 127.97 101.01 L 126.99 100.96 C 127.02 92.65 126.99 84.33 127.00 76.01 Z" />
<path fill="#a0a0a0" opacity="0.94" d=" M 188.02 76.00 L 188.98 76.00 C 189.04 84.33 189.04 92.66 188.98 101.00 L 188.02 101.00 C 187.95 92.66 187.95 84.33 188.02 76.00 Z" />
<path fill="#3a3a3a" opacity="0.35" d=" M 203.97 77.48 C 206.04 76.23 208.84 76.42 210.99 77.54 C 208.89 78.58 206.04 78.59 203.97 77.48 Z" />
<path fill="#164562" opacity="0.52" d=" M 0.00 77.55 C 2.45 79.34 1.85 82.38 1.92 85.14 C 1.26 83.98 0.65 82.79 0.00 81.62 L 0.00 77.55 Z" />
<path fill="#2f2f2f" opacity="0.28" d=" M 113.84 78.21 C 116.67 77.70 115.20 84.67 115.99 84.99 C 115.20 89.28 118.03 95.99 113.98 99.05 C 114.04 98.34 114.17 96.94 114.24 96.23 C 115.14 91.13 115.32 85.86 114.24 80.77 C 114.14 80.13 113.94 78.85 113.84 78.21 Z" />
<path fill="#353535" opacity="0.31" d=" M 138.71 83.75 C 138.73 79.40 143.42 77.43 147.26 79.67 C 144.66 79.96 141.69 79.67 140.18 82.24 C 139.78 88.48 140.17 94.74 139.95 100.98 L 139.00 100.98 C 139.01 95.23 138.91 89.49 138.71 83.75 Z" />
<path fill="#3f3f3f" opacity="0.37" d=" M 266.19 78.79 C 267.50 80.57 270.11 84.98 267.27 86.26 L 266.26 86.18 C 267.42 83.74 266.01 81.30 266.19 78.79 Z" />
<path fill="#484848" opacity="0.42" d=" M 269.99 79.04 L 270.96 79.00 C 270.97 79.50 271.00 80.50 271.01 81.00 C 270.99 86.00 270.97 91.00 271.01 96.00 C 270.76 96.49 270.24 97.47 269.99 97.95 C 270.04 91.65 270.00 85.34 269.99 79.04 Z" />
<path fill="#252525" opacity="0.22" d=" M 108.20 79.76 C 110.16 80.80 110.17 82.98 110.01 84.93 C 106.68 84.97 103.37 84.98 100.05 85.03 C 99.38 81.58 105.90 84.87 108.01 83.97 C 110.14 84.16 107.75 81.00 108.20 79.76 Z" />
<path fill="#6b6b6b" opacity="0.63" d=" M 114.24 80.77 C 115.32 85.86 115.14 91.13 114.24 96.23 C 113.88 91.08 114.13 85.92 114.24 80.77 Z" />
<path fill="#1c1c1c" opacity="0.16" d=" M 271.01 81.00 L 271.99 81.01 C 271.99 84.75 271.99 92.25 271.99 95.99 L 271.01 96.00 C 270.97 91.00 270.99 86.00 271.01 81.00 Z" />
<path fill="#757575" opacity="0.69" d=" M 137.96 101.14 C 138.06 95.34 137.68 89.49 138.71 83.75 C 138.91 89.49 139.01 95.23 139.00 100.98 L 137.96 101.14 Z" />
<path fill="#646464" opacity="0.59" d=" M 96.97 87.02 C 97.25 85.65 99.01 85.58 100.05 85.03 C 103.37 84.98 106.68 84.97 110.01 84.93 L 109.95 85.86 C 105.61 86.14 101.27 86.41 96.97 87.02 Z" />
<path fill="#585858" opacity="0.52" d=" M 254.98 86.03 C 257.80 86.06 263.44 86.14 266.26 86.18 L 267.27 86.26 C 263.60 88.27 258.96 86.24 255.04 87.04 L 254.98 86.03 Z" />
<path fill="#727272" opacity="0.67" d=" M 258.99 88.98 C 259.90 86.78 264.58 88.46 266.98 88.05 L 267.00 89.01 C 264.32 89.00 261.65 88.99 258.99 88.98 Z" />
<path fill="#434343" opacity="0.40" d=" M 99.16 102.00 C 93.83 101.70 89.95 91.80 94.90 88.94 C 93.25 93.70 94.55 98.40 98.75 101.16 L 99.16 102.00 Z" />
<path fill="#787878" opacity="0.71" d=" M 101.04 90.01 C 100.90 86.74 107.61 89.76 109.98 89.05 L 110.01 90.01 C 107.01 90.00 104.03 89.99 101.04 90.01 Z" />
<path fill="#3d3d3d" opacity="0.36" d=" M 257.03 89.03 C 257.52 89.02 258.50 89.00 258.99 88.98 C 261.65 88.99 264.32 89.00 267.00 89.01 L 267.01 90.00 C 263.65 89.99 260.33 89.99 256.98 90.00 L 257.03 89.03 Z" />
<path fill="#282828" opacity="0.24" d=" M 98.96 93.04 C 98.93 91.80 99.44 89.86 101.04 90.01 C 104.03 89.99 107.01 90.00 110.01 90.01 C 110.00 92.54 111.18 96.66 107.83 97.03 C 106.16 97.04 102.83 97.04 101.16 97.05 C 100.87 96.80 100.28 96.30 99.99 96.05 C 102.59 96.15 105.19 96.08 107.78 95.84 C 109.54 94.85 108.91 92.66 109.02 91.00 C 105.54 90.65 101.60 90.36 98.96 93.04 Z" />
<path fill="#414141" opacity="0.39" d=" M 216.88 90.25 L 217.89 89.96 C 218.08 92.65 218.08 95.35 217.89 98.04 L 216.90 97.75 C 216.92 95.25 216.92 92.75 216.88 90.25 Z" />
<path fill="#0d0d0d" opacity="0.08" d=" M 257.17 99.03 C 252.04 98.69 251.40 89.82 256.98 90.00 C 260.33 89.99 263.65 89.99 267.01 90.00 C 270.00 91.13 266.99 98.41 263.83 99.04 C 262.16 99.04 258.84 99.03 257.17 99.03 Z" />
<path fill="#303030" opacity="0.28" d=" M 251.21 98.78 C 248.88 98.85 247.94 92.18 249.86 92.11 C 250.09 94.37 250.63 96.58 251.21 98.78 Z" />
<path fill="#14415d" opacity="0.50" d=" M 7.96 95.92 C 11.04 98.24 13.60 101.14 16.05 104.09 C 12.23 102.93 9.56 99.39 7.96 95.92 Z" />
<path fill="#1e536d" opacity="0.52" d=" M 69.08 98.28 C 70.06 97.49 71.06 96.70 72.06 95.92 C 70.99 99.77 67.38 102.42 63.93 104.01 C 65.63 102.09 67.32 100.16 69.08 98.28 Z" />
<path fill="#626262" opacity="0.58" d=" M 101.16 97.05 C 102.83 97.04 106.16 97.04 107.83 97.03 C 107.06 98.86 101.94 98.85 101.16 97.05 Z" />
<path fill="#414141" opacity="0.38" d=" M 201.80 98.12 C 205.35 98.31 208.68 98.98 212.22 98.17 C 209.37 100.90 204.89 100.04 201.80 98.12 Z" />
<path fill="#515151" opacity="0.48" d=" M 237.83 101.98 C 239.59 100.69 241.26 99.30 242.88 97.84 C 243.36 100.62 240.38 102.59 237.83 101.98 Z" />
<path fill="#555555" opacity="0.50" d=" M 257.17 99.03 C 258.84 99.03 262.16 99.04 263.83 99.04 C 263.06 100.85 257.93 100.86 257.17 99.03 Z" />
<path fill="#797979" opacity="0.71" d=" M 98.75 101.16 C 102.28 100.88 105.80 101.17 109.29 101.76 C 106.20 101.85 103.13 101.97 100.04 102.03 L 99.16 102.00 L 98.75 101.16 Z" />
<path fill="#252525" opacity="0.22" d=" M 100.04 102.03 C 103.13 101.97 106.20 101.85 109.29 101.76 C 108.47 105.18 102.71 102.28 100.02 102.97 L 100.04 102.03 Z" />
<path fill="#303030" opacity="0.29" d=" M 202.98 102.00 C 205.66 102.01 208.34 102.02 211.03 102.01 C 210.08 104.22 205.44 102.54 203.03 102.95 L 202.98 102.00 Z" />
<path fill="#2e2e2e" opacity="0.27" d=" M 229.99 102.01 C 232.60 102.01 235.21 102.00 237.83 101.98 L 238.03 102.93 C 235.62 102.52 230.90 104.23 229.99 102.01 Z" />
<path fill="#1e5471" opacity="0.56" d=" M 53.02 110.19 C 53.96 107.51 57.00 107.70 59.33 107.29 C 57.50 108.79 55.20 109.41 53.02 110.19 Z" />
<path fill="#174663" opacity="0.52" d=" M 26.87 110.07 C 29.61 110.14 32.66 109.54 34.44 112.00 L 30.38 112.00 C 29.21 111.35 28.03 110.73 26.87 110.07 Z" />
<path fill="#1b4d6a" opacity="0.53" d=" M 47.36 109.70 C 49.24 109.93 51.13 110.07 53.02 110.19 C 51.89 110.79 50.74 111.38 49.62 112.00 L 45.79 112.00 C 46.18 111.42 46.97 110.27 47.36 109.70 Z" />
</svg>
