<?xml version="1.0" encoding="UTF-8" ?>
<!DOCTYPE svg PUBLIC "-//W3C//DTD SVG 1.1//EN" "http://www.w3.org/Graphics/SVG/1.1/DTD/svg11.dtd">
<svg width="180pt" height="58pt" viewBox="0 0 180 58" version="1.1" xmlns="http://www.w3.org/2000/svg">
<path fill="#5788b4" opacity="1.00" d=" M 26.04 0.00 L 30.89 0.00 C 34.62 0.50 37.21 4.17 36.59 7.82 C 36.45 10.52 34.06 12.15 32.23 13.76 C 34.45 15.54 37.05 16.70 39.83 17.27 C 36.90 17.95 33.82 17.59 31.46 15.63 C 28.66 13.34 23.98 12.89 22.99 8.86 C 21.77 5.07 24.39 1.10 28.09 0.01 L 26.04 0.00 M 28.16 1.17 C 24.12 3.17 24.63 10.13 28.19 12.38 C 31.09 14.07 34.19 11.03 33.89 8.07 C 34.51 4.73 32.27 -0.31 28.16 1.17 Z" />
<path fill="#d9232e" opacity="1.00" d=" M 0.12 0.57 C 4.37 0.41 8.63 0.40 12.88 0.59 C 12.64 4.86 13.72 9.38 12.57 13.51 C 8.48 14.29 4.17 13.52 0.00 13.69 L 0.00 13.19 C 0.96 9.09 -0.39 4.77 0.12 0.57 M 5.36 2.84 C 5.34 3.55 5.32 4.98 5.31 5.69 C 4.59 5.71 3.15 5.73 2.43 5.74 C 2.45 6.35 2.48 7.56 2.50 8.16 C 3.20 8.16 4.60 8.17 5.30 8.17 C 5.31 8.85 5.32 10.22 5.33 10.90 C 5.92 10.90 7.10 10.91 7.69 10.91 C 7.70 10.22 7.72 8.85 7.72 8.17 C 8.42 8.17 9.82 8.16 10.52 8.16 C 10.54 7.56 10.58 6.34 10.59 5.74 C 9.87 5.73 8.43 5.71 7.72 5.69 C 7.70 4.98 7.68 3.55 7.67 2.83 L 5.36 2.84 Z" />
<path fill="#5788b4" opacity="1.00" d=" M 16.79 0.56 C 18.19 0.53 21.00 0.48 22.40 0.45 C 19.32 3.16 21.38 7.86 20.75 11.45 C 21.23 12.04 21.72 12.64 22.20 13.23 C 20.36 13.15 18.52 13.20 16.68 13.13 C 17.30 12.75 17.92 12.37 18.56 12.00 C 18.48 8.61 18.94 5.16 18.37 1.81 L 16.79 0.56 Z" />
<path fill="#5788b4" opacity="1.00" d=" M 43.26 0.51 C 44.00 0.50 45.49 0.46 46.23 0.44 C 46.95 4.79 47.72 9.14 48.34 13.50 C 45.96 13.99 45.02 12.75 45.03 10.55 C 43.43 10.56 41.85 10.57 40.26 10.59 C 39.89 11.29 39.16 12.68 38.80 13.38 C 38.02 13.38 36.46 13.39 35.68 13.40 C 38.22 9.11 40.76 4.82 43.26 0.51 M 41.43 8.31 C 42.58 8.33 43.73 8.35 44.88 8.34 C 44.66 6.70 44.47 5.07 44.25 3.44 C 43.24 5.02 42.38 6.69 41.43 8.31 Z" />
<path fill="#5788b4" opacity="1.00" d=" M 52.28 1.13 L 52.99 0.67 C 53.17 1.00 53.54 1.66 53.73 1.99 L 53.01 2.46 C 52.83 2.13 52.46 1.46 52.28 1.13 Z" />
<path fill="#5788b4" opacity="1.00" d=" M 51.16 4.30 C 51.81 4.17 53.12 3.93 53.77 3.80 C 53.14 6.96 52.63 10.15 51.74 13.25 C 51.11 13.31 49.84 13.45 49.21 13.51 C 49.85 10.44 50.36 7.33 51.16 4.30 Z" />
<path fill="#5788b4" opacity="1.00" d=" M 55.45 5.56 C 55.31 3.71 57.29 3.67 58.46 4.48 C 59.65 4.18 60.83 3.86 62.01 3.54 C 61.88 4.15 61.60 5.37 61.46 5.98 C 57.10 5.51 57.25 10.34 56.33 13.25 C 55.69 13.31 54.42 13.44 53.78 13.51 C 54.37 10.87 54.86 8.20 55.45 5.56 Z" />
<path fill="#5788b4" opacity="1.00" d=" M 12.55 26.39 C 13.14 24.45 16.08 24.37 16.65 26.38 C 20.60 36.74 24.24 47.23 28.20 57.59 C 26.91 57.58 25.62 57.56 24.33 57.52 C 23.17 54.10 21.92 50.72 20.68 47.34 C 16.64 47.31 12.60 47.31 8.56 47.33 C 7.34 50.74 6.08 54.15 4.84 57.56 C 3.90 57.57 2.02 57.58 1.08 57.59 C 4.97 47.21 8.63 36.75 12.55 26.39 M 14.58 30.81 C 12.91 35.23 11.36 39.68 9.69 44.09 C 12.96 44.09 16.24 44.09 19.52 44.09 C 17.88 39.67 16.35 35.19 14.58 30.81 Z" />
<path fill="#5788b4" opacity="1.00" d=" M 32.37 26.99 C 33.28 26.02 34.30 24.51 35.88 25.15 C 37.80 25.69 37.79 28.56 35.97 29.24 C 34.16 30.17 33.26 28.08 32.37 26.99 Z" />
<path fill="#5788b4" opacity="1.00" d=" M 60.04 24.48 C 61.30 24.93 62.37 25.76 62.73 27.09 C 66.70 36.90 70.21 46.89 74.44 56.59 C 78.47 47.12 82.05 37.45 85.86 27.89 C 86.33 26.40 87.32 25.20 88.74 24.52 C 87.60 29.11 85.55 33.39 83.89 37.79 C 81.01 44.49 79.01 51.60 75.48 58.00 L 73.65 58.00 C 71.60 55.80 70.91 52.80 69.80 50.10 C 66.62 41.54 62.91 33.16 60.04 24.48 Z" />
<path fill="#5788b4" opacity="1.00" d=" M 93.29 25.11 C 95.18 24.51 96.28 27.70 94.08 27.95 C 92.23 28.56 91.35 25.48 93.29 25.11 Z" />
<path fill="#5788b4" opacity="1.00" d=" M 173.28 24.96 C 173.73 24.87 174.62 24.70 175.06 24.61 C 175.18 34.05 174.86 43.51 175.21 52.94 C 175.19 56.11 180.04 55.18 179.99 57.99 C 176.61 58.04 173.22 55.54 173.29 51.97 C 173.19 42.97 173.21 33.96 173.28 24.96 Z" />
<path fill="#5788b4" opacity="1.00" d=" M 153.20 34.24 C 156.96 32.54 162.21 32.57 164.90 36.12 C 166.90 38.65 166.45 42.05 166.50 45.04 C 166.36 49.37 167.03 53.68 166.77 58.00 L 165.58 58.00 C 165.41 56.25 165.26 54.50 165.13 52.75 C 163.27 55.23 160.92 57.46 157.74 58.00 L 150.70 58.00 L 153.47 57.96 C 149.10 56.61 146.31 50.51 149.97 47.02 C 154.15 43.61 160.07 44.69 165.07 43.79 C 164.86 40.96 164.98 37.42 162.15 35.80 C 158.35 33.61 153.90 35.49 150.60 37.71 C 149.95 35.87 151.87 34.91 153.20 34.24 M 151.69 47.70 C 147.83 50.18 150.74 56.59 155.02 56.32 C 161.04 57.27 165.75 51.23 164.84 45.56 C 160.46 46.12 155.69 45.58 151.69 47.70 Z" />
<path fill="#5788b4" opacity="1.00" d=" M 33.27 33.90 C 34.46 33.90 35.65 33.90 36.84 33.90 C 36.95 41.79 36.80 49.68 36.93 57.57 C 35.68 57.58 34.44 57.58 33.20 57.56 C 33.31 49.68 33.18 41.79 33.27 33.90 Z" />
<path fill="#5788b4" opacity="1.00" d=" M 43.86 33.91 C 44.74 33.91 46.50 33.90 47.38 33.90 C 47.38 34.50 47.40 35.70 47.41 36.30 C 50.73 33.23 55.53 33.04 59.61 34.54 C 59.21 35.30 58.39 36.84 57.98 37.60 C 54.11 35.90 48.94 37.06 47.33 41.27 C 47.04 46.70 47.31 52.16 47.23 57.60 C 46.39 57.59 44.70 57.58 43.85 57.58 C 43.86 49.69 43.84 41.80 43.86 33.91 Z" />
<path fill="#5788b4" opacity="1.00" d=" M 93.06 33.38 C 94.97 34.21 94.54 36.33 94.60 38.01 C 94.49 44.67 94.68 51.34 94.44 58.00 L 93.37 58.00 C 92.46 49.84 93.03 41.58 93.06 33.38 Z" />
<path fill="#5788b4" opacity="1.00" d=" M 101.88 36.85 C 105.44 31.75 114.93 32.38 117.36 38.34 C 114.25 37.24 111.59 34.40 108.02 35.23 C 104.95 35.09 101.14 38.44 103.58 41.46 C 107.27 44.35 112.62 43.66 116.29 46.62 C 118.93 48.78 118.99 53.27 116.53 55.59 C 115.12 57.01 113.10 57.48 111.25 58.00 L 107.95 58.00 C 104.42 57.42 100.83 55.16 100.45 51.28 C 103.07 53.32 105.34 56.50 109.04 56.32 C 112.65 56.77 117.74 54.37 116.54 50.01 C 114.86 45.52 109.14 46.11 105.44 44.43 C 102.26 43.66 99.82 39.83 101.88 36.85 Z" />
<path fill="#5788b4" opacity="1.00" d=" M 123.11 34.03 C 123.54 34.04 124.40 34.04 124.83 34.04 C 124.98 39.69 124.55 45.37 125.03 51.00 C 125.72 56.98 134.48 58.21 137.92 53.89 C 141.65 49.83 139.95 43.94 140.26 38.98 C 140.48 37.08 139.56 34.41 141.73 33.38 C 142.14 41.59 141.45 49.84 142.62 58.00 L 141.25 58.00 C 140.97 56.20 140.71 54.39 140.51 52.58 C 138.99 54.85 137.02 56.74 134.57 57.99 L 135.15 58.00 L 135.92 58.00 C 131.13 59.00 124.41 57.18 123.38 51.72 C 122.73 45.85 123.27 39.92 123.11 34.03 Z" />
</svg>
