<?xml version="1.0" encoding="UTF-8" ?>
<!DOCTYPE svg PUBLIC "-//W3C//DTD SVG 1.1//EN" "http://www.w3.org/Graphics/SVG/1.1/DTD/svg11.dtd">
<svg width="196pt" height="59pt" viewBox="0 0 196 59" version="1.1" xmlns="http://www.w3.org/2000/svg">
<path fill="#ffffff" opacity="1.00" d=" M 31.87 0.00 L 33.31 0.00 C 33.08 8.91 31.67 17.73 30.11 26.48 C 30.72 26.40 31.95 26.24 32.57 26.15 C 31.89 31.28 29.40 36.14 24.83 38.83 C 25.39 44.14 25.35 49.49 25.51 54.82 C 22.28 54.85 19.05 54.85 15.82 54.84 C 15.30 53.19 14.75 51.54 14.16 49.91 C 11.36 49.96 10.93 52.63 10.46 54.87 C 7.45 54.81 4.45 54.82 1.44 54.82 C 0.92 48.54 -0.18 41.71 2.87 35.87 C 4.72 32.44 8.94 32.55 12.30 32.22 C 12.69 29.80 11.40 26.40 13.87 24.82 C 15.39 24.17 17.11 24.37 18.72 24.25 C 20.86 22.57 23.37 21.51 26.08 21.20 C 29.23 14.52 30.16 7.11 31.87 0.00 M 20.71 25.49 C 20.70 26.49 20.70 27.50 20.70 28.50 C 21.89 28.54 23.07 28.55 24.26 28.51 C 24.26 27.51 24.26 26.50 24.25 25.50 C 23.07 25.45 21.89 25.45 20.71 25.49 Z" />
<path fill="#ffffff" opacity="1.00" d=" M 40.76 27.61 C 44.29 27.31 48.86 26.39 51.32 29.66 C 53.37 32.60 51.32 36.09 48.67 37.76 C 52.97 38.58 54.44 44.42 51.35 47.32 C 48.46 49.87 44.33 49.38 40.77 49.25 C 40.74 42.04 40.75 34.82 40.76 27.61 M 41.88 28.37 C 41.85 31.35 41.86 34.33 41.87 37.30 C 44.38 37.34 46.89 37.10 49.30 36.34 C 50.46 34.57 51.70 32.17 50.19 30.20 C 48.29 27.58 44.66 28.33 41.88 28.37 M 41.87 38.15 C 41.86 41.56 41.76 44.98 42.08 48.39 C 44.49 48.27 47.13 48.78 49.30 47.44 C 52.22 46.15 52.72 41.65 50.21 39.71 C 47.95 37.63 44.66 38.30 41.87 38.15 Z" />
<path fill="#ffffff" opacity="1.00" d=" M 123.35 37.98 C 123.79 34.17 123.36 30.19 124.78 26.56 C 127.98 33.32 130.45 40.41 133.10 47.41 C 135.40 41.59 137.74 35.79 140.09 29.99 C 140.52 28.76 141.25 27.67 142.21 26.80 C 142.99 34.33 143.53 41.90 143.91 49.47 C 143.62 49.30 143.04 48.97 142.75 48.80 C 142.37 42.22 142.04 35.65 141.43 29.09 C 138.94 36.12 136.19 43.07 133.05 49.83 C 130.11 42.84 127.31 35.77 124.79 28.61 C 124.46 35.75 124.95 43.20 122.96 50.11 C 122.18 46.09 123.30 42.02 123.35 37.98 Z" />
<path fill="#ffffff" opacity="1.00" d=" M 163.07 33.66 C 163.30 32.38 163.55 31.09 164.17 29.94 C 164.27 30.87 164.47 32.74 164.57 33.67 C 166.09 33.67 167.62 33.67 169.16 33.67 C 169.17 33.92 169.20 34.41 169.21 34.66 C 167.63 34.67 166.04 34.69 164.46 34.70 C 164.89 39.25 163.44 44.19 165.55 48.43 C 166.56 48.51 168.57 48.66 169.58 48.74 C 167.66 49.90 164.54 49.98 163.66 47.49 C 162.89 43.29 163.50 38.95 163.32 34.70 C 162.63 34.69 161.27 34.67 160.59 34.66 C 160.57 34.42 160.54 33.93 160.53 33.69 C 161.16 33.68 162.43 33.67 163.07 33.66 Z" />
<path fill="#ffffff" opacity="1.00" d=" M 56.16 44.98 C 56.27 40.97 55.93 36.93 56.45 32.94 C 56.74 33.81 57.32 35.53 57.61 36.39 C 58.32 33.95 60.93 32.70 63.20 33.90 C 62.31 34.11 60.54 34.52 59.66 34.73 C 55.66 38.81 58.03 44.87 57.07 49.88 C 55.86 48.50 56.23 46.64 56.16 44.98 Z" />
<path fill="#ffffff" opacity="1.00" d=" M 67.08 34.03 C 69.55 32.82 72.98 33.04 74.82 35.30 C 76.19 36.91 76.27 39.14 76.53 41.14 C 72.38 41.19 68.24 41.10 64.09 41.23 C 64.57 43.37 64.81 45.86 66.68 47.30 C 69.42 49.56 73.04 48.13 76.19 47.84 C 72.60 50.57 66.42 50.21 64.15 45.96 C 62.18 42.06 63.00 36.28 67.08 34.03 M 64.21 40.18 C 67.94 40.23 71.68 40.22 75.42 40.20 C 74.93 37.41 73.45 33.80 69.96 34.26 C 66.60 34.03 65.04 37.50 64.21 40.18 Z" />
<path fill="#ffffff" opacity="1.00" d=" M 82.58 33.77 C 84.76 33.04 87.46 33.08 89.23 34.72 C 91.04 36.25 91.19 38.77 91.56 40.93 C 87.42 41.36 83.25 41.06 79.09 41.23 C 79.56 43.61 79.94 46.49 82.33 47.75 C 85.05 49.40 88.24 48.08 91.16 47.83 C 88.24 50.01 83.85 50.26 80.88 48.04 C 76.53 44.46 77.34 36.12 82.58 33.77 M 79.20 40.19 C 82.93 40.23 86.66 40.22 90.39 40.20 C 89.89 37.44 88.48 33.83 85.00 34.25 C 81.62 34.01 80.02 37.47 79.20 40.19 Z" />
<path fill="#ffffff" opacity="1.00" d=" M 92.30 34.42 C 96.24 32.82 100.72 33.97 104.88 33.79 C 101.37 38.76 97.41 43.41 93.73 48.26 C 97.29 48.25 100.86 48.25 104.43 48.26 C 104.45 48.50 104.47 49.00 104.48 49.24 C 100.28 49.23 96.07 49.30 91.86 49.17 C 95.39 44.19 99.27 39.47 103.05 34.69 C 99.47 34.65 95.87 34.86 92.30 34.42 Z" />
<path fill="#ffffff" opacity="1.00" d=" M 110.52 33.60 C 115.17 31.98 120.41 36.00 119.92 40.92 C 120.89 46.33 114.99 51.25 109.89 49.13 C 103.27 46.70 103.72 35.51 110.52 33.60 M 110.02 34.82 C 104.35 37.60 105.50 47.85 112.01 48.59 C 117.41 49.14 120.36 42.39 118.18 38.03 C 117.06 34.76 113.06 33.36 110.02 34.82 Z" />
<path fill="#ffffff" opacity="1.00" d=" M 147.66 36.50 C 149.61 33.02 155.07 32.13 157.85 35.09 C 159.38 36.72 159.45 39.05 159.74 41.14 C 155.58 41.20 151.42 41.10 147.27 41.23 C 147.81 43.51 148.09 46.30 150.33 47.62 C 153.08 49.47 156.46 48.07 159.48 47.84 C 156.44 49.94 152.06 50.31 149.03 48.01 C 145.75 45.25 145.60 40.04 147.66 36.50 M 147.40 40.18 C 151.12 40.23 154.85 40.22 158.57 40.20 C 158.06 37.74 157.09 34.39 154.01 34.29 C 150.32 33.57 148.18 37.15 147.40 40.18 Z" />
<path fill="#ffffff" opacity="1.00" d=" M 174.84 33.79 C 177.18 32.92 180.14 33.18 181.89 35.12 C 183.39 36.75 183.49 39.06 183.74 41.14 C 179.59 41.20 175.43 41.08 171.28 41.26 C 171.84 43.29 171.98 45.73 173.74 47.17 C 176.03 49.28 179.43 48.61 182.13 47.78 C 182.43 47.87 183.02 48.06 183.31 48.15 C 180.16 49.73 176.03 50.35 173.06 48.02 C 168.77 44.41 169.55 36.08 174.84 33.79 M 171.42 40.18 C 175.15 40.23 178.87 40.22 182.60 40.20 C 182.08 37.72 181.09 34.35 177.97 34.29 C 174.30 33.60 172.21 37.18 171.42 40.18 Z" />
<path fill="#ffffff" opacity="1.00" d=" M 186.70 42.98 C 186.83 39.59 186.41 36.16 187.01 32.80 C 187.21 33.68 187.62 35.46 187.82 36.34 C 188.89 34.60 190.56 33.52 192.50 32.99 C 192.61 33.26 192.83 33.80 192.94 34.07 C 191.27 34.48 189.48 35.02 188.68 36.69 C 187.08 40.91 188.29 45.50 187.65 49.87 C 186.11 47.89 186.87 45.28 186.70 42.98 Z" />
</svg>
