<svg viewBox="0 0 128 101" xmlns="http://www.w3.org/2000/svg" fill-rule="evenodd" clip-rule="evenodd"><path d="M79.3 22.7c4 6 7.6 12 10.3 18.8.7 3 .4 6 .3 9.2-2 4-6.4 7.3-11 7-4.5 0-8.6-3.4-10.3-7.5-1.4-3-.3-6.6.8-9.5 2.7-6.4 6.2-12.3 9.8-18M74 36.3c-1.7 2.2-3 4.6-2.5 7.3 3.5 1 4.2-2.6 5.4-5l-.7-2.2H74z" fill="#00A4B4" fill-rule="nonzero" stroke="#F05E40" stroke-width=".1"/><path d="M17.6 31.6C21.6 26.3 31 27 34 33c3 4 1.5 10-2.4 13 3.4 2.5 6 6 9 9 3-3 5.4-6.5 8.8-9-4-3.2-5.3-9.4-2-13.7 3-5.2 11.4-5.8 15.5-1.2 4 4.2 3.3 11.5-1.3 15 2.6 1.8 4.3 4.5 6.6 6.7 2.2 2.4 5 4.4 6.8 7.2 0 1.4.3 3.6-1.3 4.5-2.2 1.6-4.7 0-6.6-1.3-.7-1.2-1.5-2.5-2.4-3.7.6 4 3 7 4 10.8.8 2.5-2 3.2-3.8 4-.2 4 .4 8-.4 12.2-.8 3.2-5.6 3.3-7 .5-.6-4.2-.2-8.4-.3-12.5h-3c0 3.8.4 7.6 0 11.4-.4 3.7-6.4 4-7.4.4-.6-4 0-8.3-.2-12.5-1.3-1-3.2-2-3-3.8.6-3.7 2.8-7 3-10.7-1.2 2.3-2 6-5.3 5.7-3.5.8-5-2.5-6-5.3-.7 8.6 0 17.3-.5 26-.5 4-7 4-7.6 0-.4-5 0-10-.2-15h-3c0 5 .2 10 0 15-.2 3-5 4-6.6 1.7-1.2-1.3-1-3-1-4.7V59.8C14 62 12 66.5 8 65c-2.4-1-2-3.6-2-5.6C10.6 55 14.3 50 19.3 46 15 42.6 14 35.8 17.6 31.6z" fill="#00A4B4" fill-rule="nonzero" stroke="#F28D79" stroke-width=".1"/></svg>