<?xml version="1.0" encoding="UTF-8" ?>
<!DOCTYPE svg PUBLIC "-//W3C//DTD SVG 1.1//EN" "http://www.w3.org/Graphics/SVG/1.1/DTD/svg11.dtd">
<svg width="309pt" height="70pt" viewBox="0 0 309 70" version="1.1" xmlns="http://www.w3.org/2000/svg">
<path fill="#c2c2c2" opacity="1.00" d=" M 186.26 38.00 C 186.27 26.57 186.26 15.15 186.27 3.72 C 187.27 3.73 189.27 3.74 190.26 3.75 C 190.26 15.16 190.26 26.58 190.26 38.00 C 188.93 38.00 187.60 38.00 186.26 38.00 Z" />
<path fill="#9aba2f" opacity="1.00" d=" M 70.96 13.89 C 75.05 12.04 80.34 12.27 83.95 15.08 C 85.93 16.55 86.58 19.03 87.38 21.22 C 86.01 21.24 84.63 21.26 83.25 21.28 C 82.14 19.47 81.29 16.97 78.91 16.53 C 75.40 15.40 71.06 17.12 69.86 20.74 C 68.56 24.42 68.53 28.86 70.70 32.22 C 72.65 35.31 77.09 35.76 80.12 34.10 C 82.00 33.04 82.53 30.81 83.35 28.98 C 84.73 29.00 86.10 29.03 87.48 29.06 C 86.58 31.69 85.78 34.65 83.43 36.39 C 77.90 40.33 68.42 38.91 65.84 32.09 C 63.50 25.93 64.57 17.19 70.96 13.89 Z" />
<path fill="#9aba2f" opacity="1.00" d=" M 92.00 13.27 C 93.33 13.27 94.67 13.27 96.00 13.27 C 96.18 19.48 95.62 25.74 96.28 31.93 C 98.26 37.30 107.26 35.25 108.15 29.99 C 109.03 24.48 108.33 18.83 108.50 13.26 C 109.83 13.26 111.16 13.25 112.49 13.25 C 112.43 21.50 112.48 29.75 112.46 38.01 C 111.51 38.00 109.61 37.99 108.66 37.99 C 108.74 36.79 108.83 35.60 108.92 34.40 C 105.22 39.72 94.96 40.46 92.56 33.65 C 91.35 26.95 92.29 20.05 92.00 13.27 Z" />
<path fill="#9aba2f" opacity="1.00" d=" M 119.01 13.25 C 120.27 13.27 121.54 13.28 122.81 13.30 C 122.76 14.10 122.64 15.71 122.58 16.52 C 126.31 12.10 134.48 10.86 137.63 16.54 C 141.22 11.66 150.63 10.95 153.11 17.13 C 153.95 24.03 153.23 31.05 153.46 38.00 C 152.48 38.00 150.52 38.00 149.54 38.00 C 149.44 32.08 149.73 26.15 149.42 20.23 C 149.07 14.35 139.41 15.30 138.53 20.46 C 137.89 26.27 138.44 32.16 138.27 38.00 C 136.93 38.00 135.60 38.00 134.26 38.00 C 134.24 32.64 134.32 27.29 134.27 21.93 C 134.27 19.91 133.86 17.18 131.58 16.53 C 127.86 15.18 123.49 17.98 123.11 21.89 C 122.81 27.25 123.09 32.63 123.00 38.00 C 121.67 38.00 120.33 38.00 119.00 38.00 C 119.00 29.75 118.99 21.50 119.01 13.25 Z" />
<path fill="#c2c2c2" opacity="1.00" d=" M 160.00 13.27 C 161.33 13.27 162.66 13.27 164.00 13.27 C 164.09 19.21 163.81 25.17 164.12 31.12 C 164.30 34.50 168.35 35.66 171.13 34.81 C 174.31 34.29 176.41 31.07 176.50 27.99 C 176.62 23.08 176.51 18.17 176.50 13.25 C 177.83 13.26 179.16 13.26 180.50 13.26 C 180.43 21.51 180.48 29.76 180.46 38.01 C 179.51 38.00 177.61 37.99 176.66 37.98 C 176.74 36.79 176.82 35.59 176.92 34.39 C 173.87 38.45 168.06 39.73 163.56 37.44 C 160.94 35.97 159.99 32.87 160.02 30.05 C 159.93 24.45 160.04 18.86 160.00 13.27 Z" />
<path fill="#c2c2c2" opacity="1.00" d=" M 197.00 13.27 C 198.33 13.27 199.66 13.27 201.00 13.27 C 201.09 19.19 200.82 25.13 201.11 31.05 C 201.24 34.44 205.26 35.66 208.06 34.82 C 211.28 34.33 213.42 31.10 213.50 27.99 C 213.62 23.08 213.51 18.16 213.50 13.25 C 214.83 13.26 216.16 13.26 217.50 13.26 C 217.43 21.51 217.48 29.76 217.46 38.01 C 216.51 38.00 214.61 37.99 213.66 37.98 C 213.74 36.78 213.82 35.58 213.92 34.39 C 210.24 39.75 199.93 40.46 197.55 33.63 C 196.36 26.93 197.29 20.04 197.00 13.27 Z" />
<path fill="#c2c2c2" opacity="1.00" d=" M 226.25 14.23 C 232.10 11.01 241.92 12.53 242.87 20.37 C 241.90 20.40 239.96 20.47 238.98 20.50 C 237.53 15.94 231.19 14.82 227.82 17.79 C 226.54 19.13 227.39 21.39 229.10 21.91 C 233.14 23.84 238.13 23.42 241.70 26.36 C 244.87 29.36 243.73 35.18 239.85 37.02 C 235.63 39.03 230.25 39.14 226.10 36.89 C 223.64 35.63 222.88 32.83 222.18 30.38 C 223.47 30.32 224.77 30.27 226.08 30.22 C 227.30 35.37 233.85 36.09 237.87 33.93 C 239.74 32.98 239.74 30.08 238.07 28.95 C 234.00 26.46 228.65 27.17 224.84 24.15 C 221.71 21.58 222.70 15.97 226.25 14.23 Z" />
<path fill="#acacac" opacity="1.00" d=" M 79.74 45.26 C 80.14 45.26 80.93 45.27 81.33 45.28 C 81.28 46.29 81.19 48.32 81.15 49.33 C 83.00 48.61 85.79 47.77 86.98 50.01 C 87.52 52.61 87.20 55.29 87.28 57.93 C 86.90 57.95 86.13 58.01 85.75 58.03 C 85.22 55.39 87.12 50.77 84.04 49.62 C 79.64 50.22 81.86 55.91 81.05 58.86 C 78.30 54.97 80.35 49.72 79.74 45.26 Z" />
<path fill="#acacac" opacity="1.00" d=" M 135.74 45.28 C 136.13 45.28 136.93 45.26 137.32 45.25 C 137.28 46.27 137.19 48.31 137.15 49.33 C 139.01 48.62 141.79 47.76 142.99 50.02 C 143.52 52.65 143.20 55.35 143.27 58.01 C 142.89 58.00 142.12 57.97 141.74 57.95 C 141.67 55.30 142.04 52.56 141.30 49.97 C 139.94 49.29 137.78 49.80 137.50 51.47 C 137.10 53.91 137.30 56.41 137.05 58.87 C 134.31 54.97 136.35 49.74 135.74 45.28 Z" />
<path fill="#acacac" opacity="1.00" d=" M 165.93 47.48 C 163.66 48.16 163.74 43.85 165.97 44.59 C 167.12 45.59 167.10 46.55 165.93 47.48 Z" />
<path fill="#acacac" opacity="1.00" d=" M 218.64 45.47 C 219.67 44.97 220.86 45.22 221.96 45.15 C 221.23 45.90 219.76 47.40 219.02 48.15 C 220.86 50.56 223.31 47.90 223.75 46.00 C 223.99 46.00 224.47 45.99 224.71 45.98 C 224.73 46.71 224.76 48.16 224.78 48.88 C 226.07 48.63 227.36 48.40 228.66 48.20 C 229.93 50.71 230.62 53.46 231.18 56.21 C 230.50 51.77 236.91 54.34 235.78 49.86 C 236.03 51.50 236.53 54.79 236.78 56.43 C 237.80 53.58 238.12 50.32 240.12 47.90 C 240.39 51.22 238.76 54.38 237.67 57.43 C 237.26 57.72 236.43 58.32 236.02 58.61 C 235.71 56.98 235.43 55.35 235.18 53.71 C 234.44 53.76 233.71 53.80 232.99 53.84 C 232.36 55.41 233.27 58.79 230.62 57.97 C 229.46 55.33 228.73 52.52 228.21 49.70 C 227.09 49.81 225.97 49.92 224.86 50.03 C 224.74 52.08 224.72 54.13 224.71 56.18 C 225.68 56.83 226.64 57.48 227.59 58.16 C 226.20 58.05 224.83 57.88 223.47 57.62 C 223.12 55.05 223.28 52.44 223.26 49.85 C 222.33 49.87 220.48 49.91 219.55 49.92 C 219.08 52.84 220.47 56.38 218.27 58.79 C 217.92 55.96 217.98 53.11 218.00 50.27 C 217.44 49.96 216.31 49.34 215.74 49.03 C 216.20 48.97 217.12 48.86 217.59 48.81 C 217.85 47.97 218.38 46.31 218.64 45.47 Z" />
<path fill="#acacac" opacity="1.00" d=" M 74.16 48.20 C 74.62 47.20 75.13 46.22 75.69 45.26 C 75.81 46.14 76.05 47.91 76.17 48.79 C 76.63 48.78 77.54 48.75 78.00 48.74 L 78.00 50.00 C 77.50 50.00 76.50 50.00 76.00 50.00 C 76.00 52.22 76.00 54.43 76.00 56.64 C 76.50 56.67 77.50 56.74 78.00 56.77 L 78.00 58.07 C 77.17 58.00 75.52 57.86 74.69 57.79 C 74.52 55.23 74.52 52.67 74.54 50.11 L 72.59 49.88 C 72.98 49.46 73.77 48.62 74.16 48.20 Z" />
<path fill="#acacac" opacity="1.00" d=" M 130.17 48.21 C 130.61 47.19 131.13 46.21 131.71 45.27 C 131.83 46.15 132.06 47.91 132.18 48.80 C 132.64 48.78 133.55 48.75 134.00 48.73 L 134.00 50.00 C 133.50 50.00 132.50 50.00 132.00 50.00 C 132.00 52.22 132.00 54.43 132.00 56.64 C 132.51 56.67 133.53 56.74 134.04 56.77 L 133.89 58.26 C 133.14 58.10 131.63 57.78 130.88 57.62 C 130.24 55.17 130.60 52.61 130.55 50.11 L 128.59 49.89 C 128.99 49.47 129.78 48.63 130.17 48.21 Z" />
<path fill="#acacac" opacity="1.00" d=" M 188.42 46.00 L 189.49 46.00 C 189.47 46.64 189.43 47.93 189.40 48.57 C 190.13 48.69 191.58 48.95 192.30 49.07 C 191.58 49.40 190.13 50.06 189.41 50.39 C 189.45 52.40 189.47 54.41 189.47 56.43 C 190.22 56.69 191.72 57.21 192.46 57.47 C 191.29 57.72 190.12 57.92 188.94 58.07 C 187.13 55.82 188.31 52.60 188.00 49.94 L 186.37 50.14 C 187.29 48.88 187.95 47.48 188.42 46.00 Z" />
<path fill="#acacac" opacity="1.00" d=" M 40.36 47.71 C 42.74 50.00 42.94 53.46 43.77 56.46 L 44.10 53.88 C 45.05 55.30 46.05 58.46 43.19 58.07 C 41.84 54.76 40.62 51.31 40.36 47.71 Z" />
<path fill="#acacac" opacity="1.00" d=" M 44.48 52.55 C 45.18 50.93 45.95 49.33 47.00 47.91 C 47.93 50.67 48.66 53.51 49.43 56.32 C 50.14 53.71 50.85 51.09 51.63 48.51 C 51.99 48.60 52.69 48.80 53.05 48.90 C 51.99 51.95 51.18 55.08 50.01 58.08 C 49.66 58.04 48.97 57.96 48.63 57.92 C 47.78 55.47 47.18 52.95 46.28 50.52 L 45.98 54.82 C 45.47 54.07 44.97 53.31 44.48 52.55 Z" />
<path fill="#acacac" opacity="1.00" d=" M 58.15 58.27 C 52.94 57.84 52.95 48.80 58.21 48.50 C 61.33 47.90 62.40 51.28 63.19 53.58 C 60.51 53.72 57.83 53.74 55.15 53.85 C 55.59 54.49 56.47 55.77 56.92 56.41 C 59.17 58.19 61.23 55.33 63.30 54.65 C 62.31 56.63 60.70 58.85 58.15 58.27 M 57.24 50.05 C 56.71 50.64 55.67 51.81 55.14 52.40 C 57.37 52.52 59.61 52.53 61.84 52.41 C 60.81 51.00 59.24 48.80 57.24 50.05 Z" />
<path fill="#acacac" opacity="1.00" d=" M 93.22 58.27 C 87.99 57.94 87.90 48.89 93.14 48.51 C 96.29 47.86 97.41 51.25 98.19 53.58 C 95.51 53.72 92.82 53.74 90.14 53.85 C 90.59 54.49 91.47 55.76 91.91 56.40 C 94.15 58.19 96.25 55.33 98.35 54.69 C 97.30 56.60 95.73 58.81 93.22 58.27 M 90.15 52.41 C 92.38 52.53 94.62 52.53 96.85 52.40 C 96.33 51.82 95.30 50.64 94.79 50.05 C 92.76 48.81 91.19 50.99 90.15 52.41 Z" />
<path fill="#acacac" opacity="1.00" d=" M 99.36 48.55 C 99.85 48.83 100.85 49.37 101.35 49.64 C 101.88 49.28 102.93 48.54 103.45 48.18 C 103.62 48.49 103.95 49.10 104.11 49.41 C 100.19 50.58 100.62 54.74 100.68 58.00 C 100.33 58.00 99.62 58.00 99.27 58.00 C 99.28 54.85 99.18 51.70 99.36 48.55 Z" />
<path fill="#acacac" opacity="1.00" d=" M 113.61 58.23 C 108.56 57.46 108.89 48.58 114.13 48.49 C 117.17 48.04 118.12 51.36 118.95 53.58 C 116.26 53.73 113.56 53.74 110.87 53.85 C 111.95 55.18 112.72 57.52 114.87 57.01 C 116.29 56.25 117.58 55.29 119.00 54.53 C 118.08 56.72 116.27 58.94 113.61 58.23 M 112.25 51.30 C 112.72 52.79 114.98 52.63 116.06 51.94 C 117.15 49.91 112.59 49.39 112.25 51.30 Z" />
<path fill="#acacac" opacity="1.00" d=" M 120.00 48.40 C 120.33 48.64 120.99 49.11 121.32 49.35 C 123.11 48.90 126.06 47.51 127.11 49.89 C 127.87 52.47 127.33 55.28 127.48 57.94 C 127.12 57.97 126.38 58.01 126.01 58.03 C 125.95 55.49 126.22 52.91 125.72 50.40 C 124.46 48.99 122.70 49.76 121.75 51.08 C 121.06 53.61 122.27 56.70 120.27 58.79 C 119.86 55.34 120.01 51.87 120.00 48.40 Z" />
<path fill="#acacac" opacity="1.00" d=" M 155.14 51.20 C 155.21 48.84 157.91 48.16 159.83 48.57 C 161.63 48.58 162.15 50.60 163.08 51.78 C 160.84 50.86 158.17 48.38 156.12 51.06 C 158.24 52.73 163.88 52.59 162.54 56.50 C 160.33 59.78 155.05 58.36 154.40 54.53 C 156.73 55.80 159.16 58.30 161.78 56.05 C 160.53 53.12 155.69 54.59 155.14 51.20 Z" />
<path fill="#acacac" opacity="1.00" d=" M 164.74 48.73 C 165.12 48.74 165.88 48.74 166.26 48.74 C 166.26 51.83 166.26 54.92 166.26 58.01 C 165.88 58.00 165.11 57.97 164.73 57.96 C 164.74 54.88 164.74 51.81 164.74 48.73 Z" />
<path fill="#acacac" opacity="1.00" d=" M 167.66 51.83 C 168.62 48.46 173.69 47.06 175.81 49.98 C 176.11 52.76 175.93 55.60 176.81 58.30 C 175.95 58.11 175.10 57.84 174.26 57.60 C 172.38 58.05 169.20 59.12 168.37 56.52 C 167.29 52.28 173.18 52.90 175.46 51.12 C 172.88 48.59 170.14 50.40 167.66 51.83 M 169.39 56.06 C 171.71 58.30 175.01 56.39 175.00 53.34 C 173.00 53.89 169.89 53.34 169.39 56.06 Z" />
<path fill="#acacac" opacity="1.00" d=" M 177.95 52.00 C 177.32 49.26 180.40 47.99 182.61 48.55 C 184.49 48.52 184.82 50.58 185.64 51.84 C 183.53 50.77 180.92 48.32 178.92 51.07 C 181.17 52.25 183.61 53.05 185.84 54.29 C 185.53 56.71 183.74 58.90 181.05 58.27 C 178.78 58.46 178.07 56.09 177.17 54.53 C 179.14 55.78 183.34 59.03 184.23 55.03 C 182.19 53.91 179.50 53.90 177.95 52.00 Z" />
<path fill="#acacac" opacity="1.00" d=" M 197.48 50.43 C 199.16 47.10 204.59 48.23 205.38 51.78 C 203.67 50.91 199.27 47.82 198.97 51.53 C 201.03 52.80 205.50 52.57 205.01 55.93 C 203.33 59.88 197.41 58.53 196.51 54.64 C 198.93 55.81 201.49 58.31 204.13 55.98 C 202.56 53.29 197.04 54.33 197.48 50.43 Z" />
<path fill="#acacac" opacity="1.00" d=" M 209.54 48.65 C 213.18 47.42 216.36 51.61 215.09 54.97 C 214.63 57.58 211.49 59.09 209.14 57.93 C 205.36 56.34 205.66 49.92 209.54 48.65 M 208.92 56.07 C 210.48 58.22 213.83 56.46 213.71 54.02 C 214.37 51.80 212.42 50.41 210.99 49.14 C 208.44 50.35 206.78 53.75 208.92 56.07 Z" />
<path fill="#acacac" opacity="1.00" d=" M 232.80 52.40 C 232.13 51.19 232.78 49.20 234.11 48.73 C 236.26 49.13 234.67 53.19 232.80 52.40 Z" />
<path fill="#acacac" opacity="1.00" d=" M 240.97 51.81 C 241.92 48.38 246.72 47.19 249.03 49.89 C 249.42 52.38 249.17 54.93 249.51 57.43 C 249.85 57.28 250.53 57.00 250.86 56.85 C 252.16 54.15 251.29 50.96 251.72 48.05 C 252.21 48.58 252.71 49.12 253.21 49.66 C 254.41 49.22 255.58 48.66 256.83 48.36 C 256.03 49.69 254.63 50.39 253.38 51.20 C 253.05 53.37 252.98 55.58 253.00 57.77 C 251.58 57.80 250.17 57.90 248.76 58.08 C 248.49 57.92 247.93 57.60 247.66 57.44 C 245.95 57.93 244.01 58.77 242.33 57.71 C 241.07 56.51 241.11 53.71 243.01 53.19 C 243.79 53.01 245.35 52.65 246.13 52.47 C 244.85 53.89 241.45 55.03 243.89 57.05 C 246.31 57.63 247.79 55.59 248.42 53.55 L 246.25 53.79 C 246.55 53.17 247.16 51.92 247.46 51.29 L 248.78 51.22 C 246.35 48.62 243.45 50.39 240.97 51.81 Z" />
<path fill="#acacac" opacity="1.00" d=" M 260.12 58.14 C 255.50 56.79 256.13 48.53 261.17 48.49 C 264.19 48.07 265.13 51.38 265.95 53.58 C 263.25 53.73 260.55 53.75 257.86 53.85 C 258.88 54.84 259.31 56.96 261.00 56.98 C 262.58 57.50 263.51 55.68 264.65 54.98 C 264.98 55.18 265.63 55.58 265.96 55.78 C 264.36 57.26 262.49 58.99 260.12 58.14 M 257.83 52.34 C 260.06 52.51 262.30 52.54 264.54 52.48 C 263.70 51.61 263.19 50.29 261.98 49.88 C 260.13 48.83 259.00 51.45 257.83 52.34 Z" />
<path fill="#acacac" opacity="1.00" d=" M 63.59 51.72 C 64.39 49.39 66.45 48.00 68.95 48.53 C 73.12 48.60 71.38 53.70 71.73 56.36 C 72.11 56.77 72.87 57.58 73.25 57.99 C 70.36 57.12 67.27 58.99 64.55 57.55 C 63.56 56.04 63.79 53.21 66.00 53.09 C 67.68 52.28 71.32 52.89 69.98 50.02 C 67.64 48.89 65.61 50.85 63.59 51.72 M 66.16 54.29 C 64.75 54.85 65.52 57.41 67.01 56.96 C 69.48 57.63 70.21 55.10 70.74 53.29 C 69.18 53.50 67.66 53.83 66.16 54.29 Z" />
<path fill="#a5a5a5" opacity="0.96" d=" M 145.72 48.71 L 147.26 48.75 C 147.56 51.45 146.48 54.60 148.13 56.98 C 152.96 57.72 151.57 51.64 151.76 48.73 L 153.27 48.72 C 153.27 51.75 153.27 54.78 153.30 57.80 C 150.95 57.52 147.49 59.42 146.07 56.83 C 145.41 54.18 145.80 51.41 145.72 48.71 Z" />
</svg>
