<svg width="50pt" height="47pt" viewBox="0 0 50 47" xmlns="http://www.w3.org/2000/svg"><path fill="#f8f8f8" stroke="#f8f8f8" stroke-width=".1" d="M21.6 2c7.8-1.2 16.4 2 21 8.5 4.6 6.2 5.6 14.8 2.8 22C41 44 26.4 50 15.4 44.3c-11-4.6-16.3-19-10.8-29.8C7.6 7.8 14.3 3 21.6 2m-2.2 3.6c-9.8 2.7-16.3 14-13 24 2.2 7.3 9 12.7 16.6 13.7 7.4.4 15-3.3 18.5-10 4.4-7.6 2.4-18-4.2-23.8-4.8-4-11.8-5.6-18-4z"/><path fill="#f8f8f8" stroke="#f8f8f8" stroke-width=".1" d="M20.5 8.7c6-1.6 13.4.4 17 5.8 4 5.5 4.3 13.6 0 19-2.7 4-7.6 6-12.3 6.6-7.8.3-15.2-6-16.4-13.8-1-7.6 4-15.7 11.7-17.5m-1.2 3.8c-4 1.8-6.7 5.7-7.2 10C10.7 31 20 39.2 28.5 36 36 34.4 40 24.8 36 18.2c-3-6-10.7-8.7-16.7-5.7z"/><path fill="#f8f8f8" stroke="#f8f8f8" stroke-width=".1" d="M20.4 15.5c6.3-3.6 15 2.4 14 9.6-.6 7.3-10.5 11.7-15.8 6.4-5-4.2-4.3-13 1.8-16z"/></svg>