<svg width="128pt" height="101pt" viewBox="0 0 128 101" xmlns="http://www.w3.org/2000/svg"><path fill="#f7f7f7" stroke="#f7f7f7" stroke-width=".1" d="M51 10.8c2-.3 4-.2 6-.2 4.6 0 8.7 4 8.7 8.5v34.8c5 4.5 7.4 11.5 5.2 18-2.6 8-11.7 13.4-20 11.2-7.6-1.6-13.4-9.3-12.8-17 0-4.7 2.4-9 5.6-12V20c0-4.3 3-8.2 7-9.2M48.5 19v37c-4.4 3-7 9-5.3 14.2 1.5 5.3 6.7 8.6 12 9 6.8-.4 12.7-6.4 12.3-13.3-.4-4-2.8-7.5-6-10V19c-.6-4-5.2-4-8.3-3.6-2.3-.3-4.7 1.6-4.6 4z"/><path fill="#fff" stroke="#fff" stroke-width=".1" d="M52 25h6.3c.2 11.2-.2 22.4.5 33.5-2.3 0-4.5 0-6.7.2V25z"/><path fill="#4dd5e2" stroke="#4dd5e2" stroke-width=".1" d="M84 34.8l1.8-3 .3 3 3.5-.7c-1 1.5-2.2 2.8-3.3 4v5.6l2.4-2.6 1-4.3 1.2 2 2.3-1c0 .6-.4 2-.6 2.7l1.7.5-1 1c-2.3 0-4.2 1-5.8 2.6l5.7.2 3.8-3.4c0 1-.4 2.6-.5 3.4l3 .3-3.2 2c.5 1 1 1.8 1.3 2.7-1.7-.8-3-2-4.6-3l-5.4-.2 3 2.8h3c-.3.8-.6 2.7-.8 3.7l-3.7 1v-3.5L86 48l.2 5.4c1.2 1.2 2.3 2.5 3.3 4l-3.5-1 .2 2.4c-.4 0-1.3 0-1.8.2v-3L82 57.7c0-.4-.4-1-.5-1.4l3-2.8-.2-5.7-2.7 3V54l-2.3-.7c-1.6.4-2.2-.3-1.6-2.3l-1.3-1.4 4-.5 3-2.4h-5.8l-2.8 2.7-1.6-.3 1.6-2.2-4-.8 3.8-1.6-1.4-2.4c1.8.4 3.2 2 5 2.7h5c-1.5-1.7-3.4-3-6-2.8.3-1.3.4-2.5.5-3.7l4-.8v3.2l2.7 3V38c-1.2-1.4-2.3-3-3.2-4.4l2.8 1z"/><path fill="#00adbc" stroke="#00adbc" stroke-width=".1" d="M52 58.7c2.3 0 4.5-.3 6.8-.2 5 2.3 7 9.3 3.2 13.5-3.4 5-11.5 4.5-14.6-.5-3-4-1.2-9.8 2.6-12.8h2z"/></svg>