<svg width="302pt" height="340" viewBox="0 0 302 255" xmlns="http://www.w3.org/2000/svg"><path fill="#e4e3e3" stroke="#e4e3e3" stroke-width=".1" d="M80 28.8c20-16 50.6-17 71.8-2.5 6.4 4.3 11.8 10 16 16.6 14.7-9.6 35.6-8.3 48.7 3.5 6 5.5 10.2 13.2 11 21.3 14.7 2 28.7 10.6 35.8 23.8 6.2 11.2 6.2 25.5.2 36.8-7.7 14.6-23.7 23.7-40 24.5h-151c-15-.5-29.8-7.8-38.3-20.2-6.6-9.3-9-21.6-6-32.6 4-15.3 17.4-27 32.5-31-.7-15.6 7-31 19.3-40.4M147.3 74c-5.7 2.8-9.3 8.7-9.6 15-2.8 1.3-5.7 2.5-7.6 5-3.2 3.7-4 9.4-1.7 13.8 2.5 5 8 8 13.7 8.2h25c1.4 7 8 12 15 12h46c4.3 0 9-.8 12.2-3.8 4.8-3.8 6.3-11.2 3-16.5-2.3-4-6.7-6-11-7.2-1.2-3-2.6-6.4-5.7-8-4.2-2.7-9.5-2.2-13.8-.2-5-6.8-14-10-22.2-7.5-3.2-6.5-12-7.6-18-4.4-5.4-8-16.7-10.8-25.2-6.3z"/><path fill="#969393" stroke="#969393" stroke-width=".1" d="M147.3 74c8.5-4.4 19.8-1.5 25.3 6.4 6-3.2 14.7-2 18 4.4 2 5.4 8.8 5.3 11.8 9.8 3.5 4.5 3.4 11.3-.2 15.6-3 3.7-7.5 5.6-12 5.7-7.8.2-15.6 0-23.3 0h-25c-5.6 0-11.2-3-13.7-8.2-2.2-4.4-1.5-10 1.8-13.8 2-2.5 5-3.7 7.7-5 .3-6.3 4-12.2 9.6-15z"/><path fill="#aca6a6" stroke="#aca6a6" stroke-width=".1" d="M190.5 84.8c8.2-2.4 17.2.8 22.2 7.5 4.3-2 9.6-2.5 13.8.2 3 1.6 4.5 5 5.8 8 4.2 1.2 8.6 3.2 11 7.3 3.2 5.2 1.7 12.6-3 16.4-3.4 3-8 4-12.3 3.8h-46c-7 0-13.6-5-15-12 7.6 0 15.3.2 23 0 4.7-.2 9.3-2 12.2-5.8 3.6-4.3 3.7-11 .2-15.6-3-4.5-10-4.4-12-9.8z"/><path fill="#00a4b4" stroke="#00a4b4" stroke-width=".1" d="M72.5 153h11.8v38.7H72.5v-38.8zM96.8 153h10.8v38.7h-12c.3-13 .2-25.8 0-38.6H97zM119.4 153h11.8v38.6h-12c.3-12.8.2-25.7.2-38.6zM141.6 153h11.7v39.3c-1.3 1.6-3.6 1-5.3.4-2 1-4.4.4-6.6 0 .2-13 0-26.4.2-39.7zM164.7 153h12c-.2 13.4 0 27-.2 40.3h-11c0-.6-.5-1.7-.7-2.3.8-11.3-.6-22.7.3-34l-.3-4zM188.4 153h11.8c0 13.2 0 26.4.2 39.6-4 1-8 .6-12 .7V153zM211.8 153h11.7c0 13.2-.2 26.4 0 39.7-3.5.8-7.2.6-10.8.5-1.6-1-.8-2.8-1-4.2v-36z"/></svg>
