<svg width="50" height="50" viewBox="0 0 431 306" xmlns="http://www.w3.org/2000/svg"><path fill="#00a4b4" stroke="#00a4b4" stroke-width=".1" d="M99 26.2c37.5-16 82-14.3 118 4.7 31.6 16 56.2 45 67.6 78.5-6.3-.6-13.5 0-18.2 4.8-5.4 5.2-5.3 14.8.3 20 6 5.3 14.5 5 21.4 8.3 3.6 1.4 3.3 6 .8 8-3.6 3-9 3-13 .8-3-1.7-4-5.2-5-8l-10.5 1c1 5.8 3 12 8.3 15 7 4 15.6 3.8 23.2 1.7-.5 6.8-1 13.6-2.8 20-.6 2-1 4-1.2 6-9 38.4-35.8 72-70.8 90-26 13.7-56 18.5-85 14-29-4.2-56.4-18.2-77-39-21.4-21.2-35.5-49.5-39.4-79.3-4-28.2 1-57.6 14.3-82.8 14.6-28.5 39.5-51.5 69-64m40 37c-15.4 4.6-27.7 17.6-32 33-2.6 8.8-1.6 18-1.8 27-1.8.3-3.8 0-5.5.7-4 1.7-6 6.2-5.7 10.3v71c-.2 5 3.6 10.3 9 10h94c3 0 5.8.2 8.7-.3 4-1.3 6.4-5.6 6.3-9.6v-25l61.6-81.3c1.8-2 2.2-5.4 0-7.3-3-2.6-6-5.3-9.4-7.4-2.8-2-5.7.8-7.4 2.8-15 19.8-30 39.4-44.8 59.2-.2-5.3.5-10.7-.4-16-1-4.8-6-7.6-10.8-7-.2-8.4.7-17.2-1.5-25.6-3-12.8-11.7-24-23.3-30.5-11-6.5-24.8-7.7-37-4m129.6 113.4c-3.8 1.8-4.8 7.7-1.5 10.4 3.5 2.3 7.7 2.4 11.3 4-.3 4.3-7.2 3-8-.6l-6.2 1c1.4 2.7 3 5.4 6 6 4 1 8.3 1.2 11.6-1 3.6-2.4 4-8.7 0-10.8-3.5-2-7.5-2.3-11.2-3.8 2-3.2 6.3-2.2 7.6 1l6-1.2c-1.8-6.6-10-7.5-15.4-5z"/><path fill="#9aba2f" stroke="#9aba2f" stroke-width=".1" d="M217 31c25-13.2 54-18.2 82-14.5 30 3.7 58.3 17.7 79.6 39 21.3 20.8 35.6 48.8 39.8 78.4 3.8 26.5 0 54.4-11.6 79-14.2 30.3-40 55.3-71 68.5-37.6 16.4-82.5 14.7-118.8-4.4 35-18 61.8-51.6 70.8-90 .5 3.3 1 7 4 9 3 2.4 7.3 2.4 10.8 1.3 2.7-1 4-3.7 5.5-6l-6-1c-1 1.2-2 3-4 2.8-2.4 0-3-2.7-4.2-4.4 4.8-.2 9.7 0 14.5 0-.3-3.8-.3-8-3.2-10.7-4.6-4.7-13.3-3-16 3 2-6.4 2.3-13.2 2.8-20 8.8-2.7 13-13.6 9-21.7-2-4.2-6.4-6.7-10.6-8-.6-3.3-1-6.6-2-9.8l2 4.8 11-.7c-.8-3.7-1.4-7.7-4-10.5-3-3.6-8-5-12.4-5.5C273.2 76 248.6 47 217 31m99.8 81.8c-7.4 4.8-7.6 16.8-.7 22.2 6 4.8 14.5 4.5 21 8 3.4 1.4 2.8 6 0 8-3.4 2.5-8.6 2.7-12.5.6-3-1.5-4-5-5-8.2-3.5.4-7 .8-10.4 1 .7 5 2.3 10.2 6 13.5 4.4 3.7 10.5 4.6 16 4.5 5.3-.2 11-1 15-4.7 6.5-6 6.5-17.8-.6-23.3-6.2-4.7-14.4-4.5-21.3-7.8-2.3-1-3.2-4.5-1-6 3.5-2.4 8-2.6 12-1 2.3 1.3 3 4 3.7 6.4l10.6-.5c0-6.5-3.8-13-10-15-7.3-2-15.8-2.2-22.4 2m43.5-1.8v50.6H397V152h-25.6v-41h-11m-46 67.4c-3.3 4-3.4 10-1.4 14.6 2.4 5.2 9.2 6 14 4.2 3-1.2 4.3-4.3 5.3-7-2-.4-4-.8-6.2-1-.4 2.2-2 4.8-5 4-4-1.6-3.6-7.4-2.4-10.8 1.8-3.4 6.4-2 7.4 1.2l5.8-1c-1.6-7.7-12.3-9.6-17.4-4.2m21.8-2.4c.3 6-.7 12 .5 17.8 2 5.7 9.7 5 13.6 1.8v2h5.5V176h-6c-.3 4.7.3 9.5-.4 14.2-.5 2.8-4.8 4.3-6.5 1.7-1.4-5.4-.5-10.8-.8-16h-6m25.4 0v21.5h6c.2-4.5-.3-9 .6-13.5 0-1.5 1.5-2.4 2.7-3.3l3 1.4c.6-1.7 1-3.6 1.7-5.4-3-1.6-6.4-1.4-8.5 1.4v-2h-5.6m18 2.5c-3.3 3.6-3.2 8.8-2.2 13.2 1.3 4.5 6 7 10.6 6.3 4.2.2 7.3-3 8.8-6.6l-6-1c-1 1-2 3.2-3.8 2.8-2.6 0-3.4-2.7-4.4-4.6H397c0-3-.2-6.2-1.8-9-3.2-5-11.7-5.7-15.6-1z"/><path fill="#fff" stroke="#fff" stroke-width=".1" d="M139 63c12.2-3.6 26-2.4 37 4 11.6 6.3 20.2 17.7 23.3 30.4 2.2 8.4 1.3 17.2 1.5 25.7 4.8-.5 9.7 2.3 10.8 7 1 5.4.2 10.8.4 16-3.4 4.7-7 9-10.3 13.8-1.4 2-2.8 3.7-4.7 5-2.2-.8-4-2.4-5.8-4-8-7-16.2-13.6-24.2-20.6-2.5-1.8-5.2-5-8.7-3.7-4 3-6.4 7.4-9.5 11.2-4.2 1.6-7.8 5-8.7 9.5-1 4.4 1 8.8 3.5 12.2.3 7.5-.3 15 .3 22.4 1 4 6 3 9.3 3.3 3.3-.2 8.3.7 9.4-3.4.6-7.4 0-15 .2-22.4 1-1 1.8-2.3 2.7-3.5 9.6 8 19.3 16.2 28.8 24.5 2 2 5.6 4.4 8.4 2 3.7-3.5 6.3-8 9.7-12v25c0 4-2.2 8.4-6.2 9.7-3 .4-5.8 0-8.7.2h-94c-5.3.3-9-5-9-10v-71c-.2-4 2-8.6 5.8-10.3 1.8-.7 3.7-.5 5.5-.7.2-9-.8-18.2 2-27 4-15.4 16.4-28.4 31.8-33m2.5 20.5c-8.8 4-15.2 12.8-16.2 22.4-.5 5.7-.2 11.5-.3 17.2h56c0-5.8.3-11.6-.2-17.3-1-9.4-7-18-15.5-22-7.4-4-16.5-4-24-.4z"/><path fill="#00a4b4" stroke="#00a4b4" stroke-width=".1" d="M141.4 83.5c7.4-3.6 16.5-3.5 24 .3 8.3 4 14.4 12.7 15.4 22 .5 5.8.2 11.6.3 17.4h-56c0-5.7-.2-11.5.3-17.3 1-9.8 7.4-18.6 16.2-22.6z"/><path fill="#9aba2f" stroke="#9aba2f" stroke-width=".1" d="M256.8 86.8c1.7-2 4.6-4.7 7.4-3 3.4 2.2 6.5 5 9.5 7.5 2 2 1.7 5.3 0 7.3L212 180c-3.4 4-6 8.5-9.7 12-2.8 2.4-6.2 0-8.3-2-9.5-8.3-19.2-16.4-28.8-24.5-4.6-4-9.4-7.7-13.8-12-1.8-1.5-2.6-3.7-2.6-6 3-3.8 5.6-8.2 9.5-11.2 3.5-1.4 6.2 2 8.7 3.8l24.2 21c1.8 1.4 3.6 3 5.8 4 2-1.5 3.3-3.4 4.7-5 3.3-4.8 7-9.3 10.3-14 15-19.7 30-39.3 44.8-59z"/><path fill="#f7f7f7" stroke="#f7f7f7" stroke-width=".1" d="M266.4 114.3c4.7-4.6 12-5.3 18.2-4.7 4.5.6 9.3 2 12.3 5.6 2.5 2.8 3 6.8 4 10.5l-11 .6-2-4.7c-2.4-2.4-6-2.8-9-2.4-2.5.4-5.4 1.3-6 4 0 1.8 1.2 3.3 3 4 4.3 2 9.3 2.5 14 4 4.2 1.5 8.5 4 10.5 8.2 4 8 0 19-9 21.8-7.5 2-16 2.4-23-1.7-5.4-3-7.4-9.2-8.4-15l10.7-1c1 2.8 1.8 6.3 4.8 8 4 2.2 9.5 2.2 13-.7 2.6-2 3-6.7-.5-8-6.8-3.4-15.4-3-21.3-8.5-5.6-5-5.7-14.7-.3-20zm50.4-1.5c6.6-4.2 15-4 22.3-2 6.5 2 10.4 8.5 10.3 15-3.6 0-7 .3-10.6.6-.8-2.3-1.4-5-3.8-6.3-3.8-1.5-8.5-1.3-12 1-2.2 1.6-1.3 5 1 6 7 3.3 15 3 21.4 7.8 7 5.5 7 17.3.5 23.2-4 3.6-9.7 4.4-15 4.6-5.5 0-11.6-.8-16-4.7-3.7-3.5-5.3-8.7-6-13.6l10.5-1c1 3 2 6.6 5 8 4 2.2 9 2 12.7-.6 2.7-2 3.3-6.6 0-8-6.6-3.5-15-3.2-21-8-6.8-5.4-6.6-17.4.8-22.2zm43.6-1.8h11v41.2h25.4v9.4h-36.4V111z"/><path fill="#00a4b4" stroke="#00a4b4" stroke-width=".1" d="M273 123.2c.7-2.7 3.6-3.6 6-4 3-.5 6.7 0 9 2.4 1 3.2 1.4 6.5 2 9.7-4.6-1.6-9.6-2.2-14-4.2-1.7-.4-3-2-3-3.7zM140 157c1-4.5 4.6-8 8.8-9.5 0 2.3.8 4.5 2.6 6 4.4 4.3 9.2 8 13.8 12l-2.7 3.6c-.2 7.7.4 15-.2 22.6-1 4-6.2 3.2-9.3 3.4-3.2-.3-8.2.6-9.3-3.4-.6-7.5 0-15-.3-22.4-2.6-3.4-4.6-7.8-3.3-12.2z"/><path fill="#f7f7f7" stroke="#f7f7f7" stroke-width=".1" d="M268.6 176.5c5.3-2.4 13.6-1.5 15.3 5.2l-6 1c-1.5-3-6-4-7.8-1 3.7 1.6 7.7 2 11.3 4 4 2 3.5 8.3 0 10.7-3.4 2.2-7.8 2-11.5 1-3-.6-4.7-3.3-6-6l6-1c1 3.7 8 5 8.2.5-3.6-1.7-7.8-1.8-11-4-3.4-3-2.4-8.8 1.4-10.6zm20.4 4.7c2.6-6 11.3-7.8 16-3.2 3 2.7 3 7 3.2 10.6h-14.5c1.2 1.8 1.8 4.4 4.3 4.7 2 0 3-1.7 4-2.8l6 1c-1.4 2.2-2.7 5-5.4 6-3.5 1-7.8 1-10.8-1.3-3-2-3.5-5.8-4-9l1-6m8.7-.8c-2.2.3-2.8 2.5-3.6 4.2h8.2c-.7-2-2-5-4.8-4.2zm17-2c5-5.4 15.7-3.5 17.3 4.3l-6 1c-1-3.4-5.5-4.7-7.3-1.3-1.2 3.4-1.6 9.2 2.6 10.8 3 .8 4.6-1.8 5-4 2.3.2 4.3.6 6.4 1-1 2.7-2.3 5.8-5.3 7-4.7 2-11.5 1-14-4.2-2-4.6-2-10.7 1.5-14.6zM336 176h6c.4 5.3-.5 10.7.7 16 1.5 2.5 6 1 6.3-1.8.7-4.7 0-9.5.3-14.2h6v21.6H350v-2c-3.7 3.2-11.4 4-13.4-1.8-1.2-5.8-.2-12-.5-17.8zm25.5 0h5.6v2c2-3 5.5-3 8.5-1.5-.6 1.8-1 3.7-1.7 5.6l-3-1.2c-1 1-2.5 1.8-2.6 3.4-1 4.6-.4 9-.5 13.6h-6V176zm18 2.5c4-4.6 12.3-4 15.5 1.2 1.6 2.7 1.7 6 2 9-5 0-9.7-.2-14.6 0 1 1.8 1.8 4.6 4.4 4.5 2 .4 2.7-1.7 3.8-2.8l6 1c-1.5 3.6-4.6 6.8-8.7 6.6-4.3.7-9.2-1.8-10.4-6.3-1-4.4-1-9.6 2-13.2m3.2 6c2.8.2 5.6.2 8.4 0-.6-1.7-1.5-4.3-4-4-2.5-.4-3.5 2.3-4.3 4z"/><path fill="#9aba2f" stroke="#9aba2f" stroke-width=".1" d="M297.5 180.4c2.7-.7 4 2.2 4.8 4.2H294c.8-1.7 1.3-4 3.5-4.2zm85.2 4.2c.8-1.8 1.8-4.5 4.3-4.2 2.5-.2 3.4 2.4 4 4.2h-8.3z"/></svg>